# Blender v3.0.0 OBJ File: 'room.blend'
# www.blender.org
mtllib light_12.mtl
o Cylinder001.011_Untitled.020
v 8.398906 1.809807 8.143275
v 8.418715 1.822146 8.176701
v 8.449777 1.831944 8.201263
v 8.487863 1.836830 8.214943
v 8.528645 1.837240 8.215136
v 8.567167 1.832133 8.202818
v 8.598605 1.823216 8.178402
v 8.626889 1.803083 8.125761
v 8.620494 1.781712 8.070783
v 8.585646 1.763277 8.021489
v 8.531317 1.754832 7.999267
v 8.490558 1.754230 7.998792
v 8.452127 1.759476 8.011432
v 8.420507 1.768356 8.035574
v 8.399835 1.781187 8.068305
v 8.412548 1.924230 8.094841
v 8.430183 1.935284 8.123902
v 8.457401 1.943511 8.145586
v 8.490915 1.947934 8.157269
v 8.526682 1.948031 8.157538
v 8.560388 1.943793 8.146364
v 8.587970 1.935722 8.125098
v 8.606102 1.924778 8.096309
v 8.612597 1.912266 8.063472
v 8.606670 1.899688 8.030552
v 8.589035 1.888563 8.001516
v 8.561817 1.880248 7.979867
v 8.528303 1.875761 7.968209
v 8.492537 1.875654 7.967943
v 8.458831 1.879940 7.979099
v 8.431249 1.888094 8.000333
v 8.413116 1.899119 8.029092
v 8.444044 1.973678 8.052114
v 8.467203 1.987605 8.088615
v 8.510247 1.993006 8.102749
v 8.552986 1.987325 8.087846
v 8.571181 1.980860 8.052080
v 8.575174 1.965028 8.029457
v 8.552015 1.951090 7.992961
v 8.508971 1.945698 7.978824
v 8.466232 1.951393 7.993722
v 8.448037 1.970406 8.024697
v 8.430740 2.082999 8.028129
v 8.445314 2.092002 8.051712
v 8.467644 2.098684 8.069217
v 8.495035 2.102240 8.078530
v 8.524183 2.102240 8.078530
v 8.551575 2.098684 8.069217
v 8.573904 2.092002 8.051712
v 8.592840 2.078524 8.017345
v 8.588448 2.062473 7.974456
v 8.559709 2.046090 7.938450
v 8.524183 2.043282 7.924090
v 8.495035 2.043282 7.924090
v 8.467644 2.046838 7.933404
v 8.445314 2.053520 7.950909
v 8.430740 2.062523 7.974492
v 8.457727 2.224446 8.009342
v 8.509428 2.231204 8.027045
v 8.561213 2.224530 8.009559
v 8.590081 2.204932 7.964042
v 8.577500 2.184263 7.911945
v 8.537585 2.175506 7.881291
v 8.482248 2.175498 7.881111
v 8.439986 2.188086 7.914090
v 8.499472 2.263500 7.945263
v 8.522567 2.262059 7.941884
v 8.522919 2.253459 7.918020
v 8.494471 2.254371 7.921618
v 8.430302 2.207417 7.964733
v 8.458807 2.240749 7.946100
v 8.482998 2.254566 7.979057
v 8.526548 2.255141 7.983799
v 8.553823 2.247203 7.963006
v 8.561799 2.226852 7.917712
v 8.510653 2.222812 7.890015
v 8.465392 2.228414 7.913790
v 8.420101 1.943931 8.050491
v 8.406621 1.911671 8.061913
v 8.431377 1.961015 8.091156
v 8.478098 1.975197 8.128365
v 8.539616 1.975392 8.128878
v 8.587057 1.961498 8.092428
v 8.599117 1.943931 8.050490
v 8.587841 1.929571 8.008786
v 8.541121 1.915350 7.971592
v 8.479603 1.915153 7.971080
v 8.432161 1.929083 8.007516
v 8.425678 2.072761 8.001310
v 8.392127 1.795132 8.105825
v 8.426353 1.873511 8.092977
v 8.455201 1.891381 8.139788
v 8.495141 1.897600 8.156008
v 8.538423 1.896652 8.153593
v 8.573437 1.887437 8.129384
v 8.592831 1.873583 8.093163
v 8.587905 1.858172 8.052726
v 8.564017 1.845244 8.018929
v 8.524077 1.839072 8.002690
v 8.480796 1.839974 8.005123
v 8.436461 1.853209 8.039793
v 8.441422 2.032791 8.003405
v 8.453255 2.034731 8.050587
v 8.487370 2.044942 8.077251
v 8.531898 2.044940 8.077233
v 8.558973 2.038146 8.058385
v 8.577797 2.041563 8.026384
v 8.565964 2.011568 7.989912
v 8.531849 2.001413 7.963226
v 8.487320 2.001424 7.963241
v 8.460245 2.008918 7.981822
vt 0.195326 0.000000
vt 0.087368 0.000000
vt 0.029178 0.000000
vt 0.027777 0.000000
vt 0.131144 0.000000
vt 0.332451 0.000000
vt 0.570058 0.000000
vt 0.804673 0.000000
vt 0.912632 0.000000
vt 0.970821 0.000000
vt 0.972222 0.001196
vt 0.916667 0.001822
vt 0.861111 0.001038
vt 0.805556 0.001822
vt 0.750000 0.001117
vt 0.340033 0.000000
vt 0.777583 0.133333
vt 0.888694 0.133333
vt 0.972222 0.133333
vt 0.055360 0.133333
vt -0.027778 0.133333
vt -0.027778 0.001196
vt 0.027778 0.001822
vt 0.083333 0.001069
vt 0.138889 0.133333
vt 0.138889 0.001822
vt 0.222027 0.133333
vt 0.224901 0.001539
vt 0.305556 0.133333
vt 0.305556 0.001038
vt 0.388694 0.133333
vt 0.391564 0.001479
vt 0.472222 0.133333
vt 0.472222 0.001822
vt 0.555360 0.133333
vt 0.527778 0.001038
vt 0.583333 0.001822
vt 0.666471 0.133333
vt 0.638889 0.001196
vt 0.694444 0.001822
vt 0.831865 0.333333
vt 0.750000 0.333333
vt 0.750000 0.249828
vt 0.805556 0.249802
vt 0.861111 0.249705
vt 0.942967 0.333333
vt 0.916667 0.249582
vt 0.972222 0.249491
vt 0.054169 0.333333
vt -0.027778 0.333333
vt -0.027778 0.249491
vt 0.027778 0.249474
vt 0.083333 0.249539
vt 0.165321 0.333333
vt 0.138889 0.249656
vt 0.194444 0.249770
vt 0.250000 0.333333
vt 0.250000 0.249828
vt 0.331865 0.333333
vt 0.305556 0.249802
vt 0.361111 0.249705
vt 0.442967 0.333333
vt 0.416667 0.249582
vt 0.472222 0.249491
vt 0.554169 0.333333
vt 0.527778 0.249474
vt 0.583333 0.249539
vt 0.665321 0.333333
vt 0.638889 0.249656
vt 0.694444 0.249770
vt 0.832865 0.505051
vt 0.721547 0.533333
vt 0.700855 0.415447
vt 0.138889 0.504447
vt 0.200855 0.415447
vt 0.221547 0.533333
vt 0.332865 0.505051
vt 0.638889 0.504447
vt 0.225729 0.812654
vt 0.217792 0.600000
vt 0.305556 0.599948
vt 0.913145 0.933333
vt 0.775594 0.933333
vt 0.776558 0.816170
vt 0.887669 0.816169
vt 0.972222 0.816168
vt 0.053361 0.933333
vt -0.027778 0.933333
vt -0.001222 0.816168
vt 0.109887 0.816169
vt 0.164467 0.933333
vt 0.314010 0.912443
vt 0.442719 0.816226
vt 0.496754 0.933333
vt 0.554333 0.816174
vt 0.664481 0.933333
vt 0.665446 0.816172
vt 0.899031 1.000000
vt 0.808778 1.000000
vt 0.214958 1.000000
vt 0.406670 1.000000
vt -0.012062 1.000000
vt 0.131335 1.000000
vt 0.374865 1.000000
vt 0.342380 0.799858
vt 0.658172 1.000000
vt 0.779283 0.400000
vt 0.890332 0.400000
vt 0.972222 0.400000
vt 0.001551 0.400000
vt 0.112761 0.400000
vt 0.279283 0.400000
vt 0.390332 0.400000
vt 0.501551 0.400000
vt 0.612761 0.400000
vt 0.750000 0.600000
vt 0.805556 0.600000
vt 0.861111 0.600000
vt 0.916667 0.600000
vt 0.972222 0.600000
vt -0.027778 0.600000
vt 0.027778 0.600000
vt 0.083333 0.600000
vt 0.138889 0.600000
vt 0.399638 0.600154
vt 0.472222 0.600000
vt 0.527778 0.600000
vt 0.583333 0.600000
vt 0.638889 0.600000
vt 0.694444 0.600000
vt 0.944018 0.505070
vt -0.027778 0.505070
vt 0.055176 0.505090
vt 0.444018 0.505070
vt 0.555176 0.505090
vn -0.6443 -0.6765 -0.3565
vn -0.4430 -0.7214 -0.5323
vn -0.1236 -0.7772 -0.6170
vn 0.1792 -0.7599 -0.6249
vn 0.5634 -0.6878 -0.4578
vn 0.8169 -0.5685 -0.0967
vn 0.8639 -0.3925 0.3156
vn 0.6809 -0.2649 0.6828
vn 0.4283 -0.2124 0.8783
vn 0.1257 -0.1433 0.9817
vn -0.1526 -0.1661 0.9742
vn -0.4373 -0.1880 0.8794
vn -0.6771 -0.2821 0.6796
vn -0.8211 -0.3425 0.4565
vn -0.8624 -0.4817 0.1558
vn -0.8233 -0.5584 -0.1016
vn -0.9850 0.0649 0.1601
vn -0.6597 0.2763 0.6988
vn -0.1752 0.3556 0.9181
vn 0.3418 0.3412 0.8756
vn 0.7650 0.2339 0.6000
vn 0.9854 0.0609 0.1592
vn 0.9416 -0.1201 -0.3146
vn 0.6402 -0.2735 -0.7178
vn 0.1792 -0.3506 -0.9192
vn -0.3619 -0.3312 -0.8714
vn -0.8655 -0.1753 -0.4692
vn -0.7350 0.6421 0.2179
vn -0.8556 0.4812 -0.1907
vn -0.9999 -0.0118 -0.0106
vn -0.9443 0.1154 0.3083
vn -0.7671 0.2265 0.6002
vn -0.2973 0.7753 0.5573
vn -0.5115 0.3054 0.8032
vn -0.1679 0.3489 0.9220
vn 0.2838 0.7770 0.5618
vn 0.1389 0.3602 0.9225
vn 0.5219 0.3032 0.7973
vn 0.7311 0.6426 0.2291
vn 0.7432 0.2348 0.6265
vn 0.9378 0.1177 0.3267
vn 0.8556 0.4859 -0.1784
vn 0.9999 -0.0108 -0.0110
vn 0.7350 0.3336 -0.5903
vn 0.9508 -0.1147 -0.2879
vn 0.7627 -0.2241 -0.6067
vn 0.2973 0.2067 -0.9321
vn 0.5115 -0.3076 -0.8024
vn 0.1679 -0.3543 -0.9199
vn -0.2838 0.2050 -0.9367
vn -0.1389 -0.3462 -0.9278
vn -0.5219 -0.3053 -0.7965
vn -0.7311 0.3265 -0.5991
vn -0.7379 -0.2433 -0.6296
vn -0.9449 -0.1306 -0.3003
vn -0.8600 0.0027 0.5104
vn -0.9476 -0.3187 -0.0204
vn -0.9390 0.1807 -0.2926
vn 0.7536 0.0704 0.6535
vn 0.9390 0.3298 0.0977
vn 0.9485 -0.2215 0.2267
vn 0.8629 -0.3371 -0.3766
vn -0.7525 -0.3856 -0.5339
vn 0.9411 0.3370 0.0275
vn 0.9676 -0.0928 0.2347
vn 0.9285 -0.2699 -0.2552
vn -0.3617 0.8896 0.2790
vn -0.6811 0.7200 -0.1331
vn -0.9289 0.3684 0.0376
vn -0.6179 0.5600 0.5519
vn -0.0035 0.6359 0.7717
vn 0.2072 0.9156 0.3447
vn 0.6105 0.5538 0.5661
vn 0.5979 0.8007 0.0363
vn 0.6419 0.5593 -0.5245
vn 0.3276 -0.0090 -0.9448
vn 0.0108 0.4684 -0.8834
vn -0.3301 -0.0122 -0.9439
vn -0.5779 0.5442 -0.6082
vn -0.8178 0.1351 -0.5594
vn -0.1865 0.9795 -0.0759
vn 0.2680 0.9537 -0.1361
vn 0.2491 0.8009 -0.5446
vn -0.2806 0.8139 -0.5088
vn 0.8073 0.0857 -0.5839
vn -0.8889 0.4576 -0.0187
vn -0.5863 0.6150 0.5273
vn 0.0073 0.6895 0.7242
vn 0.5921 0.6205 0.5142
vn 0.8889 0.3537 -0.2910
vn 0.5863 0.1072 -0.8030
vn -0.0073 0.0315 -0.9995
vn -0.5921 0.1200 -0.7969
vn -0.9840 -0.1631 0.0711
vn -0.9299 -0.0393 0.3657
vn -0.7536 0.0780 0.6527
vn -0.4968 0.1544 0.8540
vn -0.1674 0.1968 0.9660
vn 0.1675 0.1968 0.9660
vn 0.4969 0.1542 0.8540
vn 0.7694 0.0654 0.6354
vn 0.6029 -0.4362 -0.6680
vn 0.1684 -0.4938 -0.8531
vn -0.1563 -0.4974 -0.8533
vn -0.5067 -0.4517 -0.7343
vn -0.7492 -0.3814 -0.5416
vn -0.9288 -0.2681 -0.2558
vn -0.3358 0.1677 0.9269
vn 0.3182 0.1732 0.9321
vn 0.3278 -0.4999 -0.8016
vn -0.3182 -0.4920 -0.8104
usemtl Material_Lampada.003
s 1
f 14/1/1 13/2/2 12/3/3
f 12/3/3 11/4/4 10/5/5
f 12/3/3 10/5/5 9/6/6
f 8/7/7 7/8/8 6/9/9
f 9/6/6 8/7/7 6/9/9
f 6/9/9 5/10/10 4/11/11
f 4/11/11 3/12/12 2/13/13
f 6/9/9 4/11/11 2/13/13
f 9/6/6 6/9/9 2/13/13
f 12/3/3 9/6/6 2/13/13
f 2/13/13 1/14/14 90/15/15
f 12/3/3 2/13/13 90/15/15
f 14/1/1 12/3/3 90/15/15
f 15/16/16 14/1/1 90/15/15
f 90/15/15 1/14/14 91/17/17
f 92/18/18 91/17/17 1/14/14
f 1/14/14 2/13/13 92/18/18
f 2/13/13 3/12/12 92/18/18
f 93/19/19 92/18/18 3/12/12
f 3/12/12 4/11/11 93/19/19
f 94/20/20 93/21/19 4/22/11
f 4/22/11 5/23/10 94/20/20
f 5/23/10 6/24/9 94/20/20
f 95/25/21 94/20/20 6/24/9
f 6/24/9 7/26/8 95/25/21
f 96/27/22 95/25/21 7/26/8
f 7/26/8 8/28/7 96/27/22
f 97/29/23 96/27/22 8/28/7
f 8/28/7 9/30/6 97/29/23
f 98/31/24 97/29/23 9/30/6
f 9/30/6 10/32/5 98/31/24
f 99/33/25 98/31/24 10/32/5
f 10/32/5 11/34/4 99/33/25
f 100/35/26 99/33/25 11/34/4
f 11/34/4 12/36/3 100/35/26
f 12/36/3 13/37/2 100/35/26
f 101/38/27 100/35/26 13/37/2
f 13/37/2 14/39/1 101/38/27
f 14/39/1 15/40/16 101/38/27
f 91/17/17 101/38/27 15/40/16
f 15/40/16 90/15/15 91/17/17
f 80/41/28 78/42/29 79/43/30
f 79/43/30 16/44/31 80/41/28
f 16/44/31 17/45/32 80/41/28
f 81/46/33 80/41/28 17/45/32
f 17/45/32 18/47/34 81/46/33
f 18/47/34 19/48/35 81/46/33
f 82/49/36 81/50/33 19/51/35
f 19/51/35 20/52/37 82/49/36
f 20/52/37 21/53/38 82/49/36
f 83/54/39 82/49/36 21/53/38
f 21/53/38 22/55/40 83/54/39
f 22/55/40 23/56/41 83/54/39
f 84/57/42 83/54/39 23/56/41
f 23/56/41 24/58/43 84/57/42
f 85/59/44 84/57/42 24/58/43
f 24/58/43 25/60/45 85/59/44
f 25/60/45 26/61/46 85/59/44
f 86/62/47 85/59/44 26/61/46
f 26/61/46 27/63/48 86/62/47
f 27/63/48 28/64/49 86/62/47
f 87/65/50 86/62/47 28/64/49
f 28/64/49 29/66/51 87/65/50
f 29/66/51 30/67/52 87/65/50
f 88/68/53 87/65/50 30/67/52
f 30/67/52 31/69/54 88/68/53
f 31/69/54 32/70/55 88/68/53
f 78/42/29 88/68/53 32/70/55
f 32/70/55 79/43/30 78/42/29
f 103/71/56 102/72/57 42/73/58
f 106/74/59 37/75/60 107/76/61
f 108/77/62 107/76/61 37/75/60
f 111/78/63 42/73/58 102/72/57
f 61/79/64 50/80/65 51/81/66
f 72/82/67 71/83/68 70/84/69
f 70/84/69 58/85/70 72/82/67
f 58/85/70 59/86/71 72/82/67
f 73/87/72 72/88/67 59/89/71
f 59/89/71 60/90/73 73/87/72
f 74/91/74 73/87/72 60/90/73
f 60/90/73 61/79/64 74/91/74
f 75/92/75 74/91/74 61/79/64
f 75/92/75 63/93/76 76/94/77
f 63/93/76 64/95/78 76/94/77
f 77/96/79 76/94/77 64/95/78
f 64/95/78 65/97/80 77/96/79
f 71/83/68 77/96/79 65/97/80
f 65/97/80 70/84/69 71/83/68
f 66/98/81 67/99/82 68/100/83
f 66/98/81 68/100/83 69/101/84
f 66/98/81 69/101/84 71/83/68
f 71/83/68 72/82/67 66/98/81
f 72/88/67 73/87/72 66/102/81
f 67/103/82 66/102/81 73/87/72
f 73/87/72 74/91/74 67/103/82
f 68/104/83 67/103/82 74/91/74
f 74/91/74 75/92/75 68/104/83
f 62/105/85 75/92/75 61/79/64
f 75/92/75 76/94/77 68/104/83
f 63/93/76 75/92/75 62/105/85
f 69/106/84 68/104/83 76/94/77
f 76/94/77 77/96/79 69/106/84
f 77/96/79 71/83/68 69/101/84
f 78/42/29 80/41/28 33/107/86
f 34/108/87 33/107/86 80/41/28
f 80/41/28 81/46/33 34/108/87
f 35/109/88 34/108/87 81/46/33
f 81/50/33 82/49/36 35/110/88
f 36/111/89 35/110/88 82/49/36
f 82/49/36 83/54/39 36/111/89
f 37/75/60 36/111/89 83/54/39
f 38/112/90 37/75/60 83/54/39
f 83/54/39 84/57/42 38/112/90
f 84/57/42 85/59/44 38/112/90
f 39/113/91 38/112/90 85/59/44
f 85/59/44 86/62/47 39/113/91
f 40/114/92 39/113/91 86/62/47
f 86/62/47 87/65/50 40/114/92
f 41/115/93 40/114/92 87/65/50
f 87/65/50 88/68/53 41/115/93
f 42/73/58 41/115/93 88/68/53
f 33/107/86 42/73/58 88/68/53
f 88/68/53 78/42/29 33/107/86
f 89/116/94 43/117/95 70/84/69
f 58/85/70 70/84/69 43/117/95
f 43/117/95 44/118/96 58/85/70
f 44/118/96 45/119/97 58/85/70
f 59/86/71 58/85/70 45/119/97
f 45/119/97 46/120/98 59/86/71
f 46/121/98 47/122/99 59/89/71
f 60/90/73 59/89/71 47/122/99
f 47/122/99 48/123/100 60/90/73
f 48/123/100 49/124/101 60/90/73
f 61/79/64 60/90/73 49/124/101
f 49/124/101 50/80/65 61/79/64
f 51/81/66 62/105/85 61/79/64
f 51/81/66 52/125/102 62/105/85
f 62/105/85 52/125/102 63/93/76
f 52/125/102 53/126/103 63/93/76
f 64/95/78 63/93/76 53/126/103
f 53/126/103 54/127/104 64/95/78
f 54/127/104 55/128/105 64/95/78
f 65/97/80 64/95/78 55/128/105
f 55/128/105 56/129/106 65/97/80
f 56/129/106 57/130/107 65/97/80
f 70/84/69 65/97/80 57/130/107
f 57/130/107 89/116/94 70/84/69
f 16/44/31 79/43/30 91/17/17
f 17/45/32 16/44/31 91/17/17
f 91/17/17 92/18/18 17/45/32
f 18/47/34 17/45/32 92/18/18
f 19/48/35 18/47/34 92/18/18
f 92/18/18 93/19/19 19/48/35
f 20/52/37 19/51/35 93/21/19
f 93/21/19 94/20/20 20/52/37
f 21/53/38 20/52/37 94/20/20
f 22/55/40 21/53/38 94/20/20
f 94/20/20 95/25/21 22/55/40
f 23/56/41 22/55/40 95/25/21
f 95/25/21 96/27/22 23/56/41
f 24/58/43 23/56/41 96/27/22
f 25/60/45 24/58/43 96/27/22
f 96/27/22 97/29/23 25/60/45
f 26/61/46 25/60/45 97/29/23
f 97/29/23 98/31/24 26/61/46
f 27/63/48 26/61/46 98/31/24
f 28/64/49 27/63/48 98/31/24
f 98/31/24 99/33/25 28/64/49
f 29/66/51 28/64/49 99/33/25
f 99/33/25 100/35/26 29/66/51
f 30/67/52 29/66/51 100/35/26
f 31/69/54 30/67/52 100/35/26
f 100/35/26 101/38/27 31/69/54
f 32/70/55 31/69/54 101/38/27
f 79/43/30 32/70/55 101/38/27
f 101/38/27 91/17/17 79/43/30
f 43/117/95 89/116/94 102/72/57
f 102/72/57 103/71/56 43/117/95
f 103/71/56 42/73/58 33/107/86
f 44/118/96 43/117/95 103/71/56
f 33/107/86 34/108/87 103/71/56
f 45/119/97 44/118/96 103/71/56
f 103/71/56 104/131/108 45/119/97
f 104/131/108 103/71/56 34/108/87
f 46/120/98 45/119/97 104/131/108
f 34/108/87 35/109/88 104/131/108
f 47/122/99 46/121/98 104/132/108
f 104/132/108 105/133/109 47/122/99
f 105/133/109 104/132/108 35/110/88
f 48/123/100 47/122/99 105/133/109
f 35/110/88 36/111/89 105/133/109
f 49/124/101 48/123/100 105/133/109
f 105/133/109 106/74/59 49/124/101
f 106/74/59 105/133/109 36/111/89
f 50/80/65 49/124/101 106/74/59
f 106/74/59 107/76/61 50/80/65
f 37/75/60 106/74/59 36/111/89
f 51/81/66 50/80/65 107/76/61
f 107/76/61 108/77/62 51/81/66
f 108/77/62 37/75/60 38/112/90
f 52/125/102 51/81/66 108/77/62
f 38/112/90 39/113/91 108/77/62
f 108/77/62 109/134/110 52/125/102
f 109/134/110 108/77/62 39/113/91
f 53/126/103 52/125/102 109/134/110
f 39/113/91 40/114/92 109/134/110
f 54/127/104 53/126/103 109/134/110
f 109/134/110 110/135/111 54/127/104
f 110/135/111 109/134/110 40/114/92
f 55/128/105 54/127/104 110/135/111
f 40/114/92 41/115/93 110/135/111
f 56/129/106 55/128/105 110/135/111
f 110/135/111 111/78/63 56/129/106
f 111/78/63 110/135/111 41/115/93
f 57/130/107 56/129/106 111/78/63
f 111/78/63 102/72/57 57/130/107
f 42/73/58 111/78/63 41/115/93
f 89/116/94 57/130/107 102/72/57
