# Blender v3.0.0 OBJ File: ''
# www.blender.org
mtllib seat_17.mtl
o Cadeira1.016_Cube.016
v 10.245852 0.490829 8.302864
v 10.251378 0.450546 8.286118
v 7.182517 0.450545 7.273413
v 7.176991 0.490828 7.290160
v 7.420713 -0.007520 6.659155
v 7.388704 0.002006 6.648592
v 7.423590 0.001657 6.650438
v 10.425555 -0.007519 7.650733
v 10.428432 0.001657 7.642016
v 10.457565 0.002007 7.661296
v 7.084785 -0.007520 7.677141
v 7.081908 0.001657 7.685857
v 7.052657 0.002006 7.666937
v 7.081908 0.490828 7.685857
v 7.052657 0.490828 7.666937
v 10.086750 0.001657 8.677436
v 10.089626 -0.007519 8.668719
v 10.121517 0.002007 8.679642
v 10.121517 0.490829 8.679642
v 10.086750 0.490829 8.677436
v 7.084785 1.197149 7.677141
v 7.052656 1.187973 7.666937
v 7.081908 1.187973 7.685857
v 10.089626 1.197150 8.668719
v 10.086750 1.187973 8.677436
v 10.121517 1.187973 8.679642
v 10.260451 0.941281 8.258619
v 10.231031 0.946799 8.240211
v 10.184283 1.187973 8.489437
v 10.152557 1.197150 8.478016
v 10.254357 1.039024 8.277087
v 10.225058 1.042604 8.258313
v 10.237983 1.117208 8.326710
v 10.208046 1.123824 8.309863
v 10.213475 1.169449 8.400976
v 10.182588 1.178093 8.387012
v 7.115422 1.187973 7.476732
v 7.147716 1.197149 7.486437
v 7.191590 0.941281 7.245915
v 7.226189 0.946798 7.248633
v 7.144614 1.169448 7.388272
v 7.177746 1.178092 7.395433
v 7.169121 1.117207 7.314006
v 7.203204 1.123823 7.318285
v 7.185496 1.039023 7.264383
v 7.220216 1.042603 7.266735
v 7.346910 0.482570 6.775240
v 7.380650 0.490828 6.780562
v 7.388704 0.352934 6.648592
v 7.423590 0.353838 6.650438
v 7.363950 0.471757 6.723604
v 7.397082 0.480401 6.730766
v 7.376929 0.444089 6.684272
v 7.411013 0.450705 6.688551
v 7.385602 0.402681 6.657991
v 7.420321 0.406262 6.660343
v 10.457565 0.352935 7.661296
v 10.428432 0.353839 7.642016
v 10.415771 0.482570 7.787945
v 10.385491 0.490829 7.772141
v 10.454463 0.402682 7.670695
v 10.425163 0.406263 7.651921
v 10.445790 0.444090 7.696976
v 10.415854 0.450705 7.680129
v 10.432811 0.471757 7.736309
v 10.401924 0.480401 7.722344
v 10.275886 0.484764 8.211849
v 10.248220 0.490829 8.188123
v 10.231031 0.545666 8.240211
v 10.260839 0.538643 8.257446
v 10.238723 0.503379 8.216902
v 10.234964 0.515368 8.228291
v 10.266029 0.498668 8.241718
v 7.191729 0.537847 7.245498
v 7.226189 0.545666 7.248633
v 7.243378 0.490828 7.196545
v 7.207714 0.485725 7.197057
v 7.230123 0.515368 7.236713
v 7.233881 0.503378 7.225324
v 7.196637 0.500363 7.230625
vt 0.495853 0.013301
vt 0.399965 0.493716
vt 0.399965 0.013301
vt 0.965121 0.518218
vt 0.978326 0.015705
vt 0.978326 0.518218
vt 0.442895 0.707504
vt 0.277737 0.691445
vt 0.442895 0.512634
vt 0.015507 0.652532
vt 0.015507 0.512634
vt 0.068660 0.704212
vt 0.516058 0.641009
vt 0.575438 0.730129
vt 0.523443 0.678135
vt 0.325942 0.978037
vt 0.294774 0.957211
vt 0.273948 0.926043
vt 0.738353 0.015705
vt 0.675817 0.518218
vt 0.675817 0.015705
vt 0.810037 0.726339
vt 0.793978 0.561182
vt 0.988848 0.561182
vt 0.908206 0.015705
vt 0.927172 0.518218
vt 0.908206 0.518218
vt 0.797271 0.935415
vt 0.796396 0.757508
vt 0.988848 0.988568
vt 0.836978 0.518218
vt 0.947158 0.015705
vt 0.947158 0.518218
vt 0.776722 0.518218
vt 0.769496 0.015705
vt 0.776722 0.015705
vt 0.927172 0.015705
vt 0.748731 0.518218
vt 0.748731 0.015705
vt 0.821619 0.015705
vt 0.821619 0.518218
vt 0.759667 0.518218
vt 0.759667 0.015705
vt 0.790853 0.744973
vt 0.793978 0.719311
vt 0.769496 0.518218
vt 0.632508 0.493716
vt 0.495853 0.493716
vt 0.826953 0.518218
vt 0.830311 0.015705
vt 0.830311 0.518218
vt 0.259780 0.711305
vt 0.284766 0.707504
vt 0.998909 0.015705
vt 0.998909 0.518218
vt 0.277768 0.486891
vt 0.283110 0.487954
vt 0.278771 0.491816
vt 0.012472 0.484757
vt 0.011268 0.489964
vt 0.006917 0.485651
vt 0.284949 0.189808
vt 0.286024 0.184786
vt 0.290122 0.188722
vt 0.022995 0.183286
vt 0.023891 0.188026
vt 0.018944 0.186803
vt 0.634307 0.493716
vt 0.632508 0.498833
vt 0.634307 0.013301
vt 0.632508 0.013301
vt 0.632508 0.008183
vt 0.827655 0.523571
vt 0.826953 0.015705
vt 0.828130 0.010352
vt 0.400033 0.008183
vt 0.495853 0.008183
vt 0.400033 0.498833
vt 0.495853 0.498833
vt 0.927422 0.523571
vt 0.927422 0.010352
vt 0.908073 0.010352
vt 0.946661 0.523571
vt 0.946661 0.010352
vt 0.963953 0.523571
vt 0.963953 0.010352
vt 0.976790 0.523571
vt 0.965121 0.015705
vt 0.976790 0.010352
vt 0.768329 0.010352
vt 0.768328 0.523571
vt 0.775822 0.523571
vt 0.759171 0.010352
vt 0.759171 0.523571
vt 0.748982 0.010352
vt 0.748981 0.523571
vt 0.739134 0.010352
vt 0.738353 0.518218
vt 0.739133 0.523571
vt 0.821962 0.523571
vt 0.836451 0.523571
vt 0.836391 0.010352
vt 0.836978 0.015705
vt 0.821908 0.010352
vt 0.908073 0.523571
vt 0.775822 0.010352
vt 0.245692 0.705470
vt 0.046989 0.699901
vt 0.030482 0.688871
vt 0.019452 0.672364
vt 0.516058 0.561182
vt 0.614404 0.737880
vt 0.774917 0.738372
vt 0.544270 0.709303
vt 0.266197 0.887078
vt 0.266022 0.726248
vt 0.442895 0.985422
vt 0.363068 0.985422
vt 0.848950 0.988568
vt 0.829118 0.984623
vt 0.801581 0.957086
vt 0.812611 0.973594
vt 0.997318 0.523571
vt 0.997318 0.010352
vt 0.676820 0.010352
vt 0.676820 0.523571
vn -0.1899 0.0000 0.9818
vn -0.4001 -0.3715 0.8378
vn -0.1772 -0.3714 0.9114
vn 0.2449 0.9157 -0.3185
vn -0.0949 0.9865 -0.1336
vn 0.1558 0.9865 -0.0509
vn -0.9431 -0.0000 0.3325
vn -0.9496 -0.0000 -0.3134
vn -0.8247 -0.5005 0.2634
vn -0.5415 0.0617 -0.8384
vn -0.5097 -0.5008 -0.6996
vn -0.7157 0.6325 -0.2962
vn 0.7571 0.6265 0.1849
vn 0.9104 0.2484 -0.3309
vn 0.8003 0.5996 0.0027
vn -0.6447 0.5996 -0.4742
vn -0.5788 0.4589 -0.6741
vn -0.5347 0.2484 -0.8077
vn 0.1837 0.0972 -0.9782
vn 0.4043 -0.3709 -0.8360
vn 0.1727 -0.3709 -0.9125
vn 0.9496 -0.0000 0.3134
vn 0.5600 -0.0000 0.8285
vn 0.5060 -0.5005 0.7025
vn 0.1893 0.1012 -0.9767
vn 0.4131 0.3794 -0.8279
vn 0.4292 0.1012 -0.8975
vn 0.7514 0.6325 0.1880
vn 0.8328 0.5375 0.1324
vn 0.8260 -0.5008 -0.2588
vn 0.4203 0.1845 -0.8884
vn 0.0935 0.7009 -0.7071
vn 0.3457 0.7009 -0.6239
vn 0.1517 0.9868 -0.0565
vn -0.0073 0.9157 -0.4017
vn -0.0883 0.9868 -0.1356
vn 0.1608 0.3794 -0.9112
vn -0.0428 0.9787 -0.2010
vn 0.1689 0.9774 -0.1268
vn 0.9403 0.3372 -0.0465
vn -0.3987 0.3706 0.8389
vn -0.4318 0.0000 0.9020
vn 0.3357 0.8261 -0.4527
vn 0.0951 0.5332 -0.8406
vn 0.4161 0.5303 -0.7387
vn -0.7295 0.3342 -0.5968
vn -0.2284 0.9218 0.3132
vn -0.0029 0.9218 0.3876
vn -0.0026 -0.9209 -0.3899
vn 0.2342 -0.9209 -0.3117
vn -0.2323 -0.9214 0.3114
vn 0.0013 -0.9214 0.3885
vn -0.8223 0.5041 0.2639
vn -0.1789 0.3706 0.9114
vn 0.5038 0.5041 0.7015
vn 0.0108 0.8320 -0.5547
vn -0.5354 0.0569 -0.8427
vn 0.8663 0.4589 -0.1972
vn -0.7185 0.6265 -0.3021
vn 0.8663 0.4589 -0.1973
vn 0.4345 0.0972 -0.8954
vn 0.9342 0.0617 -0.3515
vn 0.9567 0.1212 -0.2645
vn -0.6218 0.1198 -0.7739
vn 0.1787 0.1826 -0.9668
vn -0.7369 0.5569 -0.3832
vn 0.9318 0.0569 -0.3585
usemtl Material_Sofa
s 1
f 20/1/1 12/2/2 16/3/3
f 36/4/4 38/5/5 30/6/6
f 15/7/7 3/8/8 13/9/9
f 49/10/10 6/11/11 47/12/12
f 29/13/13 31/14/14 35/15/15
f 41/16/16 43/17/17 45/18/18
f 50/19/19 9/20/20 7/21/21
f 2/22/22 19/23/23 18/24/24
f 40/25/25 32/26/26 28/27/27
f 59/28/28 67/29/29 10/30/30
f 69/31/31 40/25/25 28/27/27
f 44/32/32 36/4/4 34/33/33
f 60/34/34 52/35/35 48/36/36
f 46/37/37 34/33/33 32/26/26
f 62/38/26 50/19/19 56/39/37
f 60/34/34 76/40/38 68/41/39
f 64/42/33 56/39/37 54/43/32
f 73/44/40 1/45/22 2/22/22
f 66/46/4 54/43/32 52/35/35
f 20/1/1 23/47/41 14/48/42
f 76/40/38 71/49/43 68/41/39
f 78/50/44 69/31/31 72/51/45
f 80/52/46 3/8/8 4/53/8
f 30/6/6 21/54/47 24/55/48
f 5/56/49 6/57/11 7/58/21
f 8/59/50 9/60/20 10/61/30
f 11/62/51 12/63/2 13/64/9
f 16/65/3 17/66/52 18/67/24
f 21/68/47 22/69/53 23/47/41
f 24/70/48 25/71/54 26/72/55
f 71/49/43 72/51/45 73/73/40
f 78/50/44 79/74/56 80/75/46
f 5/56/49 9/60/20 8/59/50
f 20/1/1 18/76/24 19/77/23
f 17/66/52 12/63/2 11/62/51
f 13/78/9 14/48/42 15/79/7
f 21/68/47 25/71/54 24/70/48
f 26/72/55 20/1/1 19/77/23
f 15/79/7 23/47/41 22/69/53
f 31/80/14 28/27/27 32/26/26
f 45/81/18 40/25/25 39/82/57
f 31/80/14 34/33/33 33/83/58
f 43/84/17 46/37/37 45/81/18
f 33/83/58 36/4/4 35/85/15
f 41/86/16 44/32/32 43/84/17
f 35/85/15 30/6/6 29/87/13
f 41/86/16 38/5/5 42/88/35
f 24/55/48 29/87/13 30/6/6
f 37/89/59 21/54/47 38/5/5
f 51/90/16 48/36/36 52/35/35
f 65/91/15 60/34/34 59/92/28
f 53/93/17 52/35/35 54/43/32
f 63/94/60 66/46/4 65/91/15
f 53/93/17 56/39/37 55/95/18
f 61/96/14 64/42/33 63/94/60
f 55/95/18 50/19/19 49/97/10
f 61/96/14 58/98/61 62/38/26
f 7/21/21 49/97/10 50/19/19
f 57/99/62 9/20/20 58/98/61
f 17/66/52 10/61/30 18/67/24
f 11/62/51 6/57/11 5/56/49
f 71/49/43 67/100/29 68/41/39
f 72/51/45 70/101/63 73/73/40
f 78/50/44 74/102/64 75/103/65
f 79/74/56 77/104/66 80/75/46
f 72/51/45 79/74/56 78/50/44
f 69/31/31 27/105/67 70/101/63
f 59/92/28 68/41/39 67/100/29
f 47/106/12 76/40/38 48/36/36
f 39/82/57 75/103/65 74/102/64
f 17/66/52 5/56/49 8/59/50
f 20/1/1 14/48/42 12/2/2
f 36/4/4 42/88/35 38/5/5
f 15/7/7 4/53/8 3/8/8
f 6/11/11 13/9/9 3/8/8
f 3/8/8 77/107/66 6/11/11
f 77/107/66 47/12/12 6/11/11
f 47/12/12 51/108/16 49/10/10
f 51/108/16 53/109/17 55/110/18
f 49/10/10 51/108/16 55/110/18
f 26/111/55 19/23/23 27/112/67
f 19/23/23 1/45/22 70/113/63
f 26/111/55 27/112/67 29/13/13
f 70/113/63 27/112/67 19/23/23
f 27/112/67 31/14/14 29/13/13
f 31/14/14 33/114/58 35/15/15
f 39/115/57 74/116/64 15/7/7
f 74/116/64 4/53/8 15/7/7
f 15/7/7 22/117/53 39/115/57
f 39/115/57 22/117/53 37/118/59
f 37/118/59 41/16/16 45/18/18
f 39/115/57 37/118/59 45/18/18
f 50/19/19 58/98/61 9/20/20
f 2/22/22 1/45/22 19/23/23
f 40/25/25 46/37/37 32/26/26
f 18/24/24 10/30/30 2/22/22
f 10/30/30 57/119/62 59/28/28
f 2/22/22 10/30/30 67/29/29
f 57/119/62 61/120/14 65/121/15
f 61/120/14 63/122/60 65/121/15
f 65/121/15 59/28/28 57/119/62
f 69/31/31 75/103/65 40/25/25
f 44/32/32 42/88/35 36/4/4
f 60/34/34 66/46/4 52/35/35
f 46/37/37 44/32/32 34/33/33
f 62/38/26 58/98/61 50/19/19
f 60/34/34 48/36/36 76/40/38
f 64/42/33 62/38/26 56/39/37
f 2/22/22 67/29/29 73/44/40
f 73/44/40 70/113/63 1/45/22
f 66/46/4 64/42/33 54/43/32
f 20/1/1 25/71/54 23/47/41
f 76/40/38 79/74/56 71/49/43
f 78/50/44 75/103/65 69/31/31
f 4/53/8 74/116/64 80/52/46
f 80/52/46 77/107/66 3/8/8
f 30/6/6 38/5/5 21/54/47
f 5/56/49 7/58/21 9/60/20
f 20/1/1 16/3/3 18/76/24
f 17/66/52 16/65/3 12/63/2
f 13/78/9 12/2/2 14/48/42
f 21/68/47 23/47/41 25/71/54
f 26/72/55 25/71/54 20/1/1
f 15/79/7 14/48/42 23/47/41
f 31/80/14 27/105/67 28/27/27
f 45/81/18 46/37/37 40/25/25
f 31/80/14 32/26/26 34/33/33
f 43/84/17 44/32/32 46/37/37
f 33/83/58 34/33/33 36/4/4
f 41/86/16 42/88/35 44/32/32
f 35/85/15 36/4/4 30/6/6
f 41/86/16 37/89/59 38/5/5
f 24/55/48 26/123/55 29/87/13
f 37/89/59 22/124/53 21/54/47
f 51/90/16 47/106/12 48/36/36
f 65/91/15 66/46/4 60/34/34
f 53/93/17 51/90/16 52/35/35
f 63/94/60 64/42/33 66/46/4
f 53/93/17 54/43/32 56/39/37
f 61/96/14 62/38/26 64/42/33
f 55/95/18 56/39/37 50/19/19
f 61/96/14 57/99/62 58/98/61
f 7/21/21 6/125/11 49/97/10
f 57/99/62 10/126/30 9/20/20
f 17/66/52 8/59/50 10/61/30
f 11/62/51 13/64/9 6/57/11
f 71/49/43 73/73/40 67/100/29
f 72/51/45 69/31/31 70/101/63
f 78/50/44 80/75/46 74/102/64
f 79/74/56 76/40/38 77/104/66
f 72/51/45 71/49/43 79/74/56
f 69/31/31 28/27/27 27/105/67
f 59/92/28 60/34/34 68/41/39
f 47/106/12 77/104/66 76/40/38
f 39/82/57 40/25/25 75/103/65
f 17/66/52 11/62/51 5/56/49
