# Blender v3.0.0 OBJ File: ''
# www.blender.org
mtllib seat_16.mtl
o Cadeira1.015_Cube.015
v 12.287574 0.489751 -6.705072
v 12.283528 0.449468 -6.722232
v 9.137608 0.449468 -5.980648
v 9.141653 0.489751 -5.963489
v 9.019498 -0.008597 -6.628625
v 8.986685 0.000929 -6.620890
v 9.017392 0.000580 -6.637557
v 12.099792 -0.008597 -7.354739
v 12.097687 0.000579 -7.363670
v 12.132606 0.000929 -7.362474
v 9.265388 -0.008597 -5.585515
v 9.267494 0.000580 -5.576584
v 9.232662 0.000929 -5.577412
v 9.267494 0.489752 -5.576584
v 9.232662 0.489752 -5.577412
v 12.347788 0.000579 -6.302697
v 12.345683 -0.008597 -6.311629
v 12.378583 0.000929 -6.318996
v 12.378583 0.489751 -6.318996
v 12.347788 0.489751 -6.302697
v 9.265388 1.196072 -5.585515
v 9.232662 1.186896 -5.577412
v 9.267494 1.186896 -5.576584
v 12.345683 1.196072 -6.311629
v 12.347788 1.186895 -6.302697
v 12.378583 1.186895 -6.318996
v 12.276887 0.940203 -6.750408
v 12.242179 0.945721 -6.750711
v 12.332640 1.186895 -6.513895
v 12.299619 1.196072 -6.507039
v 12.281347 1.037946 -6.731484
v 12.246551 1.041526 -6.732163
v 12.293334 1.116130 -6.680637
v 12.259003 1.122746 -6.679341
v 12.311273 1.168371 -6.604538
v 12.277637 1.177015 -6.600288
v 9.186719 1.186896 -5.772311
v 9.219325 1.196072 -5.780926
v 9.130966 0.940204 -6.008824
v 9.161884 0.945721 -6.024598
v 9.165352 1.168371 -5.862955
v 9.197344 1.177015 -5.874175
v 9.147413 1.116130 -5.939054
v 9.178708 1.122746 -5.953228
v 9.135427 1.037946 -5.989901
v 9.166257 1.041526 -6.006049
v 9.017276 0.481493 -6.491116
v 9.048823 0.489751 -6.504221
v 8.986685 0.351858 -6.620890
v 9.017392 0.352761 -6.637557
v 9.004804 0.470680 -6.544026
v 9.036796 0.479324 -6.555246
v 8.995303 0.443012 -6.584330
v 9.026598 0.449628 -6.598504
v 8.988955 0.401605 -6.611259
v 9.019785 0.405185 -6.627407
v 12.132606 0.351857 -7.362474
v 12.097687 0.352761 -7.363670
v 12.163197 0.481492 -7.232700
v 12.129118 0.489751 -7.230335
v 12.134875 0.401604 -7.352842
v 12.100079 0.405185 -7.353521
v 12.141224 0.443012 -7.325913
v 12.106893 0.449627 -7.324617
v 12.150724 0.470679 -7.285610
v 12.117089 0.479323 -7.281360
v 12.265590 0.483686 -6.798332
v 12.229597 0.489751 -6.804086
v 12.242178 0.544588 -6.750711
v 12.276604 0.537565 -6.751611
v 12.236548 0.502301 -6.774596
v 12.239299 0.514290 -6.762927
v 12.272804 0.497590 -6.767727
v 9.130865 0.536770 -6.009253
v 9.161884 0.544589 -6.024598
v 9.149302 0.489751 -6.077972
v 9.119164 0.484649 -6.058888
v 9.159005 0.514291 -6.036813
v 9.156254 0.502301 -6.048482
v 9.127273 0.499286 -6.024493
vt 0.495853 0.013301
vt 0.399965 0.493716
vt 0.399965 0.013301
vt 0.965121 0.518218
vt 0.978326 0.015705
vt 0.978326 0.518218
vt 0.442895 0.707504
vt 0.277737 0.691445
vt 0.442895 0.512634
vt 0.015507 0.652532
vt 0.015507 0.512634
vt 0.068660 0.704212
vt 0.516058 0.641009
vt 0.575438 0.730129
vt 0.523443 0.678135
vt 0.325942 0.978037
vt 0.294774 0.957211
vt 0.273948 0.926043
vt 0.738353 0.015705
vt 0.675817 0.518218
vt 0.675817 0.015705
vt 0.810037 0.726339
vt 0.793978 0.561182
vt 0.988848 0.561182
vt 0.908206 0.015705
vt 0.927172 0.518218
vt 0.908206 0.518218
vt 0.797271 0.935415
vt 0.796396 0.757508
vt 0.988848 0.988568
vt 0.836978 0.518218
vt 0.947158 0.015705
vt 0.947158 0.518218
vt 0.776722 0.518218
vt 0.769496 0.015705
vt 0.776722 0.015705
vt 0.927172 0.015705
vt 0.748731 0.518218
vt 0.748731 0.015705
vt 0.821619 0.015705
vt 0.821619 0.518218
vt 0.759667 0.518218
vt 0.759667 0.015705
vt 0.790853 0.744973
vt 0.793978 0.719311
vt 0.769496 0.518218
vt 0.632508 0.493716
vt 0.495853 0.493716
vt 0.826953 0.518218
vt 0.830311 0.015705
vt 0.830311 0.518218
vt 0.259780 0.711305
vt 0.284766 0.707504
vt 0.998909 0.015705
vt 0.998909 0.518218
vt 0.277768 0.486891
vt 0.283110 0.487954
vt 0.278771 0.491816
vt 0.012472 0.484757
vt 0.011268 0.489964
vt 0.006917 0.485651
vt 0.284949 0.189808
vt 0.286024 0.184786
vt 0.290122 0.188722
vt 0.022995 0.183286
vt 0.023891 0.188026
vt 0.018944 0.186803
vt 0.634307 0.493716
vt 0.632508 0.498833
vt 0.634307 0.013301
vt 0.632508 0.013301
vt 0.632508 0.008183
vt 0.827655 0.523571
vt 0.826953 0.015705
vt 0.828130 0.010352
vt 0.400033 0.008183
vt 0.495853 0.008183
vt 0.400033 0.498833
vt 0.495853 0.498833
vt 0.927422 0.523571
vt 0.927422 0.010352
vt 0.908073 0.010352
vt 0.946661 0.523571
vt 0.946661 0.010352
vt 0.963953 0.523571
vt 0.963953 0.010352
vt 0.976790 0.523571
vt 0.965121 0.015705
vt 0.976790 0.010352
vt 0.768329 0.010352
vt 0.768328 0.523571
vt 0.775822 0.523571
vt 0.759171 0.010352
vt 0.759171 0.523571
vt 0.748982 0.010352
vt 0.748981 0.523571
vt 0.739134 0.010352
vt 0.738353 0.518218
vt 0.739133 0.523571
vt 0.821962 0.523571
vt 0.836451 0.523571
vt 0.836391 0.010352
vt 0.836978 0.015705
vt 0.821908 0.010352
vt 0.908073 0.523571
vt 0.775822 0.010352
vt 0.245692 0.705470
vt 0.046989 0.699901
vt 0.030482 0.688871
vt 0.019452 0.672364
vt 0.516058 0.561182
vt 0.614404 0.737880
vt 0.774917 0.738372
vt 0.544270 0.709303
vt 0.266197 0.887078
vt 0.266022 0.726248
vt 0.442895 0.985422
vt 0.363068 0.985422
vt 0.848950 0.988568
vt 0.829118 0.984623
vt 0.801581 0.957086
vt 0.812611 0.973594
vt 0.997318 0.523571
vt 0.997318 0.010352
vt 0.676820 0.010352
vt 0.676820 0.523571
vn 0.3515 0.0000 0.9362
vn 0.0971 -0.3714 0.9234
vn 0.3255 -0.3714 0.8695
vn 0.0422 0.9157 -0.3996
vn -0.1508 0.9865 -0.0643
vn 0.1062 0.9865 -0.1249
vn -0.6300 -0.0000 0.7766
vn -0.9733 0.0000 0.2294
vn -0.5652 -0.5005 0.6558
vn -0.9000 0.0617 -0.4316
vn -0.8003 -0.5008 -0.3298
vn -0.7649 0.6325 0.1218
vn 0.7420 0.6266 -0.2383
vn 0.6030 0.2483 -0.7581
vn 0.6836 0.5995 -0.4163
vn -0.7975 0.5995 -0.0672
vn -0.8458 0.4589 -0.2721
vn -0.8781 0.2483 -0.4090
vn -0.3548 0.0972 -0.9299
vn -0.0925 -0.3709 -0.9241
vn -0.3299 -0.3708 -0.8681
vn 0.9733 -0.0000 -0.2294
vn 0.9105 -0.0000 0.4135
vn 0.7986 -0.5005 0.3342
vn -0.3494 0.1012 -0.9315
vn -0.0809 0.3793 -0.9217
vn -0.1035 0.1012 -0.9895
vn 0.7388 0.6325 -0.2326
vn 0.7791 0.5375 -0.3226
vn 0.5687 -0.5008 -0.6525
vn -0.1064 0.1845 -0.9771
vn -0.2900 0.7008 -0.6517
vn -0.0316 0.7009 -0.7126
vn 0.0997 0.9868 -0.1274
vn -0.2162 0.9157 -0.3387
vn -0.1461 0.9868 -0.0695
vn -0.3393 0.3793 -0.8608
vn -0.1415 0.9787 -0.1490
vn 0.0777 0.9774 -0.1965
vn -0.0316 0.7008 -0.7126
vn 0.7772 0.3371 -0.5314
vn 0.0988 0.3705 0.9236
vn 0.1037 0.0000 0.9946
vn 0.0494 0.8260 -0.5615
vn -0.3584 0.5331 -0.7664
vn -0.0317 0.5302 -0.8473
vn -0.9338 0.3343 -0.1273
vn -0.0309 0.9218 0.3865
vn 0.2002 0.9218 0.3320
vn -0.2061 -0.9208 -0.3310
vn 0.0366 -0.9208 -0.3882
vn -0.0352 -0.9214 0.3870
vn 0.2043 -0.9214 0.3305
vn -0.5630 0.5041 0.6549
vn 0.3241 0.3705 0.8704
vn 0.7962 0.5041 0.3345
vn -0.2809 0.8319 -0.4786
vn -0.8970 0.0569 -0.4384
vn 0.6352 0.4589 -0.6212
vn -0.7704 0.6266 0.1182
vn -0.7975 0.5996 -0.0672
vn 0.6835 0.5996 -0.4163
vn 0.6353 0.4588 -0.6212
vn 0.6030 0.2484 -0.7581
vn -0.0979 0.0972 -0.9904
vn 0.6124 0.0617 -0.7881
vn 0.6772 0.1212 -0.7258
vn -0.9347 0.1198 -0.3346
vn -0.3531 0.1826 -0.9176
vn -0.8285 0.5569 0.0587
vn 0.6068 0.0569 -0.7929
usemtl Material_Sofa
s 1
f 20/1/1 12/2/2 16/3/3
f 36/4/4 38/5/5 30/6/6
f 15/7/7 3/8/8 13/9/9
f 49/10/10 6/11/11 47/12/12
f 29/13/13 31/14/14 35/15/15
f 41/16/16 43/17/17 45/18/18
f 50/19/19 9/20/20 7/21/21
f 2/22/22 19/23/23 18/24/24
f 40/25/25 32/26/26 28/27/27
f 59/28/28 67/29/29 10/30/30
f 69/31/31 40/25/25 28/27/27
f 44/32/32 36/4/4 34/33/33
f 60/34/34 52/35/35 48/36/36
f 46/37/37 34/33/33 32/26/26
f 62/38/26 50/19/19 56/39/37
f 60/34/34 76/40/38 68/41/39
f 64/42/40 56/39/37 54/43/32
f 73/44/41 1/45/22 2/22/22
f 66/46/4 54/43/32 52/35/35
f 20/1/1 23/47/42 14/48/43
f 76/40/38 71/49/44 68/41/39
f 78/50/45 69/31/31 72/51/46
f 80/52/47 3/8/8 4/53/8
f 30/6/6 21/54/48 24/55/49
f 5/56/50 6/57/11 7/58/21
f 8/59/51 9/60/20 10/61/30
f 11/62/52 12/63/2 13/64/9
f 16/65/3 17/66/53 18/67/24
f 21/68/48 22/69/54 23/47/42
f 24/70/49 25/71/55 26/72/56
f 71/49/44 72/51/46 73/73/41
f 78/50/45 79/74/57 80/75/47
f 5/56/50 9/60/20 8/59/51
f 20/1/1 18/76/24 19/77/23
f 17/66/53 12/63/2 11/62/52
f 13/78/9 14/48/43 15/79/7
f 21/68/48 25/71/55 24/70/49
f 26/72/56 20/1/1 19/77/23
f 15/79/7 23/47/42 22/69/54
f 31/80/14 28/27/27 32/26/26
f 45/81/18 40/25/25 39/82/58
f 31/80/14 34/33/33 33/83/59
f 43/84/17 46/37/37 45/81/18
f 33/83/59 36/4/4 35/85/15
f 41/86/16 44/32/32 43/84/17
f 35/85/15 30/6/6 29/87/13
f 41/86/16 38/5/5 42/88/35
f 24/55/49 29/87/13 30/6/6
f 37/89/60 21/54/48 38/5/5
f 51/90/61 48/36/36 52/35/35
f 65/91/62 60/34/34 59/92/28
f 53/93/17 52/35/35 54/43/32
f 63/94/63 66/46/4 65/91/62
f 53/93/17 56/39/37 55/95/18
f 61/96/64 64/42/40 63/94/63
f 55/95/18 50/19/19 49/97/10
f 61/96/64 58/98/65 62/38/26
f 7/21/21 49/97/10 50/19/19
f 57/99/66 9/20/20 58/98/65
f 17/66/53 10/61/30 18/67/24
f 11/62/52 6/57/11 5/56/50
f 71/49/44 67/100/29 68/41/39
f 72/51/46 70/101/67 73/73/41
f 78/50/45 74/102/68 75/103/69
f 79/74/57 77/104/70 80/75/47
f 72/51/46 79/74/57 78/50/45
f 69/31/31 27/105/71 70/101/67
f 59/92/28 68/41/39 67/100/29
f 47/106/12 76/40/38 48/36/36
f 39/82/58 75/103/69 74/102/68
f 17/66/53 5/56/50 8/59/51
f 20/1/1 14/48/43 12/2/2
f 36/4/4 42/88/35 38/5/5
f 15/7/7 4/53/8 3/8/8
f 6/11/11 13/9/9 3/8/8
f 3/8/8 77/107/70 6/11/11
f 77/107/70 47/12/12 6/11/11
f 47/12/12 51/108/61 49/10/10
f 51/108/61 53/109/17 55/110/18
f 49/10/10 51/108/61 55/110/18
f 26/111/56 19/23/23 27/112/71
f 19/23/23 1/45/22 70/113/67
f 26/111/56 27/112/71 29/13/13
f 70/113/67 27/112/71 19/23/23
f 27/112/71 31/14/14 29/13/13
f 31/14/14 33/114/59 35/15/15
f 39/115/58 74/116/68 15/7/7
f 74/116/68 4/53/8 15/7/7
f 15/7/7 22/117/54 39/115/58
f 39/115/58 22/117/54 37/118/60
f 37/118/60 41/16/16 45/18/18
f 39/115/58 37/118/60 45/18/18
f 50/19/19 58/98/65 9/20/20
f 2/22/22 1/45/22 19/23/23
f 40/25/25 46/37/37 32/26/26
f 18/24/24 10/30/30 2/22/22
f 10/30/30 57/119/66 59/28/28
f 2/22/22 10/30/30 67/29/29
f 57/119/66 61/120/64 65/121/62
f 61/120/64 63/122/63 65/121/62
f 65/121/62 59/28/28 57/119/66
f 69/31/31 75/103/69 40/25/25
f 44/32/32 42/88/35 36/4/4
f 60/34/34 66/46/4 52/35/35
f 46/37/37 44/32/32 34/33/33
f 62/38/26 58/98/65 50/19/19
f 60/34/34 48/36/36 76/40/38
f 64/42/40 62/38/26 56/39/37
f 2/22/22 67/29/29 73/44/41
f 73/44/41 70/113/67 1/45/22
f 66/46/4 64/42/40 54/43/32
f 20/1/1 25/71/55 23/47/42
f 76/40/38 79/74/57 71/49/44
f 78/50/45 75/103/69 69/31/31
f 4/53/8 74/116/68 80/52/47
f 80/52/47 77/107/70 3/8/8
f 30/6/6 38/5/5 21/54/48
f 5/56/50 7/58/21 9/60/20
f 20/1/1 16/3/3 18/76/24
f 17/66/53 16/65/3 12/63/2
f 13/78/9 12/2/2 14/48/43
f 21/68/48 23/47/42 25/71/55
f 26/72/56 25/71/55 20/1/1
f 15/79/7 14/48/43 23/47/42
f 31/80/14 27/105/71 28/27/27
f 45/81/18 46/37/37 40/25/25
f 31/80/14 32/26/26 34/33/33
f 43/84/17 44/32/32 46/37/37
f 33/83/59 34/33/33 36/4/4
f 41/86/16 42/88/35 44/32/32
f 35/85/15 36/4/4 30/6/6
f 41/86/16 37/89/60 38/5/5
f 24/55/49 26/123/56 29/87/13
f 37/89/60 22/124/54 21/54/48
f 51/90/61 47/106/12 48/36/36
f 65/91/62 66/46/4 60/34/34
f 53/93/17 51/90/61 52/35/35
f 63/94/63 64/42/40 66/46/4
f 53/93/17 54/43/32 56/39/37
f 61/96/64 62/38/26 64/42/40
f 55/95/18 56/39/37 50/19/19
f 61/96/64 57/99/66 58/98/65
f 7/21/21 6/125/11 49/97/10
f 57/99/66 10/126/30 9/20/20
f 17/66/53 8/59/51 10/61/30
f 11/62/52 13/64/9 6/57/11
f 71/49/44 73/73/41 67/100/29
f 72/51/46 69/31/31 70/101/67
f 78/50/45 80/75/47 74/102/68
f 79/74/57 76/40/38 77/104/70
f 72/51/46 71/49/44 79/74/57
f 69/31/31 28/27/27 27/105/71
f 59/92/28 60/34/34 68/41/39
f 47/106/12 77/104/70 76/40/38
f 39/82/58 40/25/25 75/103/69
f 17/66/53 11/62/52 5/56/50
