# Blender v3.0.0 OBJ File: ''
# www.blender.org
mtllib seat_12.mtl
o Cadeira1.011_Cube.011
v -13.385072 0.489172 -8.696418
v -13.402706 0.448889 -8.696394
v -13.398395 0.448889 -5.464760
v -13.380759 0.489172 -5.464784
v -14.056401 -0.009176 -5.497590
v -14.056356 0.000350 -5.463882
v -14.065580 0.000001 -5.497577
v -14.060623 -0.009176 -8.661809
v -14.069802 0.000001 -8.661797
v -14.060668 0.000350 -8.695517
v -12.984421 -0.009176 -5.499020
v -12.975243 0.000001 -5.499032
v -12.983998 0.000350 -5.465313
v -12.975243 0.489172 -5.499032
v -12.983998 0.489172 -5.465313
v -12.979465 0.000001 -8.663252
v -12.988644 -0.009176 -8.663239
v -12.988310 0.000350 -8.696947
v -12.988310 0.489172 -8.696947
v -12.979465 0.489172 -8.663252
v -12.984421 1.195493 -5.499020
v -12.983998 1.186317 -5.465313
v -12.975243 1.186317 -5.499032
v -12.988644 1.195493 -8.663239
v -12.979465 1.186317 -8.663252
v -12.988310 1.186317 -8.696947
v -13.431663 0.939625 -8.696356
v -13.439878 0.945142 -8.662637
v -13.188603 1.186317 -8.696680
v -13.189462 1.195493 -8.662971
v -13.412215 1.037367 -8.696382
v -13.420816 1.040947 -8.662663
v -13.359961 1.115551 -8.696451
v -13.366533 1.122167 -8.662735
v -13.281755 1.167792 -8.696555
v -13.285293 1.176436 -8.662844
v -13.184291 1.186317 -5.465046
v -13.185240 1.195493 -5.498752
v -13.427350 0.939625 -5.464721
v -13.435657 0.945142 -5.498418
v -13.277443 1.167792 -5.464921
v -13.281070 1.176436 -5.498624
v -13.355648 1.115551 -5.464817
v -13.362310 1.122167 -5.498516
v -13.407903 1.037367 -5.464747
v -13.416595 1.040947 -5.498443
v -13.922991 0.480914 -5.464060
v -13.928554 0.489172 -5.497760
v -14.056356 0.351279 -5.463882
v -14.065580 0.352182 -5.497577
v -13.977365 0.470101 -5.463987
v -13.980991 0.478745 -5.497690
v -14.018784 0.442433 -5.463932
v -14.025446 0.449049 -5.497631
v -14.046458 0.401026 -5.463895
v -14.055150 0.404606 -5.497591
v -14.060668 0.351278 -8.695517
v -14.069802 0.352182 -8.661797
v -13.927302 0.480914 -8.695694
v -13.932776 0.489172 -8.661980
v -14.050771 0.401025 -8.695529
v -14.059372 0.404606 -8.661810
v -14.023096 0.442433 -8.695566
v -14.029668 0.449049 -8.661850
v -13.981677 0.470101 -8.695621
v -13.985214 0.478745 -8.661909
v -13.480913 0.483107 -8.696290
v -13.494730 0.489172 -8.662564
v -13.439878 0.544010 -8.662637
v -13.432899 0.536986 -8.696354
v -13.464424 0.501722 -8.662604
v -13.452432 0.513712 -8.662621
v -13.449461 0.497012 -8.696332
v -13.427791 0.536191 -5.464721
v -13.435657 0.544010 -5.498418
v -13.490508 0.489172 -5.498344
v -13.478800 0.484070 -5.464653
v -13.448209 0.513712 -5.498401
v -13.460202 0.501722 -5.498385
v -13.443453 0.498707 -5.464700
vt 0.495853 0.013301
vt 0.399965 0.493716
vt 0.399965 0.013301
vt 0.965121 0.518218
vt 0.978326 0.015705
vt 0.978326 0.518218
vt 0.442895 0.707504
vt 0.277737 0.691445
vt 0.442895 0.512634
vt 0.015507 0.652532
vt 0.015507 0.512634
vt 0.068660 0.704212
vt 0.516058 0.641009
vt 0.575438 0.730129
vt 0.523443 0.678135
vt 0.325942 0.978037
vt 0.294774 0.957211
vt 0.273948 0.926043
vt 0.738353 0.015705
vt 0.675817 0.518218
vt 0.675817 0.015705
vt 0.810037 0.726339
vt 0.793978 0.561182
vt 0.988848 0.561182
vt 0.908206 0.015705
vt 0.927172 0.518218
vt 0.908206 0.518218
vt 0.797271 0.935415
vt 0.796396 0.757508
vt 0.988848 0.988568
vt 0.836978 0.518218
vt 0.947158 0.015705
vt 0.947158 0.518218
vt 0.776722 0.518218
vt 0.769496 0.015705
vt 0.776722 0.015705
vt 0.927172 0.015705
vt 0.748731 0.518218
vt 0.748731 0.015705
vt 0.821619 0.015705
vt 0.821619 0.518218
vt 0.759667 0.518218
vt 0.759667 0.015705
vt 0.790853 0.744973
vt 0.793978 0.719311
vt 0.769496 0.518218
vt 0.632508 0.493716
vt 0.495853 0.493716
vt 0.826953 0.518218
vt 0.830311 0.015705
vt 0.830311 0.518218
vt 0.259780 0.711305
vt 0.284766 0.707504
vt 0.998909 0.015705
vt 0.998909 0.518218
vt 0.277768 0.486891
vt 0.283110 0.487954
vt 0.278771 0.491816
vt 0.012472 0.484757
vt 0.011268 0.489964
vt 0.006917 0.485651
vt 0.284949 0.189808
vt 0.286024 0.184786
vt 0.290122 0.188722
vt 0.022995 0.183286
vt 0.023891 0.188026
vt 0.018944 0.186803
vt 0.634307 0.493716
vt 0.632508 0.498833
vt 0.634307 0.013301
vt 0.632508 0.013301
vt 0.632508 0.008183
vt 0.827655 0.523571
vt 0.826953 0.015705
vt 0.828130 0.010352
vt 0.400033 0.008183
vt 0.495853 0.008183
vt 0.400033 0.498833
vt 0.495853 0.498833
vt 0.927422 0.523571
vt 0.927422 0.010352
vt 0.908073 0.010352
vt 0.946661 0.523571
vt 0.963953 0.523571
vt 0.946661 0.010352
vt 0.965121 0.015705
vt 0.976790 0.523571
vt 0.963953 0.010352
vt 0.976790 0.010352
vt 0.768329 0.010352
vt 0.768328 0.523571
vt 0.775822 0.523571
vt 0.759171 0.010352
vt 0.759171 0.523571
vt 0.748982 0.010352
vt 0.739134 0.010352
vt 0.748981 0.523571
vt 0.738353 0.518218
vt 0.739133 0.523571
vt 0.821962 0.523571
vt 0.836451 0.523571
vt 0.836391 0.010352
vt 0.836978 0.015705
vt 0.821908 0.010352
vt 0.908073 0.523571
vt 0.775822 0.010352
vt 0.245692 0.705470
vt 0.046989 0.699901
vt 0.030482 0.688871
vt 0.019452 0.672364
vt 0.516058 0.561182
vt 0.614404 0.737880
vt 0.774917 0.738372
vt 0.544270 0.709303
vt 0.266197 0.887078
vt 0.266022 0.726248
vt 0.442895 0.985422
vt 0.363068 0.985422
vt 0.848950 0.988568
vt 0.829118 0.984623
vt 0.801581 0.957086
vt 0.812611 0.973594
vt 0.997318 0.523571
vt 0.997318 0.010352
vt 0.676820 0.010352
vt 0.676820 0.523571
vn 0.9917 0.0000 -0.1287
vn 0.9212 -0.3714 0.1161
vn 0.9208 -0.3715 -0.1186
vn -0.3794 0.9157 -0.1323
vn -0.0970 0.9865 0.1322
vn -0.0973 0.9865 -0.1319
vn 0.6124 0.0000 0.7906
vn 0.0013 0.0000 1.0000
vn 0.5095 -0.5005 0.7000
vn -0.6255 0.0617 0.7778
vn -0.5037 -0.5007 0.7040
vn -0.0559 0.6325 0.7726
vn -0.0627 0.6265 -0.7769
vn -0.6005 0.2484 -0.7601
vn -0.2493 0.5996 -0.7605
vn -0.2472 0.5996 0.7612
vn -0.4578 0.4589 0.7615
vn -0.5985 0.2484 0.7617
vn -0.9863 0.0972 0.1334
vn -0.9208 -0.3709 -0.1208
vn -0.9205 -0.3709 0.1232
vn -0.0013 -0.0000 -1.0000
vn 0.6102 -0.0000 -0.7922
vn 0.5076 -0.5005 -0.7013
vn -0.9866 0.1012 0.1277
vn -0.9158 0.3794 -0.1316
vn -0.9870 0.1012 -0.1250
vn -0.0579 0.6325 -0.7724
vn -0.1363 0.5375 -0.8322
vn -0.5055 -0.5008 -0.7026
vn -0.9755 0.1845 -0.1194
vn -0.7006 0.7009 0.1337
vn -0.7009 0.7009 -0.1319
vn -0.1013 0.9868 -0.1262
vn -0.3790 0.9157 0.1333
vn -0.1010 0.9868 0.1265
vn -0.9155 0.3794 0.1340
vn -0.1773 0.9787 0.1038
vn -0.1735 0.9774 -0.1205
vn -0.3400 0.3372 -0.8779
vn 0.9217 0.3705 0.1146
vn 0.9920 0.0000 0.1260
vn -0.5354 0.8260 -0.1762
vn -0.8279 0.5332 0.1742
vn -0.8321 0.5303 -0.1625
vn -0.3369 0.3343 0.8802
vn 0.3692 0.9218 0.1182
vn 0.3688 0.9218 -0.1192
vn -0.3693 -0.9208 0.1252
vn -0.3696 -0.9209 -0.1242
vn 0.3687 -0.9214 0.1225
vn 0.3683 -0.9214 -0.1235
vn 0.5092 0.5041 0.6976
vn 0.9214 0.3706 -0.1170
vn 0.5073 0.5041 -0.6989
vn -0.5299 0.8320 0.1643
vn -0.6314 0.0569 0.7733
vn -0.4598 0.4589 -0.7602
vn -0.0607 0.6265 0.7770
vn -0.2473 0.5996 0.7612
vn -0.2493 0.5995 -0.7605
vn -0.6005 0.2484 -0.7600
vn -0.9866 0.0972 -0.1308
vn -0.6276 0.0617 -0.7761
vn -0.5521 0.1212 -0.8249
vn -0.5390 0.1198 0.8337
vn -0.9739 0.1827 0.1345
vn -0.1318 0.5569 0.8200
vn -0.6335 0.0569 -0.7717
usemtl Material_Sofa
s 1
f 20/1/1 12/2/2 16/3/3
f 36/4/4 38/5/5 30/6/6
f 15/7/7 3/8/8 13/9/9
f 49/10/10 6/11/11 47/12/12
f 29/13/13 31/14/14 35/15/15
f 41/16/16 43/17/17 45/18/18
f 50/19/19 9/20/20 7/21/21
f 2/22/22 19/23/23 18/24/24
f 40/25/25 32/26/26 28/27/27
f 59/28/28 67/29/29 10/30/30
f 69/31/31 40/25/25 28/27/27
f 44/32/32 36/4/4 34/33/33
f 60/34/34 52/35/35 48/36/36
f 46/37/37 34/33/33 32/26/26
f 62/38/26 50/19/19 56/39/37
f 60/34/34 76/40/38 68/41/39
f 64/42/33 56/39/37 54/43/32
f 73/44/40 1/45/22 2/22/22
f 66/46/4 54/43/32 52/35/35
f 20/1/1 23/47/41 14/48/42
f 76/40/38 71/49/43 68/41/39
f 78/50/44 69/31/31 72/51/45
f 80/52/46 3/8/8 4/53/8
f 30/6/6 21/54/47 24/55/48
f 5/56/49 6/57/11 7/58/21
f 8/59/50 9/60/20 10/61/30
f 11/62/51 12/63/2 13/64/9
f 16/65/3 17/66/52 18/67/24
f 21/68/47 22/69/53 23/47/41
f 24/70/48 25/71/54 26/72/55
f 71/49/43 72/51/45 73/73/40
f 78/50/44 79/74/56 80/75/46
f 5/56/49 9/60/20 8/59/50
f 20/1/1 18/76/24 19/77/23
f 17/66/52 12/63/2 11/62/51
f 13/78/9 14/48/42 15/79/7
f 21/68/47 25/71/54 24/70/48
f 26/72/55 20/1/1 19/77/23
f 15/79/7 23/47/41 22/69/53
f 31/80/14 28/27/27 32/26/26
f 45/81/18 40/25/25 39/82/57
f 31/80/14 34/33/33 33/83/58
f 45/81/18 44/32/32 46/37/37
f 33/83/58 36/4/4 35/84/15
f 43/85/17 42/86/35 44/32/32
f 35/84/15 30/6/6 29/87/13
f 41/88/16 38/5/5 42/86/35
f 24/55/48 29/87/13 30/6/6
f 37/89/59 21/54/47 38/5/5
f 51/90/60 48/36/36 52/35/35
f 65/91/61 60/34/34 59/92/28
f 53/93/17 52/35/35 54/43/32
f 63/94/58 66/46/4 65/91/61
f 53/93/17 56/39/37 55/95/18
f 63/94/58 62/38/26 64/42/33
f 55/95/18 50/19/19 49/96/10
f 61/97/62 58/98/63 62/38/26
f 7/21/21 49/96/10 50/19/19
f 57/99/64 9/20/20 58/98/63
f 17/66/52 10/61/30 18/67/24
f 11/62/51 6/57/11 5/56/49
f 71/49/43 67/100/29 68/41/39
f 72/51/45 70/101/65 73/73/40
f 78/50/44 74/102/66 75/103/67
f 79/74/56 77/104/68 80/75/46
f 72/51/45 79/74/56 78/50/44
f 69/31/31 27/105/69 70/101/65
f 59/92/28 68/41/39 67/100/29
f 47/106/12 76/40/38 48/36/36
f 39/82/57 75/103/67 74/102/66
f 17/66/52 5/56/49 8/59/50
f 20/1/1 14/48/42 12/2/2
f 36/4/4 42/86/35 38/5/5
f 15/7/7 4/53/8 3/8/8
f 6/11/11 13/9/9 3/8/8
f 3/8/8 77/107/68 6/11/11
f 77/107/68 47/12/12 6/11/11
f 47/12/12 51/108/60 49/10/10
f 51/108/60 53/109/17 55/110/18
f 49/10/10 51/108/60 55/110/18
f 26/111/55 19/23/23 27/112/69
f 19/23/23 1/45/22 70/113/65
f 26/111/55 27/112/69 29/13/13
f 70/113/65 27/112/69 19/23/23
f 27/112/69 31/14/14 29/13/13
f 31/14/14 33/114/58 35/15/15
f 39/115/57 74/116/66 15/7/7
f 74/116/66 4/53/8 15/7/7
f 15/7/7 22/117/53 39/115/57
f 39/115/57 22/117/53 37/118/59
f 37/118/59 41/16/16 45/18/18
f 39/115/57 37/118/59 45/18/18
f 50/19/19 58/98/63 9/20/20
f 2/22/22 1/45/22 19/23/23
f 40/25/25 46/37/37 32/26/26
f 18/24/24 10/30/30 2/22/22
f 10/30/30 57/119/64 59/28/28
f 2/22/22 10/30/30 67/29/29
f 57/119/64 61/120/62 65/121/61
f 61/120/62 63/122/58 65/121/61
f 65/121/61 59/28/28 57/119/64
f 69/31/31 75/103/67 40/25/25
f 44/32/32 42/86/35 36/4/4
f 60/34/34 66/46/4 52/35/35
f 46/37/37 44/32/32 34/33/33
f 62/38/26 58/98/63 50/19/19
f 60/34/34 48/36/36 76/40/38
f 64/42/33 62/38/26 56/39/37
f 2/22/22 67/29/29 73/44/40
f 73/44/40 70/113/65 1/45/22
f 66/46/4 64/42/33 54/43/32
f 20/1/1 25/71/54 23/47/41
f 76/40/38 79/74/56 71/49/43
f 78/50/44 75/103/67 69/31/31
f 4/53/8 74/116/66 80/52/46
f 80/52/46 77/107/68 3/8/8
f 30/6/6 38/5/5 21/54/47
f 5/56/49 7/58/21 9/60/20
f 20/1/1 16/3/3 18/76/24
f 17/66/52 16/65/3 12/63/2
f 13/78/9 12/2/2 14/48/42
f 21/68/47 23/47/41 25/71/54
f 26/72/55 25/71/54 20/1/1
f 15/79/7 14/48/42 23/47/41
f 31/80/14 27/105/69 28/27/27
f 45/81/18 46/37/37 40/25/25
f 31/80/14 32/26/26 34/33/33
f 45/81/18 43/85/17 44/32/32
f 33/83/58 34/33/33 36/4/4
f 43/85/17 41/88/16 42/86/35
f 35/84/15 36/4/4 30/6/6
f 41/88/16 37/89/59 38/5/5
f 24/55/48 26/123/55 29/87/13
f 37/89/59 22/124/53 21/54/47
f 51/90/60 47/106/12 48/36/36
f 65/91/61 66/46/4 60/34/34
f 53/93/17 51/90/60 52/35/35
f 63/94/58 64/42/33 66/46/4
f 53/93/17 54/43/32 56/39/37
f 63/94/58 61/97/62 62/38/26
f 55/95/18 56/39/37 50/19/19
f 61/97/62 57/99/64 58/98/63
f 7/21/21 6/125/11 49/96/10
f 57/99/64 10/126/30 9/20/20
f 17/66/52 8/59/50 10/61/30
f 11/62/51 13/64/9 6/57/11
f 71/49/43 73/73/40 67/100/29
f 72/51/45 69/31/31 70/101/65
f 78/50/44 80/75/46 74/102/66
f 79/74/56 76/40/38 77/104/68
f 72/51/45 71/49/43 79/74/56
f 69/31/31 28/27/27 27/105/69
f 59/92/28 60/34/34 68/41/39
f 47/106/12 77/104/68 76/40/38
f 39/82/57 40/25/25 75/103/67
f 17/66/52 11/62/51 5/56/49
