# Blender v3.0.0 OBJ File: ''
# www.blender.org
mtllib seat_20.mtl
o Cadeira1.019_Cube.020
v -8.091105 0.495801 6.019991
v -8.108727 0.455518 6.020523
v -8.011261 0.455518 9.251199
v -7.993639 0.495802 9.250667
v -8.669769 -0.002546 9.237337
v -8.668753 0.006979 9.271034
v -8.678942 0.006630 9.237614
v -8.765202 -0.002547 6.074057
v -8.774374 0.006630 6.074333
v -8.766218 0.006979 6.040359
v -7.598557 -0.002546 9.205020
v -7.589384 0.006630 9.204743
v -7.597162 0.006979 9.238706
v -7.589384 0.495802 9.204743
v -7.597162 0.495802 9.238706
v -7.684817 0.006630 6.041462
v -7.693989 -0.002547 6.041739
v -7.694628 0.006979 6.008030
v -7.694628 0.495801 6.008030
v -7.684817 0.495801 6.041462
v -7.598557 1.202123 9.205020
v -7.597162 1.192946 9.238706
v -7.589384 1.192946 9.204742
v -7.693989 1.202122 6.041739
v -7.684817 1.192946 6.041462
v -7.694628 1.192946 6.008030
v -8.137663 0.946254 6.021396
v -8.144901 0.951771 6.055343
v -7.894777 1.192946 6.014069
v -7.894664 1.202122 6.047793
v -8.118230 1.043996 6.020810
v -8.125854 1.047576 6.054768
v -8.066012 1.122180 6.019235
v -8.071609 1.128796 6.053131
v -7.987864 1.174421 6.016877
v -7.990426 1.183065 6.050682
v -7.797311 1.192946 9.244743
v -7.799231 1.202123 9.211074
v -8.040196 0.946254 9.252071
v -8.049468 0.951771 9.218623
v -7.890397 1.174422 9.247552
v -7.894993 1.183066 9.213963
v -7.968546 1.122180 9.249909
v -7.976176 1.128796 9.216412
v -8.020763 1.043996 9.251485
v -8.030420 1.047577 9.218048
v -8.535482 0.487543 9.267014
v -8.542013 0.495802 9.233482
v -8.668753 0.357908 9.271034
v -8.678942 0.358811 9.237614
v -8.589818 0.476730 9.268653
v -8.594414 0.485374 9.235064
v -8.631207 0.449062 9.269901
v -8.638836 0.455678 9.236403
v -8.658861 0.407655 9.270736
v -8.668518 0.411235 9.237299
v -8.766218 0.357907 6.040359
v -8.774374 0.358811 6.074333
v -8.632948 0.487542 6.036338
v -8.637446 0.495801 6.070202
v -8.756328 0.407654 6.040061
v -8.763951 0.411235 6.074018
v -8.728673 0.449062 6.039226
v -8.734269 0.455678 6.073123
v -8.687284 0.476729 6.037978
v -8.689846 0.485373 6.071783
v -8.186878 0.489736 6.022881
v -8.199714 0.495801 6.056996
v -8.144901 0.550639 6.055343
v -8.138898 0.543615 6.021433
v -8.169430 0.508351 6.056083
v -8.157446 0.520341 6.055721
v -8.155449 0.503640 6.021933
v -8.040637 0.542820 9.252085
v -8.049468 0.550639 9.218623
v -8.104280 0.495802 9.220277
v -8.091610 0.490699 9.253623
v -8.062013 0.520341 9.219002
v -8.073997 0.508352 9.219363
v -8.056288 0.505337 9.252557
vt 0.495853 0.013301
vt 0.399965 0.493716
vt 0.399965 0.013301
vt 0.965121 0.518218
vt 0.978326 0.015705
vt 0.978326 0.518218
vt 0.442895 0.707504
vt 0.277737 0.691445
vt 0.442895 0.512634
vt 0.015507 0.652532
vt 0.015507 0.512634
vt 0.068660 0.704212
vt 0.516058 0.641009
vt 0.575438 0.730129
vt 0.523443 0.678135
vt 0.325942 0.978037
vt 0.294774 0.957211
vt 0.273948 0.926043
vt 0.738353 0.015705
vt 0.675817 0.518218
vt 0.675817 0.015705
vt 0.810037 0.726339
vt 0.793978 0.561182
vt 0.988848 0.561182
vt 0.908206 0.015705
vt 0.927172 0.518218
vt 0.908206 0.518218
vt 0.797271 0.935415
vt 0.796396 0.757508
vt 0.988848 0.988568
vt 0.836978 0.518218
vt 0.947158 0.015705
vt 0.947158 0.518218
vt 0.776722 0.518218
vt 0.769496 0.015705
vt 0.776722 0.015705
vt 0.927172 0.015705
vt 0.748731 0.518218
vt 0.748731 0.015705
vt 0.821619 0.015705
vt 0.821619 0.518218
vt 0.759667 0.518218
vt 0.759667 0.015705
vt 0.790853 0.744973
vt 0.793978 0.719311
vt 0.769496 0.518218
vt 0.632508 0.493716
vt 0.495853 0.493716
vt 0.826953 0.518218
vt 0.830311 0.015705
vt 0.830311 0.518218
vt 0.259780 0.711305
vt 0.284766 0.707504
vt 0.998909 0.015705
vt 0.998909 0.518218
vt 0.277768 0.486891
vt 0.283110 0.487954
vt 0.278771 0.491816
vt 0.012472 0.484757
vt 0.011268 0.489964
vt 0.006917 0.485651
vt 0.284949 0.189808
vt 0.286024 0.184786
vt 0.290122 0.188722
vt 0.022995 0.183286
vt 0.023891 0.188026
vt 0.018944 0.186803
vt 0.634307 0.493716
vt 0.632508 0.498833
vt 0.634307 0.013301
vt 0.632508 0.013301
vt 0.632508 0.008183
vt 0.827655 0.523571
vt 0.826953 0.015705
vt 0.828130 0.010352
vt 0.400033 0.008183
vt 0.495853 0.008183
vt 0.400033 0.498833
vt 0.495853 0.498833
vt 0.927422 0.523571
vt 0.927422 0.010352
vt 0.908073 0.010352
vt 0.946661 0.523571
vt 0.963953 0.523571
vt 0.946661 0.010352
vt 0.965121 0.015705
vt 0.976790 0.523571
vt 0.963953 0.010352
vt 0.976790 0.010352
vt 0.768329 0.010352
vt 0.768328 0.523571
vt 0.775822 0.523571
vt 0.759171 0.010352
vt 0.759171 0.523571
vt 0.748982 0.010352
vt 0.739134 0.010352
vt 0.748981 0.523571
vt 0.738353 0.518218
vt 0.739133 0.523571
vt 0.821962 0.523571
vt 0.836451 0.523571
vt 0.836391 0.010352
vt 0.836978 0.015705
vt 0.821908 0.010352
vt 0.908073 0.523571
vt 0.775822 0.010352
vt 0.245692 0.705470
vt 0.046989 0.699901
vt 0.030482 0.688871
vt 0.019452 0.672364
vt 0.516058 0.561182
vt 0.614404 0.737880
vt 0.774917 0.738372
vt 0.544270 0.709303
vt 0.266197 0.887078
vt 0.266022 0.726248
vt 0.442895 0.985422
vt 0.363068 0.985422
vt 0.848950 0.988568
vt 0.829118 0.984623
vt 0.801581 0.957086
vt 0.812611 0.973594
vt 0.997318 0.523571
vt 0.997318 0.010352
vt 0.676820 0.010352
vt 0.676820 0.523571
vn 0.9876 -0.0000 -0.1571
vn 0.9242 -0.3714 0.0895
vn 0.9171 -0.3714 -0.1450
vn -0.3831 0.9157 -0.1213
vn -0.0931 0.9865 0.1349
vn -0.1011 0.9865 -0.1290
vn 0.6349 0.0000 0.7726
vn 0.0302 0.0000 0.9995
vn 0.5295 -0.5005 0.6850
vn -0.6028 0.0617 0.7955
vn -0.4832 -0.5008 0.7182
vn -0.0336 0.6325 0.7738
vn -0.0851 0.6266 -0.7747
vn -0.6222 0.2483 -0.7424
vn -0.2712 0.5996 -0.7530
vn -0.2253 0.5995 0.7680
vn -0.4357 0.4589 0.7743
vn -0.5763 0.2483 0.7786
vn -0.9820 0.0972 0.1617
vn -0.9239 -0.3708 -0.0941
vn -0.9165 -0.3709 0.1497
vn -0.0302 -0.0000 -0.9995
vn 0.5872 -0.0000 -0.8094
vn 0.4872 -0.5005 -0.7156
vn -0.9826 0.1012 0.1560
vn -0.9193 0.3793 -0.1051
vn -0.9902 0.1012 -0.0965
vn -0.0802 0.6325 -0.7704
vn -0.1603 0.5375 -0.8279
vn -0.5256 -0.5008 -0.6877
vn -0.9786 0.1845 -0.0912
vn -0.6965 0.7008 0.1538
vn -0.7045 0.7009 -0.1116
vn -0.1049 0.9868 -0.1232
vn -0.3751 0.9157 0.1441
vn -0.0973 0.9868 0.1293
vn -0.9113 0.3793 0.1603
vn -0.1743 0.9787 0.1089
vn -0.1770 0.9774 -0.1154
vn -0.3652 0.3371 -0.8677
vn 0.9247 0.3705 0.0879
vn 0.9953 -0.0000 0.0973
vn -0.5403 0.8260 -0.1607
vn -0.8226 0.5331 0.1979
vn -0.8364 0.5303 -0.1384
vn -0.3115 0.3343 0.8895
vn 0.3725 0.9218 0.1075
vn 0.3653 0.9218 -0.1298
vn -0.3656 -0.9208 0.1357
vn -0.3731 -0.9208 -0.1135
vn 0.3721 -0.9214 0.1118
vn 0.3647 -0.9214 -0.1341
vn 0.5291 0.5041 0.6826
vn 0.9177 0.3705 -0.1435
vn 0.4870 0.5041 -0.7132
vn -0.5251 0.8319 0.1795
vn -0.6089 0.0569 0.7912
vn -0.4816 0.4589 -0.7466
vn -0.0383 0.6266 0.7784
vn -0.2253 0.5996 0.7680
vn -0.9900 0.0972 -0.1022
vn -0.6497 0.0617 -0.7577
vn -0.5757 0.1212 -0.8086
vn -0.5148 0.1198 0.8489
vn -0.9697 0.1826 0.1625
vn -0.1082 0.5569 0.8235
vn -0.6555 0.0569 -0.7530
usemtl Material_Sofa
s 1
f 20/1/1 12/2/2 16/3/3
f 36/4/4 38/5/5 30/6/6
f 15/7/7 3/8/8 13/9/9
f 49/10/10 6/11/11 47/12/12
f 29/13/13 31/14/14 35/15/15
f 41/16/16 43/17/17 45/18/18
f 50/19/19 9/20/20 7/21/21
f 2/22/22 19/23/23 18/24/24
f 40/25/25 32/26/26 28/27/27
f 59/28/28 67/29/29 10/30/30
f 69/31/31 40/25/25 28/27/27
f 44/32/32 36/4/4 34/33/33
f 60/34/34 52/35/35 48/36/36
f 46/37/37 34/33/33 32/26/26
f 62/38/26 50/19/19 56/39/37
f 60/34/34 76/40/38 68/41/39
f 64/42/33 56/39/37 54/43/32
f 73/44/40 1/45/22 2/22/22
f 66/46/4 54/43/32 52/35/35
f 20/1/1 23/47/41 14/48/42
f 76/40/38 71/49/43 68/41/39
f 78/50/44 69/31/31 72/51/45
f 80/52/46 3/8/8 4/53/8
f 30/6/6 21/54/47 24/55/48
f 5/56/49 6/57/11 7/58/21
f 8/59/50 9/60/20 10/61/30
f 11/62/51 12/63/2 13/64/9
f 16/65/3 17/66/52 18/67/24
f 21/68/47 22/69/53 23/47/41
f 24/70/48 25/71/54 26/72/55
f 71/49/43 72/51/45 73/73/40
f 78/50/44 79/74/56 80/75/46
f 5/56/49 9/60/20 8/59/50
f 20/1/1 18/76/24 19/77/23
f 17/66/52 12/63/2 11/62/51
f 13/78/9 14/48/42 15/79/7
f 21/68/47 25/71/54 24/70/48
f 26/72/55 20/1/1 19/77/23
f 15/79/7 23/47/41 22/69/53
f 31/80/14 28/27/27 32/26/26
f 45/81/18 40/25/25 39/82/57
f 31/80/14 34/33/33 33/83/58
f 45/81/18 44/32/32 46/37/37
f 33/83/58 36/4/4 35/84/15
f 43/85/17 42/86/35 44/32/32
f 35/84/15 30/6/6 29/87/13
f 41/88/16 38/5/5 42/86/35
f 24/55/48 29/87/13 30/6/6
f 37/89/59 21/54/47 38/5/5
f 51/90/60 48/36/36 52/35/35
f 65/91/15 60/34/34 59/92/28
f 53/93/17 52/35/35 54/43/32
f 63/94/58 66/46/4 65/91/15
f 53/93/17 56/39/37 55/95/18
f 63/94/58 62/38/26 64/42/33
f 55/95/18 50/19/19 49/96/10
f 61/97/14 58/98/61 62/38/26
f 7/21/21 49/96/10 50/19/19
f 57/99/62 9/20/20 58/98/61
f 17/66/52 10/61/30 18/67/24
f 11/62/51 6/57/11 5/56/49
f 71/49/43 67/100/29 68/41/39
f 72/51/45 70/101/63 73/73/40
f 78/50/44 74/102/64 75/103/65
f 79/74/56 77/104/66 80/75/46
f 72/51/45 79/74/56 78/50/44
f 69/31/31 27/105/67 70/101/63
f 59/92/28 68/41/39 67/100/29
f 47/106/12 76/40/38 48/36/36
f 39/82/57 75/103/65 74/102/64
f 17/66/52 5/56/49 8/59/50
f 20/1/1 14/48/42 12/2/2
f 36/4/4 42/86/35 38/5/5
f 15/7/7 4/53/8 3/8/8
f 6/11/11 13/9/9 3/8/8
f 3/8/8 77/107/66 6/11/11
f 77/107/66 47/12/12 6/11/11
f 47/12/12 51/108/60 49/10/10
f 51/108/60 53/109/17 55/110/18
f 49/10/10 51/108/60 55/110/18
f 26/111/55 19/23/23 27/112/67
f 19/23/23 1/45/22 70/113/63
f 26/111/55 27/112/67 29/13/13
f 70/113/63 27/112/67 19/23/23
f 27/112/67 31/14/14 29/13/13
f 31/14/14 33/114/58 35/15/15
f 39/115/57 74/116/64 15/7/7
f 74/116/64 4/53/8 15/7/7
f 15/7/7 22/117/53 39/115/57
f 39/115/57 22/117/53 37/118/59
f 37/118/59 41/16/16 45/18/18
f 39/115/57 37/118/59 45/18/18
f 50/19/19 58/98/61 9/20/20
f 2/22/22 1/45/22 19/23/23
f 40/25/25 46/37/37 32/26/26
f 18/24/24 10/30/30 2/22/22
f 10/30/30 57/119/62 59/28/28
f 2/22/22 10/30/30 67/29/29
f 57/119/62 61/120/14 65/121/15
f 61/120/14 63/122/58 65/121/15
f 65/121/15 59/28/28 57/119/62
f 69/31/31 75/103/65 40/25/25
f 44/32/32 42/86/35 36/4/4
f 60/34/34 66/46/4 52/35/35
f 46/37/37 44/32/32 34/33/33
f 62/38/26 58/98/61 50/19/19
f 60/34/34 48/36/36 76/40/38
f 64/42/33 62/38/26 56/39/37
f 2/22/22 67/29/29 73/44/40
f 73/44/40 70/113/63 1/45/22
f 66/46/4 64/42/33 54/43/32
f 20/1/1 25/71/54 23/47/41
f 76/40/38 79/74/56 71/49/43
f 78/50/44 75/103/65 69/31/31
f 4/53/8 74/116/64 80/52/46
f 80/52/46 77/107/66 3/8/8
f 30/6/6 38/5/5 21/54/47
f 5/56/49 7/58/21 9/60/20
f 20/1/1 16/3/3 18/76/24
f 17/66/52 16/65/3 12/63/2
f 13/78/9 12/2/2 14/48/42
f 21/68/47 23/47/41 25/71/54
f 26/72/55 25/71/54 20/1/1
f 15/79/7 14/48/42 23/47/41
f 31/80/14 27/105/67 28/27/27
f 45/81/18 46/37/37 40/25/25
f 31/80/14 32/26/26 34/33/33
f 45/81/18 43/85/17 44/32/32
f 33/83/58 34/33/33 36/4/4
f 43/85/17 41/88/16 42/86/35
f 35/84/15 36/4/4 30/6/6
f 41/88/16 37/89/59 38/5/5
f 24/55/48 26/123/55 29/87/13
f 37/89/59 22/124/53 21/54/47
f 51/90/60 47/106/12 48/36/36
f 65/91/15 66/46/4 60/34/34
f 53/93/17 51/90/60 52/35/35
f 63/94/58 64/42/33 66/46/4
f 53/93/17 54/43/32 56/39/37
f 63/94/58 61/97/14 62/38/26
f 55/95/18 56/39/37 50/19/19
f 61/97/14 57/99/62 58/98/61
f 7/21/21 6/125/11 49/96/10
f 57/99/62 10/126/30 9/20/20
f 17/66/52 8/59/50 10/61/30
f 11/62/51 13/64/9 6/57/11
f 71/49/43 73/73/40 67/100/29
f 72/51/45 69/31/31 70/101/63
f 78/50/44 80/75/46 74/102/64
f 79/74/56 76/40/38 77/104/66
f 72/51/45 71/49/43 79/74/56
f 69/31/31 28/27/27 27/105/67
f 59/92/28 60/34/34 68/41/39
f 47/106/12 77/104/66 76/40/38
f 39/82/57 40/25/25 75/103/65
f 17/66/52 11/62/51 5/56/49
