# Blender v3.0.0 OBJ File: ''
# www.blender.org
mtllib seat_10.mtl
o Cadeira1.009_Cube.009
v -7.485720 0.486954 -9.514872
v -7.503349 0.446671 -9.514874
v -7.503623 0.446671 -6.282727
v -7.485993 0.486954 -6.282726
v -8.161411 -0.011394 -6.316496
v -8.161414 -0.001868 -6.282783
v -8.170588 -0.002217 -6.316497
v -8.161142 -0.011394 -9.481216
v -8.170319 -0.002218 -9.481216
v -8.161139 -0.001868 -9.514929
v -7.089711 -0.011394 -6.316405
v -7.080534 -0.002217 -6.316404
v -7.089335 -0.001868 -6.282692
v -7.080534 0.486954 -6.316404
v -7.089335 0.486954 -6.282692
v -7.080266 -0.002218 -9.481124
v -7.089442 -0.011394 -9.481125
v -7.089061 -0.001868 -9.514838
v -7.089061 0.486954 -9.514838
v -7.080266 0.486954 -9.481125
v -7.089711 1.193275 -6.316405
v -7.089335 1.184099 -6.282692
v -7.080534 1.184099 -6.316404
v -7.089442 1.193275 -9.481125
v -7.080266 1.184098 -9.481125
v -7.089061 1.184098 -9.514838
v -7.532298 0.937406 -9.514875
v -7.540560 0.942924 -9.481164
v -7.289302 1.184098 -9.514855
v -7.290208 1.193275 -9.481142
v -7.512856 1.035149 -9.514874
v -7.521503 1.038729 -9.481162
v -7.460615 1.113333 -9.514870
v -7.467234 1.119949 -9.481157
v -7.382431 1.165574 -9.514863
v -7.386014 1.174218 -9.481151
v -7.289576 1.184099 -6.282710
v -7.290477 1.193275 -6.316422
v -7.532572 0.937407 -6.282730
v -7.540828 0.942924 -6.316443
v -7.382704 1.165574 -6.282717
v -7.386282 1.174218 -6.316431
v -7.460889 1.113333 -6.282724
v -7.467502 1.119949 -6.316438
v -7.513130 1.035149 -6.282728
v -7.521771 1.038729 -6.316442
v -8.028083 0.478696 -6.282772
v -8.033597 0.486954 -6.316485
v -8.161414 0.349060 -6.282784
v -8.170588 0.349964 -6.316497
v -8.082443 0.467883 -6.282777
v -8.086020 0.476527 -6.316490
v -8.123851 0.440215 -6.282780
v -8.130464 0.446831 -6.316494
v -8.151518 0.398808 -6.282783
v -8.160159 0.402388 -6.316496
v -8.161139 0.349060 -9.514929
v -8.170319 0.349964 -9.481216
v -8.027808 0.478695 -9.514917
v -8.033329 0.486954 -9.481205
v -8.151244 0.398807 -9.514928
v -8.159891 0.402387 -9.481216
v -8.123576 0.440214 -9.514926
v -8.130196 0.446830 -9.481214
v -8.082169 0.467882 -9.514922
v -8.085752 0.476526 -9.481210
v -7.581536 0.480889 -9.514879
v -7.595397 0.486954 -9.481168
v -7.540560 0.541791 -9.481163
v -7.533534 0.534768 -9.514875
v -7.565099 0.499504 -9.481166
v -7.553110 0.511493 -9.481165
v -7.550092 0.494793 -9.514877
v -7.533012 0.533973 -6.282730
v -7.540828 0.541792 -6.316443
v -7.595665 0.486954 -6.316448
v -7.584008 0.481852 -6.282734
v -7.553378 0.511494 -6.316444
v -7.565367 0.499504 -6.316445
v -7.548670 0.496489 -6.282732
vt 0.495853 0.013301
vt 0.399965 0.493716
vt 0.399965 0.013301
vt 0.965121 0.518218
vt 0.978326 0.015705
vt 0.978326 0.518218
vt 0.442895 0.707504
vt 0.277737 0.691445
vt 0.442895 0.512634
vt 0.015507 0.652532
vt 0.015507 0.512634
vt 0.068660 0.704212
vt 0.516058 0.641009
vt 0.575438 0.730129
vt 0.523443 0.678135
vt 0.325942 0.978037
vt 0.294774 0.957211
vt 0.273948 0.926043
vt 0.738353 0.015705
vt 0.675817 0.518218
vt 0.675817 0.015705
vt 0.810037 0.726339
vt 0.793978 0.561182
vt 0.988848 0.561182
vt 0.908206 0.015705
vt 0.927172 0.518218
vt 0.908206 0.518218
vt 0.797271 0.935415
vt 0.796396 0.757508
vt 0.988848 0.988568
vt 0.836978 0.518218
vt 0.947158 0.015705
vt 0.947158 0.518218
vt 0.776722 0.518218
vt 0.769496 0.015705
vt 0.776722 0.015705
vt 0.927172 0.015705
vt 0.748731 0.518218
vt 0.748731 0.015705
vt 0.821619 0.015705
vt 0.821619 0.518218
vt 0.759667 0.518218
vt 0.759667 0.015705
vt 0.790853 0.744973
vt 0.793978 0.719311
vt 0.769496 0.518218
vt 0.632508 0.493716
vt 0.495853 0.493716
vt 0.826953 0.518218
vt 0.830311 0.015705
vt 0.830311 0.518218
vt 0.259780 0.711305
vt 0.284766 0.707504
vt 0.998909 0.015705
vt 0.998909 0.518218
vt 0.277768 0.486891
vt 0.283110 0.487954
vt 0.278771 0.491816
vt 0.012472 0.484757
vt 0.011268 0.489964
vt 0.006917 0.485651
vt 0.284949 0.189808
vt 0.286024 0.184786
vt 0.290122 0.188722
vt 0.022995 0.183286
vt 0.023891 0.188026
vt 0.018944 0.186803
vt 0.634307 0.493716
vt 0.632508 0.498833
vt 0.634307 0.013301
vt 0.632508 0.013301
vt 0.632508 0.008183
vt 0.827655 0.523571
vt 0.826953 0.015705
vt 0.828130 0.010352
vt 0.400033 0.008183
vt 0.495853 0.008183
vt 0.400033 0.498833
vt 0.495853 0.498833
vt 0.927422 0.523571
vt 0.927422 0.010352
vt 0.908073 0.010352
vt 0.946661 0.523571
vt 0.963953 0.523571
vt 0.946661 0.010352
vt 0.965121 0.015705
vt 0.976790 0.523571
vt 0.963953 0.010352
vt 0.976790 0.010352
vt 0.768329 0.010352
vt 0.768328 0.523571
vt 0.775822 0.523571
vt 0.759171 0.010352
vt 0.759171 0.523571
vt 0.748982 0.010352
vt 0.739134 0.010352
vt 0.748981 0.523571
vt 0.738353 0.518218
vt 0.739133 0.523571
vt 0.821962 0.523571
vt 0.836451 0.523571
vt 0.836391 0.010352
vt 0.836978 0.015705
vt 0.821908 0.010352
vt 0.908073 0.523571
vt 0.775822 0.010352
vt 0.245692 0.705470
vt 0.046989 0.699901
vt 0.030482 0.688871
vt 0.019452 0.672364
vt 0.516058 0.561182
vt 0.614404 0.737880
vt 0.774917 0.738372
vt 0.544270 0.709303
vt 0.266197 0.887078
vt 0.266022 0.726248
vt 0.442895 0.985422
vt 0.363068 0.985422
vt 0.848950 0.988568
vt 0.829118 0.984623
vt 0.801581 0.957086
vt 0.812611 0.973594
vt 0.997318 0.523571
vt 0.997318 0.010352
vt 0.676820 0.010352
vt 0.676820 0.523571
vn 0.9919 -0.0000 -0.1272
vn 0.9210 -0.3714 0.1174
vn 0.9210 -0.3714 -0.1172
vn -0.3793 0.9157 -0.1328
vn -0.0972 0.9865 0.1320
vn -0.0971 0.9865 -0.1320
vn 0.6113 0.0000 0.7914
vn -0.0001 0.0000 1.0000
vn 0.5085 -0.5005 0.7006
vn -0.6266 0.0617 0.7769
vn -0.5047 -0.5008 0.7032
vn -0.0570 0.6325 0.7725
vn -0.0616 0.6266 -0.7769
vn -0.5995 0.2483 -0.7609
vn -0.2483 0.5996 -0.7608
vn -0.2484 0.5996 0.7608
vn -0.4590 0.4589 0.7608
vn -0.5996 0.2483 0.7608
vn -0.9865 0.0972 0.1319
vn -0.9206 -0.3709 -0.1220
vn -0.9207 -0.3709 0.1219
vn 0.0001 0.0000 -1.0000
vn 0.6114 0.0000 -0.7913
vn 0.5086 -0.5005 -0.7006
vn -0.9868 0.1012 0.1262
vn -0.9157 0.3793 -0.1328
vn -0.9868 0.1012 -0.1264
vn -0.0569 0.6325 -0.7725
vn -0.1352 0.5375 -0.8324
vn -0.5046 -0.5008 -0.7033
vn -0.9754 0.1845 -0.1207
vn -0.7009 0.7009 0.1327
vn -0.7008 0.7008 -0.1328
vn -0.1011 0.9868 -0.1263
vn -0.3793 0.9157 0.1327
vn -0.1012 0.9868 0.1263
vn -0.9157 0.3793 0.1327
vn -0.1775 0.9787 0.1036
vn -0.1734 0.9774 -0.1207
vn -0.3388 0.3371 -0.8784
vn 0.9216 0.3705 0.1158
vn 0.9919 0.0000 0.1274
vn -0.5352 0.8260 -0.1770
vn -0.8282 0.5331 0.1730
vn -0.8319 0.5303 -0.1636
vn -0.3382 0.3342 0.8797
vn 0.3690 0.9218 0.1187
vn 0.3691 0.9218 -0.1187
vn -0.3695 -0.9208 0.1246
vn -0.3695 -0.9208 -0.1247
vn 0.3686 -0.9214 0.1230
vn 0.3686 -0.9214 -0.1230
vn 0.5082 0.5041 0.6983
vn 0.9216 0.3705 -0.1157
vn 0.5084 0.5041 -0.6982
vn -0.5303 0.8319 0.1635
vn -0.6326 0.0569 0.7724
vn -0.4588 0.4589 -0.7609
vn -0.0618 0.6266 0.7769
vn -0.2483 0.5995 -0.7609
vn -0.5995 0.2484 -0.7609
vn -0.9865 0.0972 -0.1321
vn -0.6265 0.0617 -0.7770
vn -0.5510 0.1212 -0.8257
vn -0.5402 0.1198 0.8329
vn -0.9741 0.1826 0.1331
vn -0.1330 0.5569 0.8198
vn -0.6324 0.0569 -0.7725
usemtl Material_Sofa
s 1
f 20/1/1 12/2/2 16/3/3
f 36/4/4 38/5/5 30/6/6
f 15/7/7 3/8/8 13/9/9
f 49/10/10 6/11/11 47/12/12
f 29/13/13 31/14/14 35/15/15
f 41/16/16 43/17/17 45/18/18
f 50/19/19 9/20/20 7/21/21
f 2/22/22 19/23/23 18/24/24
f 40/25/25 32/26/26 28/27/27
f 59/28/28 67/29/29 10/30/30
f 69/31/31 40/25/25 28/27/27
f 44/32/32 36/4/4 34/33/33
f 60/34/34 52/35/35 48/36/36
f 46/37/37 34/33/33 32/26/26
f 62/38/26 50/19/19 56/39/37
f 60/34/34 76/40/38 68/41/39
f 64/42/33 56/39/37 54/43/32
f 73/44/40 1/45/22 2/22/22
f 66/46/4 54/43/32 52/35/35
f 20/1/1 23/47/41 14/48/42
f 76/40/38 71/49/43 68/41/39
f 78/50/44 69/31/31 72/51/45
f 80/52/46 3/8/8 4/53/8
f 30/6/6 21/54/47 24/55/48
f 5/56/49 6/57/11 7/58/21
f 8/59/50 9/60/20 10/61/30
f 11/62/51 12/63/2 13/64/9
f 16/65/3 17/66/52 18/67/24
f 21/68/47 22/69/53 23/47/41
f 24/70/48 25/71/54 26/72/55
f 71/49/43 72/51/45 73/73/40
f 78/50/44 79/74/56 80/75/46
f 5/56/49 9/60/20 8/59/50
f 20/1/1 18/76/24 19/77/23
f 17/66/52 12/63/2 11/62/51
f 13/78/9 14/48/42 15/79/7
f 21/68/47 25/71/54 24/70/48
f 26/72/55 20/1/1 19/77/23
f 15/79/7 23/47/41 22/69/53
f 31/80/14 28/27/27 32/26/26
f 45/81/18 40/25/25 39/82/57
f 31/80/14 34/33/33 33/83/58
f 45/81/18 44/32/32 46/37/37
f 33/83/58 36/4/4 35/84/15
f 43/85/17 42/86/35 44/32/32
f 35/84/15 30/6/6 29/87/13
f 41/88/16 38/5/5 42/86/35
f 24/55/48 29/87/13 30/6/6
f 37/89/59 21/54/47 38/5/5
f 51/90/16 48/36/36 52/35/35
f 65/91/60 60/34/34 59/92/28
f 53/93/17 52/35/35 54/43/32
f 63/94/58 66/46/4 65/91/60
f 53/93/17 56/39/37 55/95/18
f 63/94/58 62/38/26 64/42/33
f 55/95/18 50/19/19 49/96/10
f 61/97/61 58/98/62 62/38/26
f 7/21/21 49/96/10 50/19/19
f 57/99/63 9/20/20 58/98/62
f 17/66/52 10/61/30 18/67/24
f 11/62/51 6/57/11 5/56/49
f 71/49/43 67/100/29 68/41/39
f 72/51/45 70/101/64 73/73/40
f 78/50/44 74/102/65 75/103/66
f 79/74/56 77/104/67 80/75/46
f 72/51/45 79/74/56 78/50/44
f 69/31/31 27/105/68 70/101/64
f 59/92/28 68/41/39 67/100/29
f 47/106/12 76/40/38 48/36/36
f 39/82/57 75/103/66 74/102/65
f 17/66/52 5/56/49 8/59/50
f 20/1/1 14/48/42 12/2/2
f 36/4/4 42/86/35 38/5/5
f 15/7/7 4/53/8 3/8/8
f 6/11/11 13/9/9 3/8/8
f 3/8/8 77/107/67 6/11/11
f 77/107/67 47/12/12 6/11/11
f 47/12/12 51/108/16 49/10/10
f 51/108/16 53/109/17 55/110/18
f 49/10/10 51/108/16 55/110/18
f 26/111/55 19/23/23 27/112/68
f 19/23/23 1/45/22 70/113/64
f 26/111/55 27/112/68 29/13/13
f 70/113/64 27/112/68 19/23/23
f 27/112/68 31/14/14 29/13/13
f 31/14/14 33/114/58 35/15/15
f 39/115/57 74/116/65 15/7/7
f 74/116/65 4/53/8 15/7/7
f 15/7/7 22/117/53 39/115/57
f 39/115/57 22/117/53 37/118/59
f 37/118/59 41/16/16 45/18/18
f 39/115/57 37/118/59 45/18/18
f 50/19/19 58/98/62 9/20/20
f 2/22/22 1/45/22 19/23/23
f 40/25/25 46/37/37 32/26/26
f 18/24/24 10/30/30 2/22/22
f 10/30/30 57/119/63 59/28/28
f 2/22/22 10/30/30 67/29/29
f 57/119/63 61/120/61 65/121/60
f 61/120/61 63/122/58 65/121/60
f 65/121/60 59/28/28 57/119/63
f 69/31/31 75/103/66 40/25/25
f 44/32/32 42/86/35 36/4/4
f 60/34/34 66/46/4 52/35/35
f 46/37/37 44/32/32 34/33/33
f 62/38/26 58/98/62 50/19/19
f 60/34/34 48/36/36 76/40/38
f 64/42/33 62/38/26 56/39/37
f 2/22/22 67/29/29 73/44/40
f 73/44/40 70/113/64 1/45/22
f 66/46/4 64/42/33 54/43/32
f 20/1/1 25/71/54 23/47/41
f 76/40/38 79/74/56 71/49/43
f 78/50/44 75/103/66 69/31/31
f 4/53/8 74/116/65 80/52/46
f 80/52/46 77/107/67 3/8/8
f 30/6/6 38/5/5 21/54/47
f 5/56/49 7/58/21 9/60/20
f 20/1/1 16/3/3 18/76/24
f 17/66/52 16/65/3 12/63/2
f 13/78/9 12/2/2 14/48/42
f 21/68/47 23/47/41 25/71/54
f 26/72/55 25/71/54 20/1/1
f 15/79/7 14/48/42 23/47/41
f 31/80/14 27/105/68 28/27/27
f 45/81/18 46/37/37 40/25/25
f 31/80/14 32/26/26 34/33/33
f 45/81/18 43/85/17 44/32/32
f 33/83/58 34/33/33 36/4/4
f 43/85/17 41/88/16 42/86/35
f 35/84/15 36/4/4 30/6/6
f 41/88/16 37/89/59 38/5/5
f 24/55/48 26/123/55 29/87/13
f 37/89/59 22/124/53 21/54/47
f 51/90/16 47/106/12 48/36/36
f 65/91/60 66/46/4 60/34/34
f 53/93/17 51/90/16 52/35/35
f 63/94/58 64/42/33 66/46/4
f 53/93/17 54/43/32 56/39/37
f 63/94/58 61/97/61 62/38/26
f 55/95/18 56/39/37 50/19/19
f 61/97/61 57/99/63 58/98/62
f 7/21/21 6/125/11 49/96/10
f 57/99/63 10/126/30 9/20/20
f 17/66/52 8/59/50 10/61/30
f 11/62/51 13/64/9 6/57/11
f 71/49/43 73/73/40 67/100/29
f 72/51/45 69/31/31 70/101/64
f 78/50/44 80/75/46 74/102/65
f 79/74/56 76/40/38 77/104/67
f 72/51/45 71/49/43 79/74/56
f 69/31/31 28/27/27 27/105/68
f 59/92/28 60/34/34 68/41/39
f 47/106/12 77/104/67 76/40/38
f 39/82/57 40/25/25 75/103/66
f 17/66/52 11/62/51 5/56/49
