# Blender v3.0.0 OBJ File: ''
# www.blender.org
mtllib seat_18.mtl
o Cadeira1.017_Cube.017
v 9.825919 0.489750 3.166150
v 9.821280 0.449467 3.183158
v 12.939526 0.449469 4.033637
v 12.944164 0.489752 4.016628
v 12.733915 -0.008596 4.659376
v 12.766440 0.000930 4.668247
v 12.731501 0.000581 4.668229
v 9.680720 -0.008598 3.826639
v 9.678306 0.000579 3.835492
v 9.648195 0.000928 3.817768
v 13.015913 -0.008596 3.625442
v 13.018328 0.000581 3.616589
v 13.048538 0.000930 3.633948
v 13.018328 0.489752 3.616589
v 13.048537 0.489752 3.633948
v 9.965133 0.000579 2.783852
v 9.962718 -0.008598 2.792706
v 9.930293 0.000928 2.783470
v 9.930292 0.489750 2.783470
v 9.965132 0.489750 2.783852
v 13.015913 1.196073 3.625442
v 13.048537 1.186896 3.633948
v 13.018328 1.186896 3.616589
v 9.962717 1.196071 2.792705
v 9.965132 1.186894 2.783852
v 9.930292 1.186894 2.783469
v 9.813663 0.940203 3.211087
v 9.844014 0.945720 3.227925
v 9.877603 1.186894 2.976654
v 9.909889 1.196071 2.986396
v 9.818779 1.037945 3.192330
v 9.849029 1.041525 3.209540
v 9.832525 1.116129 3.141929
v 9.863309 1.122745 3.157183
v 9.853098 1.168370 3.066500
v 9.884680 1.177014 3.078825
v 12.995848 1.186896 3.827132
v 12.963085 1.196073 3.819133
v 12.931908 0.940205 4.061565
v 12.897210 0.945722 4.060662
v 12.971342 1.168372 3.916979
v 12.937876 1.177016 3.911562
v 12.950769 1.116131 3.992408
v 12.916504 1.122747 3.989920
v 12.937023 1.037947 4.042808
v 12.902225 1.041527 4.042276
v 12.801523 0.481493 4.539614
v 12.767548 0.489752 4.536066
v 12.766440 0.351858 4.668246
v 12.731501 0.352762 4.668229
v 12.787220 0.470680 4.592059
v 12.753753 0.479324 4.586642
v 12.776324 0.443013 4.632007
v 12.742059 0.449629 4.629519
v 12.769044 0.401605 4.658700
v 12.734244 0.405186 4.658168
v 9.648195 0.351856 3.817768
v 9.678306 0.352760 3.835492
v 9.683279 0.481491 3.689136
v 9.714352 0.489750 3.703329
v 9.650799 0.401603 3.808221
v 9.681049 0.405184 3.825432
v 9.658079 0.443011 3.781529
v 9.688863 0.449627 3.796782
v 9.668975 0.470678 3.741580
v 9.700558 0.479322 3.753906
v 9.800707 0.483685 3.258590
v 9.829585 0.489750 3.280830
v 9.844014 0.544587 3.227925
v 9.813338 0.537564 3.212279
v 9.837558 0.502300 3.251600
v 9.840713 0.514290 3.240033
v 9.808981 0.497589 3.228253
v 12.931792 0.536771 4.061990
v 12.897210 0.544590 4.060662
v 12.882781 0.489752 4.113567
v 12.918373 0.484649 4.111189
v 12.893908 0.514292 4.072770
v 12.890753 0.502302 4.084337
v 12.927672 0.499287 4.077096
vt 0.495853 0.013301
vt 0.399965 0.493716
vt 0.399965 0.013301
vt 0.965121 0.518218
vt 0.978326 0.015705
vt 0.978326 0.518218
vt 0.442895 0.707504
vt 0.277737 0.691445
vt 0.442895 0.512634
vt 0.015507 0.652532
vt 0.015507 0.512634
vt 0.068660 0.704212
vt 0.516058 0.641009
vt 0.575438 0.730129
vt 0.523443 0.678135
vt 0.325942 0.978037
vt 0.294774 0.957211
vt 0.273948 0.926043
vt 0.738353 0.015705
vt 0.675817 0.518218
vt 0.675817 0.015705
vt 0.810037 0.726339
vt 0.793978 0.561182
vt 0.988848 0.561182
vt 0.908206 0.015705
vt 0.927172 0.518218
vt 0.908206 0.518218
vt 0.797271 0.935415
vt 0.796396 0.757508
vt 0.988848 0.988568
vt 0.836978 0.518218
vt 0.947158 0.015705
vt 0.947158 0.518218
vt 0.776722 0.518218
vt 0.769496 0.015705
vt 0.776722 0.015705
vt 0.927172 0.015705
vt 0.748731 0.518218
vt 0.748731 0.015705
vt 0.821619 0.015705
vt 0.821619 0.518218
vt 0.759667 0.518218
vt 0.759667 0.015705
vt 0.790853 0.744973
vt 0.793978 0.719311
vt 0.769496 0.518218
vt 0.632508 0.493716
vt 0.495853 0.493716
vt 0.826953 0.518218
vt 0.830311 0.015705
vt 0.830311 0.518218
vt 0.259780 0.711305
vt 0.284766 0.707504
vt 0.998909 0.015705
vt 0.998909 0.518218
vt 0.277768 0.486891
vt 0.283110 0.487954
vt 0.278771 0.491816
vt 0.012472 0.484757
vt 0.011268 0.489964
vt 0.006917 0.485651
vt 0.284949 0.189808
vt 0.286024 0.184786
vt 0.290122 0.188722
vt 0.022995 0.183286
vt 0.023891 0.188026
vt 0.018944 0.186803
vt 0.634307 0.493716
vt 0.632508 0.498833
vt 0.634307 0.013301
vt 0.632508 0.013301
vt 0.632508 0.008183
vt 0.827655 0.523571
vt 0.826953 0.015705
vt 0.828130 0.010352
vt 0.400033 0.008183
vt 0.495853 0.008183
vt 0.400033 0.498833
vt 0.495853 0.498833
vt 0.927422 0.523571
vt 0.927422 0.010352
vt 0.908073 0.010352
vt 0.946661 0.523571
vt 0.946661 0.010352
vt 0.963953 0.523571
vt 0.963953 0.010352
vt 0.976790 0.523571
vt 0.965121 0.015705
vt 0.976790 0.010352
vt 0.768329 0.010352
vt 0.768328 0.523571
vt 0.775822 0.523571
vt 0.759171 0.010352
vt 0.759171 0.523571
vt 0.748982 0.010352
vt 0.748981 0.523571
vt 0.739134 0.010352
vt 0.738353 0.518218
vt 0.739133 0.523571
vt 0.821962 0.523571
vt 0.836451 0.523571
vt 0.836391 0.010352
vt 0.836978 0.015705
vt 0.821908 0.010352
vt 0.908073 0.523571
vt 0.775822 0.010352
vt 0.245692 0.705470
vt 0.046989 0.699901
vt 0.030482 0.688871
vt 0.019452 0.672364
vt 0.516058 0.561182
vt 0.614404 0.737880
vt 0.774917 0.738372
vt 0.544270 0.709303
vt 0.266197 0.887078
vt 0.266022 0.726248
vt 0.442895 0.985422
vt 0.363068 0.985422
vt 0.848950 0.988568
vt 0.829118 0.984623
vt 0.801581 0.957086
vt 0.812611 0.973594
vt 0.997318 0.523571
vt 0.997318 0.010352
vt 0.676820 0.010352
vt 0.676820 0.523571
vn 0.1382 -0.0000 -0.9904
vn 0.3555 -0.3714 -0.8577
vn 0.1292 -0.3714 -0.9194
vn -0.2279 0.9157 0.3310
vn 0.1018 0.9865 0.1285
vn -0.1529 0.9865 0.0590
vn 0.9243 0.0000 -0.3816
vn 0.9648 -0.0000 0.2631
vn 0.8097 -0.5005 -0.3063
vn 0.5847 0.0617 0.8089
vn 0.5457 -0.5008 0.6719
vn 0.7303 0.6325 0.2582
vn -0.7658 0.6266 -0.1449
vn -0.8918 0.2483 0.3782
vn -0.7994 0.5996 0.0394
vn 0.6687 0.5996 0.4398
vn 0.6133 0.4589 0.6429
vn 0.5762 0.2484 0.7786
vn -0.1322 0.0972 0.9864
vn -0.3599 -0.3709 0.8561
vn -0.1246 -0.3708 0.9203
vn -0.9648 0.0000 -0.2631
vn -0.6026 -0.0000 -0.7980
vn -0.5421 -0.5005 -0.6750
vn -0.1378 0.1012 0.9853
vn -0.3690 0.3793 0.8485
vn -0.3815 0.1012 0.9188
vn -0.7602 0.6325 -0.1483
vn -0.8386 0.5375 -0.0885
vn -0.8113 -0.5008 0.3018
vn -0.3731 0.1845 0.9093
vn -0.0563 0.7008 0.7111
vn -0.3125 0.7009 0.6412
vn -0.1485 0.9868 0.0644
vn 0.0283 0.9157 0.4009
vn 0.0952 0.9868 0.1308
vn -0.1129 0.3793 0.9184
vn 0.0532 0.9787 0.1985
vn -0.1620 0.9774 0.1355
vn -0.3125 0.7008 0.6412
vn -0.0563 0.7009 0.7111
vn -0.9366 0.3372 0.0958
vn 0.3542 0.3705 -0.8586
vn 0.3838 0.0000 -0.9234
vn -0.3115 0.8260 0.4698
vn -0.0510 0.5331 0.8445
vn -0.3767 0.5302 0.7596
vn 0.7598 0.3343 0.5577
vn 0.2116 0.9218 -0.3248
vn -0.0174 0.9218 -0.3873
vn 0.0230 -0.9208 0.3893
vn -0.2175 -0.9208 0.3237
vn 0.2156 -0.9214 -0.3232
vn -0.0217 -0.9214 -0.3879
vn 0.8074 0.5041 -0.3067
vn 0.1308 0.3705 -0.9196
vn -0.5399 0.5041 -0.6741
vn 0.0183 0.8319 0.5546
vn 0.5788 0.0569 0.8135
vn -0.8548 0.4589 0.2425
vn 0.7333 0.6266 0.2640
vn 0.6687 0.5995 0.4398
vn 0.6133 0.4588 0.6429
vn 0.5763 0.2483 0.7786
vn -0.8918 0.2484 0.3782
vn -0.3869 0.0972 0.9170
vn -0.9144 0.0617 0.4000
vn -0.9415 0.1212 0.3144
vn 0.6615 0.1198 0.7403
vn -0.1278 0.1826 0.9748
vn 0.7560 0.5569 0.3440
vn -0.9117 0.0569 0.4069
usemtl Material_Sofa
s 1
f 20/1/1 12/2/2 16/3/3
f 36/4/4 38/5/5 30/6/6
f 15/7/7 3/8/8 13/9/9
f 49/10/10 6/11/11 47/12/12
f 29/13/13 31/14/14 35/15/15
f 41/16/16 43/17/17 45/18/18
f 50/19/19 9/20/20 7/21/21
f 2/22/22 19/23/23 18/24/24
f 40/25/25 32/26/26 28/27/27
f 59/28/28 67/29/29 10/30/30
f 69/31/31 40/25/25 28/27/27
f 44/32/32 36/4/4 34/33/33
f 60/34/34 52/35/35 48/36/36
f 46/37/37 34/33/33 32/26/26
f 62/38/26 50/19/19 56/39/37
f 60/34/34 76/40/38 68/41/39
f 64/42/40 56/39/37 54/43/41
f 73/44/42 1/45/22 2/22/22
f 66/46/4 54/43/41 52/35/35
f 20/1/1 23/47/43 14/48/44
f 76/40/38 71/49/45 68/41/39
f 78/50/46 69/31/31 72/51/47
f 80/52/48 3/8/8 4/53/8
f 30/6/6 21/54/49 24/55/50
f 5/56/51 6/57/11 7/58/21
f 8/59/52 9/60/20 10/61/30
f 11/62/53 12/63/2 13/64/9
f 16/65/3 17/66/54 18/67/24
f 21/68/49 22/69/55 23/47/43
f 24/70/50 25/71/56 26/72/57
f 71/49/45 72/51/47 73/73/42
f 78/50/46 79/74/58 80/75/48
f 5/56/51 9/60/20 8/59/52
f 20/1/1 18/76/24 19/77/23
f 17/66/54 12/63/2 11/62/53
f 13/78/9 14/48/44 15/79/7
f 21/68/49 25/71/56 24/70/50
f 26/72/57 20/1/1 19/77/23
f 15/79/7 23/47/43 22/69/55
f 31/80/14 28/27/27 32/26/26
f 45/81/18 40/25/25 39/82/59
f 31/80/14 34/33/33 33/83/60
f 43/84/17 46/37/37 45/81/18
f 33/83/60 36/4/4 35/85/15
f 41/86/16 44/32/32 43/84/17
f 35/85/15 30/6/6 29/87/13
f 41/86/16 38/5/5 42/88/35
f 24/55/50 29/87/13 30/6/6
f 37/89/61 21/54/49 38/5/5
f 51/90/62 48/36/36 52/35/35
f 65/91/15 60/34/34 59/92/28
f 53/93/63 52/35/35 54/43/41
f 63/94/60 66/46/4 65/91/15
f 53/93/63 56/39/37 55/95/64
f 61/96/65 64/42/40 63/94/60
f 55/95/64 50/19/19 49/97/10
f 61/96/65 58/98/66 62/38/26
f 7/21/21 49/97/10 50/19/19
f 57/99/67 9/20/20 58/98/66
f 17/66/54 10/61/30 18/67/24
f 11/62/53 6/57/11 5/56/51
f 71/49/45 67/100/29 68/41/39
f 72/51/47 70/101/68 73/73/42
f 78/50/46 74/102/69 75/103/70
f 79/74/58 77/104/71 80/75/48
f 72/51/47 79/74/58 78/50/46
f 69/31/31 27/105/72 70/101/68
f 59/92/28 68/41/39 67/100/29
f 47/106/12 76/40/38 48/36/36
f 39/82/59 75/103/70 74/102/69
f 17/66/54 5/56/51 8/59/52
f 20/1/1 14/48/44 12/2/2
f 36/4/4 42/88/35 38/5/5
f 15/7/7 4/53/8 3/8/8
f 6/11/11 13/9/9 3/8/8
f 3/8/8 77/107/71 6/11/11
f 77/107/71 47/12/12 6/11/11
f 47/12/12 51/108/62 49/10/10
f 51/108/62 53/109/63 55/110/64
f 49/10/10 51/108/62 55/110/64
f 26/111/57 19/23/23 27/112/72
f 19/23/23 1/45/22 70/113/68
f 26/111/57 27/112/72 29/13/13
f 70/113/68 27/112/72 19/23/23
f 27/112/72 31/14/14 29/13/13
f 31/14/14 33/114/60 35/15/15
f 39/115/59 74/116/69 15/7/7
f 74/116/69 4/53/8 15/7/7
f 15/7/7 22/117/55 39/115/59
f 39/115/59 22/117/55 37/118/61
f 37/118/61 41/16/16 45/18/18
f 39/115/59 37/118/61 45/18/18
f 50/19/19 58/98/66 9/20/20
f 2/22/22 1/45/22 19/23/23
f 40/25/25 46/37/37 32/26/26
f 18/24/24 10/30/30 2/22/22
f 10/30/30 57/119/67 59/28/28
f 2/22/22 10/30/30 67/29/29
f 57/119/67 61/120/65 65/121/15
f 61/120/65 63/122/60 65/121/15
f 65/121/15 59/28/28 57/119/67
f 69/31/31 75/103/70 40/25/25
f 44/32/32 42/88/35 36/4/4
f 60/34/34 66/46/4 52/35/35
f 46/37/37 44/32/32 34/33/33
f 62/38/26 58/98/66 50/19/19
f 60/34/34 48/36/36 76/40/38
f 64/42/40 62/38/26 56/39/37
f 2/22/22 67/29/29 73/44/42
f 73/44/42 70/113/68 1/45/22
f 66/46/4 64/42/40 54/43/41
f 20/1/1 25/71/56 23/47/43
f 76/40/38 79/74/58 71/49/45
f 78/50/46 75/103/70 69/31/31
f 4/53/8 74/116/69 80/52/48
f 80/52/48 77/107/71 3/8/8
f 30/6/6 38/5/5 21/54/49
f 5/56/51 7/58/21 9/60/20
f 20/1/1 16/3/3 18/76/24
f 17/66/54 16/65/3 12/63/2
f 13/78/9 12/2/2 14/48/44
f 21/68/49 23/47/43 25/71/56
f 26/72/57 25/71/56 20/1/1
f 15/79/7 14/48/44 23/47/43
f 31/80/14 27/105/72 28/27/27
f 45/81/18 46/37/37 40/25/25
f 31/80/14 32/26/26 34/33/33
f 43/84/17 44/32/32 46/37/37
f 33/83/60 34/33/33 36/4/4
f 41/86/16 42/88/35 44/32/32
f 35/85/15 36/4/4 30/6/6
f 41/86/16 37/89/61 38/5/5
f 24/55/50 26/123/57 29/87/13
f 37/89/61 22/124/55 21/54/49
f 51/90/62 47/106/12 48/36/36
f 65/91/15 66/46/4 60/34/34
f 53/93/63 51/90/62 52/35/35
f 63/94/60 64/42/40 66/46/4
f 53/93/63 54/43/41 56/39/37
f 61/96/65 62/38/26 64/42/40
f 55/95/64 56/39/37 50/19/19
f 61/96/65 57/99/67 58/98/66
f 7/21/21 6/125/11 49/97/10
f 57/99/67 10/126/30 9/20/20
f 17/66/54 8/59/52 10/61/30
f 11/62/53 13/64/9 6/57/11
f 71/49/45 73/73/42 67/100/29
f 72/51/47 69/31/31 70/101/68
f 78/50/46 80/75/48 74/102/69
f 79/74/58 76/40/38 77/104/71
f 72/51/47 71/49/45 79/74/58
f 69/31/31 28/27/27 27/105/72
f 59/92/28 60/34/34 68/41/39
f 47/106/12 77/104/71 76/40/38
f 39/82/59 40/25/25 75/103/70
f 17/66/54 11/62/53 5/56/51
