# Blender v3.0.0 OBJ File: ''
# www.blender.org
mtllib barril_9.mtl
o Barril.008_Cylinder.051
v -13.400738 1.707274 -0.268021
v -14.367731 1.830987 -0.045346
v -13.371441 1.598936 -0.080603
v -14.338434 1.722649 0.142072
v -13.375547 1.400926 0.011573
v -14.342541 1.524640 0.234248
v -13.411489 1.188879 -0.026701
v -14.378483 1.312592 0.195974
v -13.465538 1.043788 -0.180806
v -14.432531 1.167501 0.041870
v -13.517049 1.021073 -0.391879
v -14.484042 1.144786 -0.169203
v -13.546347 1.129411 -0.579297
v -14.513340 1.253124 -0.356621
v -13.542240 1.327420 -0.671472
v -14.509233 1.451134 -0.448797
v -13.506298 1.539468 -0.633198
v -14.473291 1.663181 -0.410523
v -13.452249 1.684559 -0.479094
v -14.419243 1.808272 -0.256418
v -13.706152 0.979913 -0.081901
v -13.868423 1.862415 -0.139846
v -13.639701 0.985338 -0.103603
v -14.261708 1.064915 0.039631
v -13.831160 1.724621 0.098528
v -14.195834 1.042561 0.030861
v -13.636176 1.167758 0.117613
v -13.836383 1.472776 0.215766
v -13.572068 1.166893 0.089230
v -14.194077 1.246470 0.232464
v -13.882097 1.203075 0.167085
v -14.125858 1.230406 0.230375
v -13.589643 1.442289 0.167165
v -13.950842 1.018536 -0.028918
v -13.527094 1.432231 0.137123
v -14.149101 1.511808 0.280357
v -14.016357 0.989646 -0.297378
v -14.079326 1.504937 0.279927
v -13.584327 1.698645 0.047828
v -14.053620 1.127439 -0.535753
v -13.521955 1.680003 0.021782
v -14.143963 1.759580 0.165016
v -14.048398 1.379285 -0.652990
v -14.074009 1.761293 0.160590
v -14.111939 1.901555 -0.082054
v -14.002684 1.648985 -0.604310
v -14.180623 1.895145 -0.069503
v -13.558616 1.815568 -0.212737
v -13.933939 1.833524 -0.408306
v -13.622257 1.838907 -0.194816
v -13.626657 1.809557 -0.200230
v -13.562696 1.787178 -0.218009
v -14.186135 1.866938 -0.074446
v -14.117465 1.872349 -0.087209
v -14.082035 1.741332 0.139442
v -14.151891 1.740309 0.144615
v -13.528453 1.660549 0.001052
v -13.591226 1.678540 0.026420
v -14.087001 1.501873 0.250913
v -14.156691 1.508868 0.252354
v -13.533253 1.429108 0.108791
v -13.596192 1.439081 0.137892
v -14.130467 1.245436 0.204627
v -14.198702 1.261019 0.207618
v -13.575263 1.181259 0.064055
v -13.639658 1.182644 0.091606
v -14.195830 1.069973 0.018263
v -14.261876 1.091431 0.027494
v -13.638437 1.011671 -0.116069
v -13.705021 1.007181 -0.094758
v -14.258124 1.042503 -0.236994
v -14.322083 1.064882 -0.219215
v -13.698646 0.985122 -0.362778
v -13.767315 0.979711 -0.350015
v -14.293554 1.173520 -0.463644
v -14.356328 1.191511 -0.438276
v -13.732889 1.111751 -0.581839
v -13.802746 1.110728 -0.576666
v -14.288589 1.412979 -0.575116
v -14.351528 1.422952 -0.546015
v -13.728089 1.343192 -0.689578
v -13.797779 1.350187 -0.688137
v -14.245123 1.669416 -0.528830
v -14.309518 1.670801 -0.501279
v -13.686079 1.591041 -0.644842
v -13.754313 1.606624 -0.641851
v -14.179759 1.844879 -0.342466
v -14.246343 1.840389 -0.321155
v -13.622905 1.760629 -0.464718
v -13.688951 1.782087 -0.455487
v -14.262524 1.013153 -0.242408
v -14.326165 1.036492 -0.224488
v -13.704157 0.956915 -0.367721
v -13.772841 0.950505 -0.355170
v -14.300454 1.153415 -0.485052
v -14.362825 1.172057 -0.459006
v -13.740818 1.092480 -0.602240
v -13.810772 1.090767 -0.597814
v -14.295137 1.409771 -0.604389
v -14.357687 1.419829 -0.574347
v -13.735680 1.340252 -0.717581
v -13.805455 1.347123 -0.717152
v -14.248605 1.684303 -0.554837
v -14.312712 1.685167 -0.526455
v -13.690704 1.605590 -0.669688
v -13.758922 1.621655 -0.667599
v -14.178629 1.872147 -0.355323
v -14.245080 1.866722 -0.333621
v -13.623072 1.787145 -0.476855
v -13.688947 1.809500 -0.468085
v -14.373786 1.795264 -0.051793
v -14.347539 1.698206 0.116111
v -14.351218 1.520813 0.198690
v -14.383418 1.330843 0.164401
v -14.431840 1.200858 0.026341
v -14.477987 1.180509 -0.162755
v -14.504234 1.277567 -0.330660
v -14.500556 1.454960 -0.413239
v -14.468356 1.644930 -0.378950
v -14.419934 1.774915 -0.240890
v -14.343195 1.766735 -0.064127
v -14.319005 1.677284 0.090616
v -14.322395 1.513796 0.166722
v -14.352072 1.338716 0.135121
v -14.396698 1.218920 0.007883
v -14.439228 1.200166 -0.166391
v -14.463418 1.289616 -0.321135
v -14.460028 1.453105 -0.397241
v -14.430351 1.628184 -0.365640
v -14.385725 1.747980 -0.238401
v -13.405194 1.680986 -0.272766
v -13.378141 1.580949 -0.099708
v -13.381933 1.398111 -0.014594
v -13.415121 1.202310 -0.049936
v -13.465029 1.068335 -0.192233
v -13.512593 1.047361 -0.387134
v -13.539646 1.147398 -0.560192
v -13.535854 1.330236 -0.645305
v -13.502666 1.526037 -0.609964
v -13.452758 1.660012 -0.467666
v -13.422199 1.669895 -0.271701
v -13.396255 1.573958 -0.105735
v -13.399892 1.398614 -0.024110
v -13.431720 1.210838 -0.058003
v -13.479583 1.082354 -0.194468
v -13.525197 1.062240 -0.381381
v -13.551142 1.158177 -0.547346
v -13.547504 1.333521 -0.628971
v -13.515676 1.521297 -0.595078
v -13.467814 1.649781 -0.458613
vt 0.636735 0.405048
vt 0.717912 0.481021
vt 0.636692 0.480766
vt 0.003706 0.403824
vt 0.080584 0.479017
vt 0.000250 0.478764
vt 0.081565 0.405320
vt 0.159214 0.479264
vt 0.159565 0.405707
vt 0.237672 0.479511
vt 0.237836 0.405698
vt 0.316418 0.479758
vt 0.316569 0.405485
vt 0.395871 0.480008
vt 0.475904 0.405077
vt 0.475772 0.480260
vt 0.556059 0.480512
vt 0.818292 0.253286
vt 0.873581 0.215348
vt 0.880714 0.224665
vt 0.717321 0.404940
vt 0.800838 0.481282
vt 0.000250 0.866650
vt 0.009845 0.924150
vt 0.002824 0.926451
vt 0.797208 0.558706
vt 0.716763 0.557099
vt 0.531119 0.338511
vt 0.549945 0.251852
vt 0.589044 0.290705
vt 0.046202 0.202037
vt 0.047690 0.290705
vt 0.000250 0.232480
vt 0.636160 0.556480
vt 0.555628 0.555990
vt 0.666050 0.608130
vt 0.561330 0.611480
vt 0.565632 0.586219
vt 0.464952 0.029528
vt 0.500387 0.110821
vt 0.443778 0.080420
vt 0.475327 0.555432
vt 0.464952 0.374045
vt 0.500387 0.292752
vt 0.393107 0.007641
vt 0.382311 0.061694
vt 0.395403 0.554768
vt 0.382311 0.341879
vt 0.393107 0.395932
vt 0.318367 0.055371
vt 0.316002 0.554015
vt 0.318367 0.348202
vt 0.318367 0.403323
vt 0.243627 0.007641
vt 0.254423 0.061694
vt 0.237276 0.553311
vt 0.243627 0.395932
vt 0.192956 0.080420
vt 0.159013 0.552815
vt 0.192956 0.323154
vt 0.171782 0.374045
vt 0.105615 0.065062
vt 0.136347 0.110821
vt 0.081029 0.552716
vt 0.136347 0.292752
vt 0.105615 0.338511
vt 0.047690 0.112868
vt 0.086789 0.151722
vt 0.003235 0.553725
vt 0.086789 0.251852
vt 0.046202 0.201536
vt 0.531119 0.065063
vt 0.549945 0.151722
vt 0.590533 0.202037
vt 0.636484 0.232480
vt 0.559450 0.719361
vt 0.460773 0.741960
vt 0.459894 0.731474
vt 0.010235 0.666161
vt 0.043967 0.642992
vt 0.045905 0.647038
vt 0.269080 0.775608
vt 0.362727 0.770821
vt 0.362806 0.780835
vt 0.037344 0.629113
vt 0.001099 0.653706
vt 0.000250 0.648976
vt 0.362528 0.736763
vt 0.271372 0.744991
vt 0.271981 0.736010
vt 0.126606 0.745368
vt 0.189019 0.755271
vt 0.187913 0.762650
vt 0.460113 0.609211
vt 0.559562 0.621964
vt 0.193480 0.730229
vt 0.131922 0.725912
vt 0.133424 0.720190
vt 0.464107 0.562982
vt 0.463208 0.573479
vt 0.037232 0.708762
vt 0.079869 0.722763
vt 0.078135 0.727439
vt 0.272276 0.603471
vt 0.362932 0.593299
vt 0.362807 0.603296
vt 0.085789 0.706938
vt 0.043923 0.694917
vt 0.045877 0.690880
vt 0.363268 0.559207
vt 0.270159 0.572808
vt 0.269537 0.563820
vt 0.133633 0.618364
vt 0.192524 0.601381
vt 0.193748 0.608758
vt 0.668418 0.743868
vt 0.565345 0.755149
vt 0.665926 0.733896
vt 0.126924 0.593114
vt 0.189406 0.583612
vt 0.128443 0.598856
vt 0.084226 0.626603
vt 0.085918 0.631271
vt 0.462817 0.767215
vt 0.463695 0.777719
vt 0.760772 0.703514
vt 0.760698 0.714570
vt 0.656660 0.699756
vt 0.561187 0.729854
vt 0.636484 0.171094
vt 0.590532 0.201536
vt 0.659385 0.709707
vt 0.461024 0.598729
vt 0.363168 0.569213
vt 0.362624 0.746758
vt 0.271693 0.594481
vt 0.269720 0.766611
vt 0.192233 0.737592
vt 0.132152 0.612630
vt 0.128141 0.739619
vt 0.080075 0.615388
vt 0.084080 0.711596
vt 0.039268 0.633170
vt 0.039166 0.704707
vt 0.006900 0.662962
vt 0.001130 0.683915
vt 0.006996 0.674693
vt 0.760651 0.639131
vt 0.659367 0.632257
vt 0.751550 0.680152
vt 0.078354 0.610715
vt 0.567096 0.765654
vt 0.188316 0.576245
vt 0.010353 0.671517
vt 0.668562 0.598162
vt 0.567403 0.575719
vt 0.000250 0.688639
vt 0.760651 0.628079
vt 0.656609 0.642190
vt 0.751274 0.662430
vt 0.745023 0.671017
vt 0.745355 0.671517
vt 0.658456 0.068997
vt 0.658629 0.119861
vt 0.646872 0.120024
vt 0.750748 0.253286
vt 0.815793 0.241953
vt 0.691135 0.226017
vt 0.753134 0.242201
vt 0.659974 0.173217
vt 0.697726 0.217294
vt 0.636984 0.120066
vt 0.650649 0.177924
vt 0.940500 0.104536
vt 0.914518 0.166457
vt 0.928941 0.105561
vt 0.685098 0.022249
vt 0.649911 0.064784
vt 0.736120 0.009420
vt 0.690745 0.029705
vt 0.925086 0.171672
vt 0.302863 0.944617
vt 0.302863 0.781335
vt 0.398838 0.812519
vt 0.902023 0.160163
vt 0.915190 0.104781
vt 0.812769 0.228345
vt 0.670975 0.167484
vt 0.697488 0.038538
vt 0.865066 0.204184
vt 0.705514 0.206778
vt 0.668643 0.073957
vt 0.755922 0.228868
vt 0.234892 0.876790
vt 0.198694 0.826363
vt 0.203181 0.821914
vt 0.242717 0.942372
vt 0.201781 0.993363
vt 0.234617 0.940047
vt 0.040361 0.969758
vt 0.035627 0.975318
vt 0.089598 0.992550
vt 0.088752 0.999750
vt 0.243047 0.874619
vt 0.209135 0.815985
vt 0.148975 0.790094
vt 0.151188 0.782117
vt 0.087475 0.789146
vt 0.085468 0.781335
vt 0.030034 0.812802
vt 0.035581 0.818298
vt 0.007604 0.868387
vt 0.881790 0.846641
vt 0.778855 0.813195
vt 0.778855 0.704963
vt 0.039702 0.822436
vt 0.043915 0.965603
vt 0.228551 0.938311
vt 0.228771 0.878416
vt 0.088945 0.795019
vt 0.013096 0.869715
vt 0.015102 0.922447
vt 0.147284 0.796086
vt 0.090824 0.987260
vt 0.395977 0.405235
vt 0.556206 0.405028
vt 0.797695 0.403837
vt 0.443778 0.323154
vt 0.318367 0.000250
vt 0.254423 0.341879
vt 0.171782 0.029528
vt 0.000250 0.171094
vt 0.589044 0.112868
vt 0.735205 0.000250
vt 0.415232 0.862976
vt 0.398838 0.913433
vt 0.355917 0.944617
vt 0.259941 0.913433
vt 0.243547 0.862976
vt 0.259942 0.812519
vt 0.355917 0.781335
vt 0.738769 0.020032
vt 0.207185 0.999750
vt 0.881790 0.671517
vt 0.927824 0.704963
vt 0.945408 0.759079
vt 0.927824 0.813195
vt 0.824889 0.846641
vt 0.761272 0.759079
vt 0.824889 0.671517
vt 0.197229 0.989055
vn 0.7514 0.4898 -0.4422
vn 0.1645 0.9707 0.1752
vn 0.0188 0.9064 -0.4220
vn 0.8988 0.3336 0.2845
vn 0.2358 0.1040 0.9662
vn 0.2474 0.6642 0.7054
vn 0.8913 -0.0276 0.4526
vn 0.1341 -0.4959 0.8579
vn 0.8257 -0.4143 0.3828
vn -0.0188 -0.9064 0.4220
vn 0.7271 -0.6789 0.1018
vn -0.1645 -0.9707 -0.1752
vn 0.6332 -0.7203 -0.2832
vn -0.2474 -0.6642 -0.7054
vn 0.5873 -0.1616 -0.7931
vn -0.2358 -0.1040 -0.9662
vn -0.1341 0.4959 -0.8579
vn -0.8215 0.4166 -0.3892
vn -0.8996 -0.2352 0.3681
vn -0.7220 0.6838 -0.1055
vn 0.8453 0.5312 -0.0573
vn 0.7220 -0.6838 0.1055
vn 0.8635 0.0526 -0.5016
vn 0.8215 -0.4166 0.3892
vn -0.5798 0.5227 0.6250
vn -0.6332 0.7203 0.2832
vn -0.8224 0.5684 -0.0235
vn -0.6272 0.7256 0.2831
vn -0.7481 0.6012 0.2809
vn -0.5733 0.5261 0.6281
vn -0.7118 0.1594 0.6840
vn -0.7059 0.4450 0.5511
vn -0.7271 0.6789 -0.1018
vn -0.8257 0.4143 -0.3828
vn -0.4117 0.8703 0.2705
vn 0.7059 0.5438 -0.4539
vn -0.5318 0.8173 -0.2218
vn 0.7636 0.1463 -0.6288
vn 0.7465 0.4959 -0.4437
vn 0.6470 0.2288 -0.7274
vn -0.8913 0.0275 -0.4526
vn -0.9003 0.3592 -0.2457
vn 0.7118 -0.1594 -0.6840
vn 0.5808 -0.1616 -0.7978
vn -0.8988 -0.3336 -0.2845
vn -0.8877 0.0263 -0.4597
vn -0.9522 0.0534 -0.3009
vn 0.5733 -0.5262 -0.6281
vn -0.8453 -0.5311 0.0573
vn -0.8953 -0.3383 -0.2900
vn -0.9581 -0.2321 -0.1680
vn 0.7481 -0.6012 -0.2809
vn 0.6272 -0.7256 -0.2831
vn -0.7514 -0.4897 0.4422
vn -0.9158 -0.3883 0.1023
vn -0.6528 -0.2251 0.7233
vn -0.7465 -0.4959 0.4437
vn -0.8416 -0.3555 0.4066
vn 0.9003 -0.3592 0.2457
vn -0.5872 0.1616 0.7931
vn -0.6470 -0.2288 0.7274
vn -0.7636 -0.1463 0.6288
vn 0.9522 -0.0535 0.3009
vn 0.8877 -0.0263 0.4597
vn -0.5808 0.1616 0.7978
vn 0.8953 0.3383 0.2900
vn 0.8416 0.3555 -0.4066
vn 0.8413 0.5377 -0.0551
vn -0.7863 0.4346 -0.4391
vn 0.9581 0.2321 0.1679
vn 0.8573 -0.0161 0.5146
vn 0.5798 -0.5228 -0.6250
vn 0.3529 -0.1557 -0.9226
vn -0.3433 0.6176 0.7076
vn -0.8654 -0.3748 -0.3327
vn 0.4117 -0.8703 -0.2705
vn -0.7059 -0.5438 0.4539
vn -0.6579 0.4789 -0.5813
vn 0.6579 -0.4789 0.5813
vn 0.7059 -0.4450 -0.5511
vn 0.5282 -0.1612 -0.8337
vn -0.5283 0.1612 0.8336
vn -0.7513 -0.4775 -0.4556
vn 0.8224 -0.5684 0.0235
vn 0.5780 -0.7659 -0.2818
vn 0.5628 0.6773 -0.4739
vn 0.6830 0.7302 0.0184
vn -0.6830 -0.7302 -0.0184
vn -0.5628 -0.6773 0.4739
vn 0.7863 -0.4346 0.4390
vn 0.4367 0.3389 -0.8333
vn 0.6528 0.2251 -0.7233
vn 0.7513 0.4775 0.4556
vn -0.6797 0.7210 -0.1349
vn -0.5780 0.7659 0.2818
vn 0.5992 0.2574 -0.7581
vn -0.7417 -0.0157 -0.6705
vn -0.8573 0.0161 -0.5146
vn 0.5201 -0.5520 -0.6517
vn 0.3433 -0.6176 -0.7076
vn -0.8076 -0.5886 0.0373
vn 0.6797 -0.7210 0.1349
vn 0.5318 -0.8173 0.2218
vn -0.4367 -0.3388 0.8333
vn -0.5992 -0.2574 0.7581
vn -0.3529 0.1557 0.9226
vn 0.7417 0.0157 0.6705
vn 0.8654 0.3748 0.3326
vn -0.5201 0.5520 0.6517
vn 0.8076 0.5886 -0.0373
vn 0.9159 0.3883 -0.1023
vn -0.9440 0.3053 -0.1252
vn -0.8097 0.5858 -0.0352
vn -0.8851 0.4635 0.0429
vn -0.8406 -0.0770 0.5361
vn -0.8014 0.1542 0.5778
vn -0.8289 0.4883 0.2730
vn -0.7970 0.3701 0.4773
vn -0.8413 -0.5377 0.0551
vn -0.9557 -0.2599 0.1380
vn -0.9877 -0.1418 -0.0664
vn -0.9832 0.0741 -0.1669
vn -0.7485 -0.1583 0.6440
vn -0.9448 0.0497 -0.3240
vn -0.9070 -0.4102 0.0958
vn -0.9509 -0.2476 -0.1856
vn -0.7324 0.6199 0.2817
vn -0.8296 -0.3761 0.4126
vn -0.6884 0.4573 0.5631
vn -0.8908 0.3680 -0.2665
vn -0.6945 0.1600 0.7014
vn 0.9028 -0.4251 -0.0656
vn 0.9138 -0.3454 0.2138
vn 0.9549 -0.2853 0.0829
vn 0.8249 -0.3426 -0.4497
vn 0.8531 -0.4470 -0.2690
vn 0.8289 -0.1517 -0.5385
vn 0.9895 -0.0809 0.1198
vn 0.9935 0.1099 0.0309
vn 0.9652 0.2143 -0.1497
vn 0.9156 0.1925 -0.3531
vn 0.7858 0.1280 -0.6051
vn 0.9283 0.3545 -0.1121
vn 0.9623 -0.0591 0.2654
vn 0.7372 -0.1583 -0.6568
vn 0.7713 -0.5720 -0.2793
vn 0.8408 -0.5413 0.0057
vn 0.9678 0.2083 0.1410
vn 0.8587 0.3239 -0.3971
vn 0.7317 -0.4257 -0.5324
usemtl Material_Barril
s 1
f 87/1/1 22/2/2 49/3/3
f 55/4/4 28/5/5 25/6/6
f 59/7/7 31/8/8 28/5/5
f 63/9/9 34/10/10 31/8/8
f 67/11/11 37/12/12 34/10/10
f 71/13/13 40/14/14 37/12/12
f 40/14/14 79/15/15 43/16/16
f 79/15/15 46/17/17 43/16/16
f 18/18/18 120/19/19 20/20/20
f 46/17/17 87/1/1 49/3/3
f 54/21/21 25/22/6 22/2/2
f 9/23/22 134/24/23 7/25/24
f 22/2/2 58/26/25 51/27/26
f 88/28/27 2/29/28 53/30/29
f 4/31/30 60/32/31 56/33/32
f 46/17/17 90/34/33 86/35/34
f 50/36/35 109/37/36 110/38/37
f 85/39/38 19/40/39 17/41/40
f 82/42/41 46/17/17 86/35/34
f 84/43/42 20/44/20 88/28/27
f 81/45/43 17/41/40 15/46/44
f 40/14/14 82/42/41 78/47/45
f 16/48/46 84/43/42 80/49/47
f 13/50/48 81/45/43 15/46/44
f 74/51/49 40/14/14 78/47/45
f 14/52/50 80/49/47 76/53/51
f 73/54/52 13/50/48 11/55/53
f 34/10/10 74/51/49 70/56/54
f 72/57/55 14/52/50 76/53/51
f 9/58/22 73/54/52 11/55/53
f 31/8/8 70/56/54 66/59/56
f 10/60/57 72/57/55 68/61/58
f 65/62/59 9/58/22 7/63/24
f 28/5/5 66/59/56 62/64/60
f 8/65/61 68/61/58 64/66/62
f 61/67/63 7/63/24 5/68/64
f 25/6/6 62/64/60 58/69/25
f 6/70/65 64/66/62 60/32/31
f 3/71/66 61/67/63 5/68/64
f 89/72/67 1/73/68 19/40/39
f 49/3/3 51/27/26 90/34/33
f 53/30/29 4/74/30 56/75/32
f 88/76/27 104/77/69 84/78/42
f 57/79/70 35/80/71 61/81/63
f 75/82/72 99/83/73 79/84/15
f 62/85/60 39/86/74 58/87/25
f 80/88/47 96/89/75 76/90/51
f 67/91/11 91/92/76 71/93/13
f 85/94/38 109/37/36 89/95/67
f 72/96/55 24/97/77 68/98/58
f 86/99/34 110/38/37 106/100/78
f 59/101/7 32/102/79 63/103/9
f 77/104/80 101/105/81 81/106/43
f 64/107/62 36/108/82 60/109/31
f 82/110/41 98/111/83 78/112/45
f 69/113/84 93/114/85 73/115/52
f 54/116/21 107/117/86 45/118/87
f 70/119/54 94/120/88 21/121/89
f 61/81/63 29/122/90 65/123/59
f 79/84/15 103/124/91 83/125/92
f 54/116/21 44/126/93 55/127/4
f 53/128/29 108/129/94 88/76/27
f 1/73/68 57/130/70 3/131/66
f 47/132/95 107/117/86 108/129/94
f 106/100/78 109/37/36 105/133/96
f 108/129/94 103/124/91 104/77/69
f 102/134/97 105/133/96 101/105/81
f 104/77/69 99/83/73 100/135/98
f 98/111/83 101/105/81 97/136/99
f 100/135/98 95/137/100 96/89/75
f 98/111/83 93/114/85 94/120/88
f 96/89/75 91/92/76 92/138/101
f 94/120/88 23/139/102 21/121/89
f 24/97/77 91/92/76 26/140/103
f 21/121/89 29/122/90 27/141/104
f 24/97/77 32/102/79 30/142/105
f 27/141/104 35/80/71 33/143/106
f 30/142/105 38/144/107 36/108/82
f 39/86/74 35/80/71 41/145/108
f 36/108/82 44/146/93 42/147/109
f 39/148/74 48/149/110 50/36/35
f 42/150/109 45/118/87 47/132/95
f 70/119/54 27/141/104 66/151/56
f 83/125/92 107/117/86 87/152/1
f 69/113/84 29/122/90 23/139/102
f 78/112/45 94/120/88 74/153/49
f 60/109/31 42/147/109 56/154/32
f 51/155/26 110/38/37 90/156/33
f 73/115/52 97/136/99 77/104/80
f 55/157/4 38/144/107 59/101/7
f 82/110/41 106/100/78 102/134/97
f 68/98/58 30/142/105 64/107/62
f 58/158/25 50/36/35 51/155/26
f 81/106/43 105/133/96 85/94/38
f 67/91/11 32/102/79 26/140/103
f 89/95/67 48/149/110 52/159/111
f 76/90/51 92/138/101 72/96/55
f 52/159/111 41/160/108 57/161/70
f 71/93/13 95/137/100 75/82/72
f 56/162/32 47/132/95 53/128/29
f 84/78/42 100/135/98 80/88/47
f 66/151/56 33/143/106 62/85/60
f 114/163/112 125/164/113 115/165/114
f 16/166/46 119/167/115 18/18/18
f 14/168/50 118/169/116 16/166/46
f 14/168/50 116/170/117 117/171/118
f 10/172/57 116/170/117 12/173/119
f 10/172/57 114/163/112 115/165/114
f 4/174/30 111/175/120 112/176/121
f 6/177/65 114/163/112 8/178/61
f 6/177/65 112/179/121 113/180/122
f 2/181/28 120/19/19 111/175/120
f 129/182/123 125/183/113 123/184/124
f 112/176/121 121/185/125 122/186/126
f 118/169/116 129/187/123 119/167/115
f 115/165/114 126/188/127 116/170/117
f 112/179/121 123/189/124 113/180/122
f 119/167/115 130/190/128 120/19/19
f 116/170/117 127/191/129 117/171/118
f 114/163/112 123/189/124 124/192/130
f 120/19/19 121/185/125 111/175/120
f 117/171/118 128/193/131 118/169/116
f 140/194/132 149/195/133 139/196/134
f 1/197/68 132/198/135 131/199/136
f 7/25/24 133/200/137 5/201/64
f 5/201/64 132/202/135 3/203/66
f 1/197/68 140/194/132 19/204/39
f 19/204/39 139/196/134 17/205/40
f 17/205/40 138/206/138 15/207/44
f 15/207/44 137/208/139 13/209/48
f 11/210/53 137/208/139 136/211/140
f 11/210/53 135/212/141 9/23/22
f 144/213/142 146/214/143 148/215/144
f 137/208/139 146/216/143 136/211/140
f 134/24/23 143/217/145 133/200/137
f 140/194/132 141/218/146 150/219/147
f 138/206/138 147/220/148 137/208/139
f 134/24/23 145/221/149 144/222/142
f 132/198/135 141/218/146 131/199/136
f 139/196/134 148/223/144 138/206/138
f 135/212/141 146/216/143 145/221/149
f 133/200/137 142/224/150 132/202/135
f 87/1/1 54/21/21 22/2/2
f 55/4/4 59/7/7 28/5/5
f 59/7/7 63/9/9 31/8/8
f 63/9/9 67/11/11 34/10/10
f 67/11/11 71/13/13 37/12/12
f 71/13/13 75/225/72 40/14/14
f 40/14/14 75/225/72 79/15/15
f 79/15/15 83/226/92 46/17/17
f 18/18/18 119/167/115 120/19/19
f 46/17/17 83/226/92 87/1/1
f 54/21/21 55/227/4 25/22/6
f 9/23/22 135/212/141 134/24/23
f 22/2/2 25/22/6 58/26/25
f 88/28/27 20/44/20 2/29/28
f 4/31/30 6/70/65 60/32/31
f 46/17/17 49/3/3 90/34/33
f 50/36/35 48/149/110 109/37/36
f 85/39/38 89/72/67 19/40/39
f 82/42/41 43/16/16 46/17/17
f 84/43/42 18/228/18 20/44/20
f 81/45/43 85/39/38 17/41/40
f 40/14/14 43/16/16 82/42/41
f 16/48/46 18/228/18 84/43/42
f 13/50/48 77/229/80 81/45/43
f 74/51/49 37/12/12 40/14/14
f 14/52/50 16/48/46 80/49/47
f 73/54/52 77/229/80 13/50/48
f 34/10/10 37/12/12 74/51/49
f 72/57/55 12/230/119 14/52/50
f 9/58/22 69/231/84 73/54/52
f 31/8/8 34/10/10 70/56/54
f 10/60/57 12/230/119 72/57/55
f 65/62/59 69/231/84 9/58/22
f 28/5/5 31/8/8 66/59/56
f 8/65/61 10/60/57 68/61/58
f 61/67/63 65/62/59 7/63/24
f 25/6/6 28/5/5 62/64/60
f 6/70/65 8/65/61 64/66/62
f 3/71/66 57/232/70 61/67/63
f 89/72/67 52/233/111 1/73/68
f 49/3/3 22/2/2 51/27/26
f 53/30/29 2/29/28 4/74/30
f 88/76/27 108/129/94 104/77/69
f 57/79/70 41/145/108 35/80/71
f 75/82/72 95/137/100 99/83/73
f 62/85/60 33/143/106 39/86/74
f 80/88/47 100/135/98 96/89/75
f 67/91/11 26/140/103 91/92/76
f 85/94/38 105/133/96 109/37/36
f 72/96/55 92/138/101 24/97/77
f 86/99/34 90/156/33 110/38/37
f 59/101/7 38/144/107 32/102/79
f 77/104/80 97/136/99 101/105/81
f 64/107/62 30/142/105 36/108/82
f 82/110/41 102/134/97 98/111/83
f 69/113/84 23/139/102 93/114/85
f 54/116/21 87/152/1 107/117/86
f 70/119/54 74/153/49 94/120/88
f 61/81/63 35/80/71 29/122/90
f 79/84/15 99/83/73 103/124/91
f 54/116/21 45/118/87 44/126/93
f 53/128/29 47/132/95 108/129/94
f 1/73/68 52/233/111 57/130/70
f 47/132/95 45/118/87 107/117/86
f 106/100/78 110/38/37 109/37/36
f 108/129/94 107/117/86 103/124/91
f 102/134/97 106/100/78 105/133/96
f 104/77/69 103/124/91 99/83/73
f 98/111/83 102/134/97 101/105/81
f 100/135/98 99/83/73 95/137/100
f 98/111/83 97/136/99 93/114/85
f 96/89/75 95/137/100 91/92/76
f 94/120/88 93/114/85 23/139/102
f 24/97/77 92/138/101 91/92/76
f 21/121/89 23/139/102 29/122/90
f 24/97/77 26/140/103 32/102/79
f 27/141/104 29/122/90 35/80/71
f 30/142/105 32/102/79 38/144/107
f 39/86/74 33/143/106 35/80/71
f 36/108/82 38/144/107 44/146/93
f 39/148/74 41/160/108 48/149/110
f 42/150/109 44/126/93 45/118/87
f 70/119/54 21/121/89 27/141/104
f 83/125/92 103/124/91 107/117/86
f 69/113/84 65/123/59 29/122/90
f 78/112/45 98/111/83 94/120/88
f 60/109/31 36/108/82 42/147/109
f 51/155/26 50/36/35 110/38/37
f 73/115/52 93/114/85 97/136/99
f 55/157/4 44/146/93 38/144/107
f 82/110/41 86/99/34 106/100/78
f 68/98/58 24/97/77 30/142/105
f 58/158/25 39/148/74 50/36/35
f 81/106/43 101/105/81 105/133/96
f 67/91/11 63/103/9 32/102/79
f 89/95/67 109/37/36 48/149/110
f 76/90/51 96/89/75 92/138/101
f 52/159/111 48/149/110 41/160/108
f 71/93/13 91/92/76 95/137/100
f 56/162/32 42/150/109 47/132/95
f 84/78/42 104/77/69 100/135/98
f 66/151/56 27/141/104 33/143/106
f 114/163/112 124/192/130 125/164/113
f 16/166/46 118/169/116 119/167/115
f 14/168/50 117/171/118 118/169/116
f 14/168/50 12/173/119 116/170/117
f 10/172/57 115/165/114 116/170/117
f 10/172/57 8/178/61 114/163/112
f 4/174/30 2/181/28 111/175/120
f 6/177/65 113/180/122 114/163/112
f 6/177/65 4/234/30 112/179/121
f 2/181/28 20/20/20 120/19/19
f 123/184/124 122/235/126 121/236/125
f 121/236/125 130/237/128 123/184/124
f 130/237/128 129/182/123 123/184/124
f 129/182/123 128/238/131 127/239/129
f 127/239/129 126/240/127 125/183/113
f 125/183/113 124/241/130 123/184/124
f 129/182/123 127/239/129 125/183/113
f 112/176/121 111/175/120 121/185/125
f 118/169/116 128/193/131 129/187/123
f 115/165/114 125/164/113 126/188/127
f 112/179/121 122/242/126 123/189/124
f 119/167/115 129/187/123 130/190/128
f 116/170/117 126/188/127 127/191/129
f 114/163/112 113/180/122 123/189/124
f 120/19/19 130/190/128 121/185/125
f 117/171/118 127/191/129 128/193/131
f 140/194/132 150/219/147 149/195/133
f 1/197/68 3/243/66 132/198/135
f 7/25/24 134/24/23 133/200/137
f 5/201/64 133/200/137 132/202/135
f 1/197/68 131/199/136 140/194/132
f 19/204/39 140/194/132 139/196/134
f 17/205/40 139/196/134 138/206/138
f 15/207/44 138/206/138 137/208/139
f 11/210/53 13/209/48 137/208/139
f 11/210/53 136/211/140 135/212/141
f 150/244/147 141/245/146 144/213/142
f 141/245/146 142/246/150 144/213/142
f 142/246/150 143/247/145 144/213/142
f 144/213/142 145/248/149 146/214/143
f 146/214/143 147/249/148 148/215/144
f 148/215/144 149/250/133 144/213/142
f 149/250/133 150/244/147 144/213/142
f 137/208/139 147/220/148 146/216/143
f 134/24/23 144/222/142 143/217/145
f 140/194/132 131/199/136 141/218/146
f 138/206/138 148/223/144 147/220/148
f 134/24/23 135/212/141 145/221/149
f 132/198/135 142/251/150 141/218/146
f 139/196/134 149/195/133 148/223/144
f 135/212/141 136/211/140 146/216/143
f 133/200/137 143/217/145 142/224/150
