# Blender v3.0.0 OBJ File: ''
# www.blender.org
mtllib porte.mtl
o Plane_Plane.002
v 17.716831 3.095385 2.914545
v 17.716831 -0.188927 2.914545
v 17.716831 3.095385 -0.108991
v 17.716831 -0.188927 -0.108991
v 17.292219 2.797182 2.577811
v 17.420616 3.095385 2.914545
v 17.292219 -0.060529 2.782424
v 17.420618 -0.188927 2.914545
v 17.420618 3.095385 -0.108991
v 17.292219 2.797182 0.227742
v 17.292219 -0.060529 0.023130
v 17.420618 -0.188927 -0.108991
v 17.716831 2.217853 2.914545
v 17.716831 2.217853 -0.108991
v 17.292219 2.381279 2.466772
v 17.420618 2.217853 2.914545
v 17.292219 2.381279 0.338781
v 17.420618 2.217853 -0.108991
v 17.292219 2.966986 0.023130
v 17.292219 2.966986 2.782424
v 17.292219 1.413402 1.115209
v 17.292219 1.413402 1.690344
v 17.198206 2.797182 0.227742
v 17.198206 2.797182 2.577811
v 17.198206 2.636971 0.227742
v 17.198206 2.636971 2.577811
v 17.716831 -0.007559 2.914545
v 17.292219 1.055182 1.690345
v 17.420618 -0.007559 -0.108991
v 17.716831 -0.007559 -0.108991
v 17.420618 -0.007559 2.914545
v 17.292219 1.055182 1.115209
v 17.292219 0.489614 0.196934
v 17.292219 1.978970 0.196934
v 17.292219 1.978970 2.608620
v 17.292219 0.489614 2.608620
v 17.292219 1.234292 1.115209
v 17.292219 1.564924 1.402777
v 17.292219 1.234292 1.690345
v 17.292219 0.903661 1.402777
v 17.292219 1.234292 0.830902
v 17.292219 1.584957 0.830902
v 17.292219 1.886282 1.402777
v 17.292219 1.584957 1.974651
v 17.292219 1.234292 1.974651
v 17.292219 0.883627 1.974651
v 17.292219 0.582302 1.402777
v 17.292219 0.988503 1.004707
v 17.353743 1.234292 1.402777
v 17.353743 1.234292 1.690345
v 17.353743 1.234292 1.115209
v 17.353743 1.564924 1.402777
v 17.353743 0.903661 1.402777
v 17.353743 1.413402 1.115209
v 17.353743 1.413402 1.690344
v 17.353743 1.055182 1.690345
v 17.353743 1.055182 1.115209
v 17.241608 1.234292 1.004707
v 17.241608 1.480081 1.004707
v 17.241608 1.689827 1.402777
v 17.241608 1.480081 1.800847
v 17.241608 1.234292 1.800847
v 17.241608 0.988503 1.800847
v 17.241608 0.778757 1.402777
v 17.241608 0.988503 1.004707
v 17.241608 1.234292 1.115209
v 17.241608 1.413402 1.115209
v 17.241608 1.564924 1.402777
v 17.241608 1.413402 1.690344
v 17.241608 1.234292 1.690345
v 17.241608 1.055182 1.690345
v 17.241608 0.903661 1.402777
v 17.241608 1.055182 1.115209
v 17.292219 0.315810 0.023130
v 17.292219 2.232023 0.275709
v 17.292219 2.232023 2.529845
v 17.292219 0.315810 2.782424
v 17.292219 1.234292 1.004707
v 17.292219 1.480081 1.004707
v 17.292219 1.689827 1.402777
v 17.292219 1.480081 1.800847
v 17.292219 1.234292 1.800847
v 17.292219 0.988503 1.800847
v 17.292219 0.778757 1.402777
v 17.292219 0.883627 0.830902
v 17.317623 0.710373 0.319653
v 17.317623 0.951846 0.708183
v 17.317623 1.516738 0.708183
v 17.317623 1.758211 0.319653
v 17.317623 1.516738 2.097370
v 17.317623 1.758211 2.485901
v 17.317623 0.951846 2.097370
v 17.317623 0.710373 2.485901
v 17.317623 1.234292 0.708183
v 17.317623 1.886282 1.402777
v 17.317623 1.234292 2.097370
v 17.317623 0.582302 1.402777
v 17.317623 0.489614 0.196934
v 17.317623 0.883627 0.830902
v 17.317623 1.584957 0.830902
v 17.317623 1.978970 0.196934
v 17.317623 1.584957 1.974651
v 17.317623 1.978970 2.608620
v 17.317623 0.883627 1.974651
v 17.317623 0.489614 2.608620
v 17.317623 1.234292 0.830902
v 17.317623 1.234292 1.974651
v 17.234543 0.710373 0.319653
v 17.234543 0.951846 0.708183
v 17.234543 1.516738 0.708183
v 17.234543 1.758211 0.319653
v 17.234543 1.516738 2.097370
v 17.234543 1.758211 2.485901
v 17.234543 0.951846 2.097370
v 17.234543 0.710373 2.485901
v 17.234543 1.234292 0.708183
v 17.234543 1.234292 2.097370
v 17.292219 2.152775 0.023130
v 17.292219 2.152774 2.782424
v 17.292219 2.636971 0.227742
v 17.292219 2.636971 2.577811
v 17.161125 2.232023 0.275708
v 17.161125 2.232023 2.529845
v 17.161125 2.381279 0.338781
v 17.161125 2.381279 2.466772
v 17.214634 0.315810 2.673277
v 17.214634 -0.060529 2.673277
v 17.214634 -0.060529 0.132276
v 17.214634 0.315810 0.132276
vt 0.922101 0.520973
vt 0.871344 0.001717
vt 0.922101 0.001717
vt 0.947529 0.001717
vt 0.998286 0.152383
vt 0.947529 0.152383
vt 0.832621 0.520973
vt 0.781864 0.001717
vt 0.832621 0.001717
vt 0.722643 0.419330
vt 0.773400 0.450469
vt 0.722643 0.450469
vt 0.944102 0.498283
vt 0.944102 0.024407
vt 0.497165 0.023768
vt 0.519805 0.032865
vt 0.497165 0.088400
vt 0.854622 0.498283
vt 0.854622 0.024407
vt 0.024353 0.543707
vt 0.001714 0.415052
vt 0.024353 0.403876
vt 0.478463 0.023768
vt 0.927381 0.928003
vt 0.911271 0.524408
vt 0.927381 0.524408
vt 0.024353 0.088400
vt 0.001714 0.032865
vt 0.497165 0.543707
vt 0.519805 0.415053
vt 0.519805 0.565758
vt 0.722643 0.832556
vt 0.773400 0.983221
vt 0.722643 0.983221
vt 0.998286 0.534469
vt 0.947529 0.534469
vt 0.462104 0.514545
vt 0.059414 0.514545
vt 0.059414 0.487031
vt 0.462104 0.487031
vt 0.307457 0.686191
vt 0.329921 0.712066
vt 0.307457 0.712066
vt 0.809317 0.524407
vt 0.781864 0.928003
vt 0.781864 0.524407
vt 0.456861 0.671400
vt 0.472971 0.698907
vt 0.456861 0.698907
vt 0.349457 0.713698
vt 0.333348 0.686191
vt 0.349457 0.686191
vt 0.891735 0.524408
vt 0.907844 0.928003
vt 0.891735 0.928003
vt 0.947529 0.565609
vt 0.998286 0.565609
vt 0.024353 0.023768
vt 0.001714 0.001717
vt 0.596760 0.677459
vt 0.586218 0.646707
vt 0.596760 0.646707
vt 0.497165 0.403876
vt 0.773400 0.832555
vt 0.719216 0.706914
vt 0.714863 0.646707
vt 0.719216 0.646707
vt 0.888308 0.938585
vt 0.883955 0.524408
vt 0.888308 0.524408
vt 0.719216 0.767120
vt 0.714863 0.706914
vt 0.582791 0.744920
vt 0.578438 0.646707
vt 0.582791 0.646707
vt 0.617532 0.677459
vt 0.628074 0.708211
vt 0.617532 0.708211
vt 0.596760 0.708211
vt 0.586218 0.677459
vt 0.617532 0.646707
vt 0.628074 0.677459
vt 0.455304 0.618579
vt 0.463976 0.569193
vt 0.463976 0.618579
vt 0.710826 0.731107
vt 0.702153 0.688907
vt 0.710826 0.688907
vt 0.702153 0.646707
vt 0.710826 0.646707
vt 0.608859 0.646707
vt 0.476076 0.618579
vt 0.467404 0.569193
vt 0.476076 0.569193
vt 0.605432 0.708211
vt 0.463976 0.667965
vt 0.455304 0.667965
vt 0.505606 0.637556
vt 0.514278 0.705920
vt 0.505606 0.705920
vt 0.330843 0.625974
vt 0.281567 0.656734
vt 0.281567 0.625974
vt 0.281567 0.595215
vt 0.330843 0.569193
vt 0.380118 0.595215
vt 0.380118 0.656734
vt 0.380118 0.625974
vt 0.444762 0.569193
vt 0.455304 0.569193
vt 0.486618 0.618579
vt 0.444762 0.618579
vt 0.486618 0.667965
vt 0.476076 0.667965
vt 0.020648 0.678185
vt 0.001714 0.647425
vt 0.020648 0.647425
vt 0.119199 0.678185
vt 0.069924 0.725658
vt 0.069924 0.704207
vt 0.119199 0.616665
vt 0.138134 0.647425
vt 0.119199 0.647425
vt 0.069924 0.569193
vt 0.138134 0.605214
vt 0.020648 0.616665
vt 0.001714 0.605214
vt 0.001714 0.689636
vt 0.138134 0.689636
vt 0.069924 0.590643
vt 0.558558 0.715071
vt 0.567230 0.783434
vt 0.558558 0.783434
vt 0.605432 0.646707
vt 0.605432 0.677459
vt 0.558558 0.646707
vt 0.567230 0.715071
vt 0.444762 0.713600
vt 0.453434 0.755800
vt 0.444762 0.755800
vt 0.467404 0.618579
vt 0.453434 0.671400
vt 0.453434 0.713600
vt 0.505606 0.569193
vt 0.514278 0.637556
vt 0.608859 0.677459
vt 0.054135 0.374027
vt 0.054135 0.118249
vt 0.467383 0.374027
vt 0.467383 0.118249
vt 0.719216 0.531301
vt 0.689434 0.489090
vt 0.719216 0.471079
vt 0.621224 0.419330
vt 0.553013 0.489090
vt 0.523232 0.471079
vt 0.523232 0.531301
vt 0.553013 0.573512
vt 0.523232 0.591523
vt 0.621224 0.643272
vt 0.621224 0.609534
vt 0.689434 0.573512
vt 0.689434 0.531301
vt 0.621224 0.453068
vt 0.553013 0.531301
vt 0.719216 0.591523
vt 0.666827 0.646707
vt 0.681063 0.713432
vt 0.666827 0.713432
vt 0.762554 0.208806
vt 0.778437 0.001717
vt 0.778437 0.415895
vt 0.409436 0.569193
vt 0.423672 0.749098
vt 0.409436 0.749098
vt 0.539114 0.208806
vt 0.523232 0.415895
vt 0.523232 0.001717
vt 0.502178 0.824904
vt 0.497825 0.569193
vt 0.502178 0.569193
vt 0.575010 0.744920
vt 0.570657 0.646707
vt 0.575010 0.646707
vt 0.486618 0.791813
vt 0.482265 0.731606
vt 0.486618 0.731606
vt 0.575010 0.843132
vt 0.570657 0.744920
vt 0.876175 0.524408
vt 0.880528 0.938585
vt 0.876175 0.938585
vt 0.482265 0.671400
vt 0.486618 0.671400
vt 0.582791 0.843132
vt 0.578438 0.744920
vt 0.494398 0.824904
vt 0.490045 0.569193
vt 0.494398 0.569193
vt 0.561059 0.394819
vt 0.590747 0.307019
vt 0.602436 0.328094
vt 0.740609 0.394819
vt 0.710922 0.307019
vt 0.740609 0.022793
vt 0.710922 0.110594
vt 0.699232 0.089518
vt 0.561059 0.022793
vt 0.590747 0.110594
vt 0.699232 0.328094
vt 0.650834 0.307019
vt 0.602436 0.089518
vt 0.650834 0.110594
vt 0.650834 0.328094
vt 0.650834 0.089518
vt 0.278140 0.659169
vt 0.211564 0.749146
vt 0.211564 0.569193
vt 0.141561 0.659169
vt 0.208137 0.569193
vt 0.208137 0.749146
vt 0.540895 0.695201
vt 0.555131 0.743695
vt 0.540895 0.743695
vt 0.427099 0.569193
vt 0.441335 0.749098
vt 0.427099 0.749098
vt 0.649164 0.646707
vt 0.663400 0.713432
vt 0.649164 0.713432
vt 0.537468 0.695201
vt 0.523232 0.646707
vt 0.537468 0.646707
vt 0.540895 0.646707
vt 0.555131 0.695201
vt 0.684490 0.713432
vt 0.698726 0.646707
vt 0.698726 0.713432
vt 0.631501 0.646707
vt 0.645737 0.713432
vt 0.631501 0.713432
vt 0.537468 0.743695
vt 0.523232 0.695201
vt 0.067633 0.417486
vt 0.453885 0.417486
vt 0.078441 0.443119
vt 0.443077 0.443119
vt 0.812744 0.535239
vt 0.838319 0.911528
vt 0.812744 0.900696
vt 0.841746 0.524407
vt 0.864210 0.911528
vt 0.841746 0.911528
vt 0.281567 0.686191
vt 0.304030 0.712066
vt 0.281567 0.712066
vt 0.383545 0.569193
vt 0.406008 0.934649
vt 0.383545 0.934649
vt 0.043055 0.023768
vt 0.478463 0.088400
vt 0.043055 0.088400
vt 0.867917 0.479538
vt 0.944102 0.998283
vt 0.930808 0.543152
vt 0.944102 0.524408
vt 0.871344 0.520973
vt 0.998286 0.001717
vt 0.781864 0.520973
vt 0.773400 0.419330
vt 0.519805 0.001717
vt 0.001714 0.565758
vt 0.911272 0.928003
vt 0.329921 0.686191
vt 0.809317 0.928003
vt 0.472971 0.671400
vt 0.333348 0.713698
vt 0.907844 0.524408
vt 0.883955 0.938585
vt 0.714863 0.767120
vt 0.586218 0.708211
vt 0.628074 0.646707
vt 0.702153 0.731107
vt 0.330843 0.682756
vt 0.486618 0.569193
vt 0.444762 0.667965
vt 0.567230 0.646707
vt 0.467404 0.667965
vt 0.444762 0.671400
vt 0.514278 0.569193
vt 0.608859 0.708211
vt 0.681063 0.646707
vt 0.423672 0.569193
vt 0.497825 0.824904
vt 0.482265 0.791813
vt 0.570657 0.843132
vt 0.880528 0.524408
vt 0.578438 0.843132
vt 0.490045 0.824904
vt 0.278140 0.610663
vt 0.278140 0.707676
vt 0.141561 0.707676
vt 0.141561 0.610663
vt 0.441335 0.569193
vt 0.663400 0.646707
vt 0.555131 0.646707
vt 0.684490 0.646707
vt 0.645737 0.646707
vt 0.523232 0.743695
vt 0.838319 0.524407
vt 0.864209 0.524407
vt 0.304030 0.686191
vt 0.406008 0.569193
vt 0.867917 0.043152
vt 0.930808 0.979538
vn -0.3936 0.6493 0.6507
vn 0.0000 0.7071 -0.7071
vn -0.3936 0.6494 -0.6507
vn 0.0000 0.0000 -1.0000
vn -0.3893 0.0000 -0.9211
vn -0.3936 -0.6493 -0.6507
vn -0.0000 -0.7071 0.7071
vn -0.3936 -0.6494 0.6507
vn -0.0000 0.0000 1.0000
vn -0.3893 0.0000 0.9211
vn -0.9072 0.3009 0.2939
vn -0.9072 0.3009 -0.2939
vn -0.8035 -0.3970 0.4437
vn -0.8502 0.1029 0.5163
vn -0.8035 -0.3970 -0.4437
vn -0.9266 -0.0000 -0.3761
vn -0.7283 -0.6446 0.2325
vn -0.9045 -0.3015 0.3015
vn -0.5774 -0.5774 -0.5774
vn -0.9045 -0.3015 -0.3015
vn -0.8502 0.1029 -0.5163
vn 0.0000 0.7071 0.7071
vn -0.9045 0.3015 0.3015
vn -0.9045 0.3015 -0.3015
vn -0.9469 -0.1777 -0.2680
vn -0.6013 0.6659 -0.4415
vn -0.8548 0.4325 -0.2868
vn -0.5774 0.5774 0.5774
vn -0.5774 0.5774 -0.5774
vn -0.5774 -0.5774 0.5774
vn -0.0000 -0.7071 -0.7071
vn -0.6072 -0.4105 0.6803
vn 0.0000 -0.5166 0.8562
vn -0.9266 -0.0000 0.3761
vn -0.7071 0.0000 0.7071
vn -0.8437 0.2774 0.4596
vn -0.6072 0.4105 0.6803
vn -0.5774 0.5773 0.5774
vn -0.6157 0.7880 0.0000
vn -0.8437 0.2773 -0.4596
vn -0.6072 0.4105 -0.6803
vn 0.0000 0.5166 -0.8562
vn -0.0000 0.5166 0.8562
vn 0.0000 -0.5166 -0.8562
vn -0.7071 0.0000 -0.7071
vn -0.0000 1.0000 0.0000
vn -0.8285 0.5600 -0.0000
vn -0.8437 -0.2773 -0.4596
vn -0.8437 0.2774 -0.4596
vn -0.8437 -0.2774 -0.4596
vn 0.0000 -1.0000 -0.0000
vn -0.8437 -0.2774 0.4596
vn -0.8285 -0.5600 0.0000
vn -0.6072 -0.4105 -0.6803
vn -1.0000 0.0000 0.0000
vn -0.6157 -0.7880 0.0000
vn -0.8437 0.2773 0.4596
vn -0.9605 0.2432 -0.1352
vn -0.6124 0.3841 0.6910
vn -0.8344 0.2678 0.4818
vn -0.5774 -0.5773 -0.5774
vn -0.9605 -0.2432 -0.1352
vn -0.5536 0.7279 -0.4046
vn -0.5774 0.5774 -0.5773
vn -0.8437 -0.2773 0.4596
vn -0.8344 -0.2678 0.4818
vn -0.9605 0.2432 0.1352
vn -0.8344 0.2678 -0.4818
vn -0.9605 -0.2432 0.1352
vn -0.8344 -0.2678 -0.4818
vn -0.5536 -0.7279 -0.4046
vn -0.5536 -0.7279 0.4046
vn -0.5536 0.7279 0.4046
vn -0.6124 -0.3841 0.6910
vn -0.6124 0.3841 -0.6910
vn -0.6124 -0.3841 -0.6910
vn -0.9469 -0.1777 0.2680
vn -0.8548 0.4325 0.2868
vn -0.5592 -0.4581 0.6910
vn -0.6013 0.6659 0.4415
vn -0.5592 -0.4581 -0.6910
vn -0.7283 -0.6446 -0.2325
vn -0.7283 0.6446 0.2325
vn -0.7283 0.6446 -0.2325
usemtl Material_Porta
s 1
f 6/1/1 3/2/2 9/3/3
f 9/4/3 14/5/4 18/6/5
f 12/7/6 2/8/7 8/9/8
f 8/10/8 27/11/9 31/12/10
f 20/13/11 9/3/3 19/14/12
f 7/15/13 31/16/10 77/17/14
f 11/18/15 8/9/8 7/19/13
f 19/20/12 18/21/5 118/22/16
f 77/17/14 127/23/17 7/15/13
f 121/24/18 25/25/19 120/26/20
f 74/27/21 18/21/5 29/28/5
f 20/29/11 16/30/10 6/31/1
f 16/32/10 1/33/22 6/34/1
f 18/6/5 30/35/4 29/36/5
f 5/37/23 19/20/12 10/38/24
f 120/39/20 19/20/12 118/22/16
f 121/40/18 20/29/11 5/37/23
f 75/41/25 124/42/26 17/43/27
f 25/44/19 24/45/28 23/46/29
f 120/47/20 23/48/29 10/49/24
f 5/50/23 26/51/30 121/52/18
f 10/53/24 24/54/28 5/55/23
f 12/56/6 30/35/4 4/57/31
f 11/58/15 29/28/5 12/59/6
f 37/60/9 54/61/32 21/62/33
f 77/17/14 16/30/10 119/63/34
f 31/12/10 13/64/9 16/32/10
f 45/65/35 102/66/36 44/67/37
f 36/68/24 98/69/38 33/70/23
f 46/71/32 107/72/35 45/65/35
f 43/73/39 100/74/40 42/75/41
f 39/76/4 56/77/41 28/78/42
f 32/79/43 51/80/35 37/60/9
f 22/81/44 50/82/45 39/76/4
f 40/83/46 73/84/36 72/85/47
f 48/86/48 58/87/45 78/88/45
f 78/88/45 59/89/41 79/90/49
f 39/76/4 69/91/50 22/81/44
f 38/92/51 67/93/52 21/94/33
f 37/60/9 73/95/36 32/79/43
f 40/83/46 71/96/49 28/97/42
f 84/98/53 65/99/54 48/100/48
f 49/101/55 56/102/41 50/103/45
f 49/101/55 55/104/54 52/105/56
f 54/106/32 49/101/55 52/105/56
f 57/107/37 49/101/55 51/108/35
f 40/83/46 57/109/37 32/110/43
f 21/94/33 52/111/56 38/92/51
f 28/97/42 53/112/39 40/83/46
f 38/92/51 55/113/54 22/114/44
f 67/115/52 58/116/45 66/117/35
f 69/118/50 60/119/39 68/120/53
f 71/121/49 62/122/35 70/123/45
f 71/121/49 64/124/56 63/125/32
f 73/126/36 58/116/45 65/127/54
f 67/115/52 60/119/39 59/128/41
f 69/118/50 62/122/35 61/129/37
f 73/126/36 64/124/56 72/130/47
f 80/131/47 61/132/37 81/133/57
f 37/60/9 67/134/52 66/135/35
f 79/136/49 60/137/39 80/131/47
f 82/138/35 63/139/32 83/140/52
f 22/114/44 68/141/53 38/92/51
f 82/138/35 61/142/37 62/143/35
f 83/144/52 64/145/56 84/98/53
f 28/78/42 70/146/45 39/76/4
f 34/147/18 74/27/21 33/148/23
f 35/149/20 118/22/16 34/147/18
f 36/150/24 119/63/34 35/149/20
f 33/148/23 77/17/14 36/150/24
f 41/151/45 79/152/49 42/153/41
f 43/154/39 81/155/57 44/156/37
f 45/157/35 83/158/52 46/159/32
f 47/160/56 83/158/52 84/161/53
f 41/151/45 48/162/48 78/163/45
f 43/154/39 79/152/49 80/164/47
f 45/157/35 81/155/57 82/165/35
f 47/160/56 48/162/48 85/166/54
f 89/167/58 110/168/59 88/169/60
f 95/170/47 103/171/61 101/172/30
f 86/173/62 111/174/63 89/175/58
f 97/176/53 98/177/38 105/178/64
f 33/179/23 101/180/30 34/181/18
f 47/182/56 104/183/65 46/184/32
f 42/185/41 106/186/45 41/187/45
f 85/188/54 97/189/53 47/182/56
f 34/190/18 103/191/61 35/192/20
f 41/187/45 99/193/50 85/194/54
f 44/195/37 95/196/47 43/73/39
f 35/197/20 105/198/64 36/199/24
f 86/200/62 99/201/50 87/202/66
f 89/203/58 100/204/40 101/172/30
f 91/205/67 102/206/36 90/207/68
f 93/208/69 104/209/65 105/178/64
f 89/203/58 98/177/38 86/200/62
f 93/208/69 103/171/61 91/205/67
f 88/210/60 106/211/45 100/204/40
f 92/212/70 107/213/35 104/209/65
f 87/202/66 106/211/45 94/214/35
f 90/207/68 107/213/35 96/215/45
f 116/216/35 111/217/63 108/218/71
f 117/219/45 115/220/72 113/221/73
f 94/222/35 109/223/74 87/224/66
f 91/225/67 115/226/72 93/227/69
f 90/228/68 113/229/73 91/230/67
f 96/231/45 112/232/75 90/233/68
f 88/234/60 116/235/35 94/222/35
f 92/236/70 115/237/72 114/238/76
f 87/239/66 108/240/71 86/241/62
f 92/242/70 117/243/45 96/231/45
f 75/244/25 119/63/34 76/245/77
f 17/246/27 121/40/18 120/39/20
f 17/246/27 118/22/16 75/244/25
f 15/247/78 119/63/34 121/40/18
f 124/248/26 123/249/79 125/250/80
f 76/251/77 122/252/81 75/253/25
f 15/254/78 123/255/79 76/256/77
f 17/257/27 125/258/80 15/259/78
f 128/260/82 126/261/83 129/262/84
f 11/58/15 129/262/84 74/27/21
f 7/19/13 128/263/82 11/18/15
f 74/264/21 126/265/83 77/266/14
f 6/1/1 1/267/22 3/2/2
f 9/4/3 3/268/2 14/5/4
f 12/7/6 4/269/31 2/8/7
f 8/10/8 2/270/7 27/11/9
f 20/13/11 6/1/1 9/3/3
f 7/15/13 8/271/8 31/16/10
f 11/18/15 12/7/6 8/9/8
f 19/20/12 9/272/3 18/21/5
f 77/17/14 126/261/83 127/23/17
f 121/24/18 26/273/30 25/25/19
f 74/27/21 118/22/16 18/21/5
f 20/29/11 119/63/34 16/30/10
f 16/32/10 13/64/9 1/33/22
f 18/6/5 14/5/4 30/35/4
f 5/37/23 20/29/11 19/20/12
f 120/39/20 10/38/24 19/20/12
f 121/40/18 119/63/34 20/29/11
f 75/41/25 122/274/81 124/42/26
f 25/44/19 26/275/30 24/45/28
f 120/47/20 25/276/19 23/48/29
f 5/50/23 24/277/28 26/51/30
f 10/53/24 23/278/29 24/54/28
f 12/56/6 29/36/5 30/35/4
f 11/58/15 74/27/21 29/28/5
f 37/60/9 51/80/35 54/61/32
f 77/17/14 31/16/10 16/30/10
f 31/12/10 27/11/9 13/64/9
f 45/65/35 107/72/35 102/66/36
f 36/68/24 105/279/64 98/69/38
f 46/71/32 104/280/65 107/72/35
f 43/73/39 95/196/47 100/74/40
f 39/76/4 50/82/45 56/77/41
f 32/79/43 57/281/37 51/80/35
f 22/81/44 55/282/54 50/82/45
f 40/83/46 32/110/43 73/84/36
f 48/86/48 65/283/54 58/87/45
f 78/88/45 58/87/45 59/89/41
f 39/76/4 70/146/45 69/91/50
f 38/92/51 68/141/53 67/93/52
f 37/60/9 66/135/35 73/95/36
f 40/83/46 72/85/47 71/96/49
f 84/98/53 64/145/56 65/99/54
f 49/101/55 53/284/39 56/102/41
f 49/101/55 50/103/45 55/104/54
f 54/106/32 51/108/35 49/101/55
f 57/107/37 53/284/39 49/101/55
f 40/83/46 53/112/39 57/109/37
f 21/94/33 54/285/32 52/111/56
f 28/97/42 56/286/41 53/112/39
f 38/92/51 52/111/56 55/113/54
f 67/115/52 59/128/41 58/116/45
f 69/118/50 61/129/37 60/119/39
f 71/121/49 63/125/32 62/122/35
f 71/121/49 72/130/47 64/124/56
f 73/126/36 66/117/35 58/116/45
f 67/115/52 68/120/53 60/119/39
f 69/118/50 70/123/45 62/122/35
f 73/126/36 65/127/54 64/124/56
f 80/131/47 60/137/39 61/132/37
f 37/60/9 21/62/33 67/134/52
f 79/136/49 59/287/41 60/137/39
f 82/138/35 62/143/35 63/139/32
f 22/114/44 69/288/50 68/141/53
f 82/138/35 81/289/57 61/142/37
f 83/144/52 63/290/32 64/145/56
f 28/78/42 71/291/49 70/146/45
f 34/147/18 118/22/16 74/27/21
f 35/149/20 119/63/34 118/22/16
f 36/150/24 77/17/14 119/63/34
f 33/148/23 74/27/21 77/17/14
f 41/151/45 78/163/45 79/152/49
f 43/154/39 80/164/47 81/155/57
f 45/157/35 82/165/35 83/158/52
f 47/160/56 46/159/32 83/158/52
f 41/151/45 85/166/54 48/162/48
f 43/154/39 42/153/41 79/152/49
f 45/157/35 44/156/37 81/155/57
f 47/160/56 84/161/53 48/162/48
f 89/167/58 111/292/63 110/168/59
f 101/172/30 100/204/40 95/170/47
f 95/170/47 102/206/36 103/171/61
f 86/173/62 108/293/71 111/174/63
f 105/178/64 104/209/65 97/176/53
f 97/176/53 99/201/50 98/177/38
f 33/179/23 98/294/38 101/180/30
f 47/182/56 97/189/53 104/183/65
f 42/185/41 100/295/40 106/186/45
f 85/188/54 99/296/50 97/189/53
f 34/190/18 101/297/30 103/191/61
f 41/187/45 106/186/45 99/193/50
f 44/195/37 102/298/36 95/196/47
f 35/197/20 103/299/61 105/198/64
f 86/200/62 98/177/38 99/201/50
f 89/203/58 88/210/60 100/204/40
f 91/205/67 103/171/61 102/206/36
f 93/208/69 92/212/70 104/209/65
f 89/203/58 101/172/30 98/177/38
f 93/208/69 105/178/64 103/171/61
f 88/210/60 94/214/35 106/211/45
f 92/212/70 96/215/45 107/213/35
f 87/202/66 99/201/50 106/211/45
f 90/207/68 102/206/36 107/213/35
f 108/218/71 109/300/74 116/216/35
f 116/216/35 110/301/59 111/217/63
f 113/221/73 112/302/75 117/219/45
f 117/219/45 114/303/76 115/220/72
f 94/222/35 116/235/35 109/223/74
f 91/225/67 113/304/73 115/226/72
f 90/228/68 112/305/75 113/229/73
f 96/231/45 117/243/45 112/232/75
f 88/234/60 110/306/59 116/235/35
f 92/236/70 93/307/69 115/237/72
f 87/239/66 109/308/74 108/240/71
f 92/242/70 114/309/76 117/243/45
f 75/244/25 118/22/16 119/63/34
f 17/246/27 15/247/78 121/40/18
f 17/246/27 120/39/20 118/22/16
f 15/247/78 76/245/77 119/63/34
f 124/248/26 122/310/81 123/249/79
f 76/251/77 123/311/79 122/252/81
f 15/254/78 125/312/80 123/255/79
f 17/257/27 124/313/26 125/258/80
f 128/260/82 127/23/17 126/261/83
f 11/58/15 128/260/82 129/262/84
f 7/19/13 127/314/17 128/263/82
f 74/264/21 129/315/84 126/265/83
