# Blender v3.0.0 OBJ File: ''
# www.blender.org
mtllib table_int.mtl
o Cube.001_Cube.018
v -6.882278 -0.989951 -0.115354
v -6.882278 -0.947944 -0.089125
v -6.924285 -0.947944 -0.115354
v -6.882278 -0.977647 -0.096807
v -6.906531 -0.972197 -0.100211
v -6.911982 -0.947944 -0.096807
v -6.911982 -0.977647 -0.115354
v -6.882278 0.968042 -0.089125
v -6.882278 1.010049 -0.115354
v -6.924285 0.968042 -0.115354
v -6.882278 0.997746 -0.096808
v -6.906531 0.992295 -0.100211
v -6.911982 0.997746 -0.115354
v -6.911982 0.968042 -0.096808
v -6.882278 -0.989951 -1.311698
v -6.924285 -0.947944 -1.311698
v -6.882278 -0.947944 -1.337927
v -6.911982 -0.977648 -1.311698
v -6.906531 -0.972197 -1.326841
v -6.911982 -0.947944 -1.330245
v -6.882278 -0.977648 -1.330245
v -6.882278 1.010049 -1.311698
v -6.882278 0.968042 -1.337927
v -6.924285 0.968042 -1.311698
v -6.882278 0.997745 -1.330245
v -6.906531 0.992295 -1.326842
v -6.911982 0.968042 -1.330245
v -6.911982 0.997745 -1.311698
v 0.506917 -0.989951 -0.115354
v 0.548924 -0.947944 -0.115354
v 0.506917 -0.947944 -0.089125
v 0.536621 -0.977647 -0.115354
v 0.531170 -0.972197 -0.100211
v 0.536621 -0.947944 -0.096807
v 0.506917 -0.977647 -0.096807
v 0.506917 1.010049 -0.115354
v 0.506917 0.968042 -0.089125
v 0.548924 0.968042 -0.115354
v 0.506917 0.997746 -0.096808
v 0.531170 0.992295 -0.100211
v 0.536621 0.968042 -0.096808
v 0.536621 0.997746 -0.115354
v 0.506917 -0.989951 -1.311698
v 0.506917 -0.947944 -1.337927
v 0.548924 -0.947944 -1.311698
v 0.506917 -0.977648 -1.330245
v 0.531170 -0.972197 -1.326841
v 0.536621 -0.947944 -1.330245
v 0.536621 -0.977648 -1.311698
v 0.506917 1.010049 -1.311698
v 0.548924 0.968042 -1.311698
v 0.506917 0.968042 -1.337927
v 0.536621 0.997745 -1.311698
v 0.531170 0.992295 -1.326842
v 0.536621 0.968042 -1.330245
v 0.506917 0.997745 -1.330245
vt 0.254975 0.784964
vt 0.495026 0.004195
vt 0.495026 0.784964
vt 0.245026 0.995805
vt 0.004974 0.793355
vt 0.245026 0.793355
vt 0.754974 0.004195
vt 0.995026 0.784964
vt 0.754974 0.784964
vt 0.745026 0.995805
vt 0.504974 0.793355
vt 0.745026 0.793355
vt 0.504975 0.784964
vt 0.745026 0.004195
vt 0.745026 0.784964
vt 0.245026 0.784964
vt 0.248064 0.787527
vt 0.245026 0.788103
vt 0.498064 0.001633
vt 0.498747 0.004195
vt 0.748064 0.790792
vt 0.748747 0.793355
vt 0.254974 0.004195
vt 0.251936 0.001633
vt 0.254974 0.001057
vt 0.995026 0.004195
vt 0.998064 0.001633
vt 0.998747 0.004195
vt 0.748064 0.998367
vt 0.745026 0.998943
vt 0.004974 0.784964
vt 0.001936 0.787527
vt 0.001253 0.784964
vt 0.501936 0.790792
vt 0.504974 0.790216
vt 0.748064 0.787527
vt 0.745026 0.788103
vt 0.751936 0.001633
vt 0.754974 0.001057
vt 0.501936 0.787527
vt 0.501253 0.784964
vt 0.504974 0.995805
vt 0.501936 0.998367
vt 0.501253 0.995805
vt 0.245026 0.004195
vt 0.248064 0.001633
vt 0.248747 0.004195
vt 0.001936 0.790792
vt 0.004974 0.790216
vt 0.498064 0.787527
vt 0.495026 0.788103
vt 0.998064 0.787527
vt 0.995026 0.788103
vt 0.251936 0.787527
vt 0.251253 0.784964
vt 0.004974 0.995805
vt 0.001936 0.998367
vt 0.001253 0.995805
vt 0.004975 0.004195
vt 0.001936 0.001633
vt 0.004975 0.001057
vt 0.748064 0.001633
vt 0.748747 0.004195
vt 0.248064 0.790792
vt 0.248747 0.793355
vt 0.751936 0.787527
vt 0.751253 0.784964
vt 0.248064 0.998367
vt 0.245026 0.998943
vt 0.504974 0.004195
vt 0.501936 0.001633
vt 0.504974 0.001057
vt 0.004974 0.788103
vt 0.745026 0.790216
vt 0.495026 0.001057
vt 0.748747 0.995805
vt 0.995026 0.001057
vt 0.504974 0.998943
vt 0.504975 0.788103
vt 0.501253 0.793355
vt 0.001253 0.004195
vt 0.748747 0.784964
vt 0.751253 0.004195
vt 0.501253 0.004195
vt 0.248747 0.995805
vt 0.745026 0.001057
vt 0.245026 0.001057
vt 0.245026 0.790216
vt 0.754974 0.788103
vt 0.004974 0.998943
vt 0.254975 0.788103
vt 0.001253 0.793355
vt 0.248747 0.784964
vt 0.498747 0.784964
vt 0.998747 0.784964
vt 0.251253 0.004195
vn 0.1176 0.1176 0.9861
vn -0.1176 -0.1176 0.9861
vn 0.1176 -0.1176 0.9861
vn 0.9477 0.1735 -0.2680
vn 0.9477 -0.1735 0.2680
vn 0.9477 -0.1735 -0.2680
vn -0.1735 0.9477 -0.2680
vn 0.1735 0.9477 0.2680
vn 0.1735 0.9477 -0.2680
vn -0.9477 0.1735 0.2680
vn -0.9477 -0.1735 -0.2680
vn -0.9477 -0.1735 0.2680
vn -0.1176 0.1176 -0.9861
vn 0.1176 -0.1176 -0.9861
vn -0.1176 -0.1176 -0.9861
vn -0.1735 -0.9477 0.2680
vn -0.5027 -0.5027 0.7033
vn -0.6896 -0.6896 0.2213
vn -0.1175 -0.5843 0.8030
vn -0.5843 -0.1175 0.8030
vn -0.1176 0.1176 0.9861
vn -0.5027 0.5027 0.7033
vn -0.5843 0.1175 0.8030
vn -0.1735 0.9477 0.2680
vn -0.1175 0.5843 0.8030
vn -0.6896 0.6896 0.2213
vn -0.1735 -0.9477 -0.2680
vn -0.5027 -0.5027 -0.7033
vn -0.1175 -0.5843 -0.8030
vn -0.6896 -0.6896 -0.2213
vn -0.5843 -0.1175 -0.8030
vn -0.5027 0.5027 -0.7033
vn -0.6896 0.6896 -0.2213
vn -0.1175 0.5843 -0.8030
vn -0.9477 0.1735 -0.2680
vn -0.5843 0.1175 -0.8030
vn 0.1735 -0.9477 0.2680
vn 0.5027 -0.5027 0.7033
vn 0.1175 -0.5843 0.8030
vn 0.6896 -0.6896 0.2213
vn 0.5843 -0.1175 0.8030
vn 0.5027 0.5027 0.7033
vn 0.6896 0.6896 0.2213
vn 0.1175 0.5843 0.8030
vn 0.9477 0.1735 0.2680
vn 0.5843 0.1175 0.8030
vn 0.1735 -0.9477 -0.2680
vn 0.5027 -0.5027 -0.7033
vn 0.6896 -0.6896 -0.2213
vn 0.1175 -0.5843 -0.8030
vn 0.5843 -0.1175 -0.8030
vn 0.5027 0.5027 -0.7033
vn 0.1175 0.5843 -0.8030
vn 0.6896 0.6896 -0.2213
vn 0.1176 0.1176 -0.9861
vn 0.5843 0.1175 -0.8030
usemtl Material_Mesa_Meio
s 1
f 37/1/1 2/2/2 31/3/3
f 51/4/4 30/5/5 45/6/6
f 22/7/7 36/8/8 50/9/9
f 10/10/10 16/11/11 3/12/12
f 23/13/13 44/14/14 17/15/15
f 1/16/16 5/17/17 7/18/18
f 2/2/2 5/19/17 4/20/19
f 3/12/12 5/21/17 6/22/20
f 8/23/21 12/24/22 14/25/23
f 9/26/24 12/27/22 11/28/25
f 10/10/10 12/29/22 13/30/26
f 15/31/27 19/32/28 21/33/29
f 16/11/11 19/34/28 18/35/30
f 17/15/15 19/36/28 20/37/31
f 22/7/7 26/38/32 28/39/33
f 23/13/13 26/40/32 25/41/34
f 24/42/35 26/43/32 27/44/36
f 29/45/37 33/46/38 35/47/39
f 30/5/5 33/48/38 32/49/40
f 31/3/3 33/50/38 34/51/41
f 36/8/8 40/52/42 42/53/43
f 37/1/1 40/54/42 39/55/44
f 38/56/45 40/57/42 41/58/46
f 43/59/47 47/60/48 49/61/49
f 44/14/14 47/62/48 46/63/50
f 45/6/6 47/64/48 48/65/51
f 50/9/9 54/66/52 56/67/53
f 51/4/4 54/68/52 53/69/54
f 52/70/55 54/71/52 55/72/56
f 1/16/16 18/73/30 15/31/27
f 7/74/18 16/11/11 18/35/30
f 8/23/21 6/75/20 2/2/2
f 14/76/23 3/12/12 6/22/20
f 22/7/7 13/77/26 9/26/24
f 28/78/33 10/10/10 13/30/26
f 17/15/15 27/79/36 23/13/13
f 20/80/31 24/42/35 27/44/36
f 15/31/27 46/81/50 43/59/47
f 21/82/29 44/14/14 46/63/50
f 50/9/9 25/83/34 22/7/7
f 56/84/53 23/13/13 25/41/34
f 45/6/6 55/85/56 51/4/4
f 48/86/51 52/70/55 55/72/56
f 43/59/47 32/87/40 29/45/37
f 49/88/49 30/5/5 32/49/40
f 36/8/8 53/89/54 50/9/9
f 42/90/43 51/4/4 53/69/54
f 31/3/3 41/91/46 37/1/1
f 34/92/41 38/56/45 41/58/46
f 29/45/37 4/93/19 1/16/16
f 35/94/39 2/2/2 4/20/19
f 9/26/24 39/95/44 36/8/8
f 11/96/25 37/1/1 39/55/44
f 43/59/47 1/16/16 15/31/27
f 37/1/1 8/23/21 2/2/2
f 51/4/4 38/56/45 30/5/5
f 22/7/7 9/26/24 36/8/8
f 10/10/10 24/42/35 16/11/11
f 23/13/13 52/70/55 44/14/14
f 1/16/16 4/93/19 5/17/17
f 2/2/2 6/75/20 5/19/17
f 3/12/12 7/74/18 5/21/17
f 8/23/21 11/96/25 12/24/22
f 9/26/24 13/77/26 12/27/22
f 10/10/10 14/76/23 12/29/22
f 15/31/27 18/73/30 19/32/28
f 16/11/11 20/80/31 19/34/28
f 17/15/15 21/82/29 19/36/28
f 22/7/7 25/83/34 26/38/32
f 23/13/13 27/79/36 26/40/32
f 24/42/35 28/78/33 26/43/32
f 29/45/37 32/87/40 33/46/38
f 30/5/5 34/92/41 33/48/38
f 31/3/3 35/94/39 33/50/38
f 36/8/8 39/95/44 40/52/42
f 37/1/1 41/91/46 40/54/42
f 38/56/45 42/90/43 40/57/42
f 43/59/47 46/81/50 47/60/48
f 44/14/14 48/86/51 47/62/48
f 45/6/6 49/88/49 47/64/48
f 50/9/9 53/89/54 54/66/52
f 51/4/4 55/85/56 54/68/52
f 52/70/55 56/84/53 54/71/52
f 1/16/16 7/18/18 18/73/30
f 7/74/18 3/12/12 16/11/11
f 8/23/21 14/25/23 6/75/20
f 14/76/23 10/10/10 3/12/12
f 22/7/7 28/39/33 13/77/26
f 28/78/33 24/42/35 10/10/10
f 17/15/15 20/37/31 27/79/36
f 20/80/31 16/11/11 24/42/35
f 15/31/27 21/33/29 46/81/50
f 21/82/29 17/15/15 44/14/14
f 50/9/9 56/67/53 25/83/34
f 56/84/53 52/70/55 23/13/13
f 45/6/6 48/65/51 55/85/56
f 48/86/51 44/14/14 52/70/55
f 43/59/47 49/61/49 32/87/40
f 49/88/49 45/6/6 30/5/5
f 36/8/8 42/53/43 53/89/54
f 42/90/43 38/56/45 51/4/4
f 31/3/3 34/51/41 41/91/46
f 34/92/41 30/5/5 38/56/45
f 29/45/37 35/47/39 4/93/19
f 35/94/39 31/3/3 2/2/2
f 9/26/24 11/28/25 39/95/44
f 11/96/25 8/23/21 37/1/1
f 43/59/47 29/45/37 1/16/16
